<svg width="20" height="20" viewBox="0 0 20 20" fill="none" xmlns="http://www.w3.org/2000/svg">
<path d="M10.0013 18.3333C5.3988 18.3333 1.66797 14.6025 1.66797 10C1.66797 5.3975 5.3988 1.66666 10.0013 1.66666C14.6038 1.66666 18.3346 5.3975 18.3346 10C18.3346 14.6025 14.6038 18.3333 10.0013 18.3333ZM10.0013 16.6667C11.7694 16.6667 13.4651 15.9643 14.7153 14.714C15.9656 13.4638 16.668 11.7681 16.668 10C16.668 8.23189 15.9656 6.5362 14.7153 5.28595C13.4651 4.03571 11.7694 3.33333 10.0013 3.33333C8.23319 3.33333 6.5375 4.03571 5.28726 5.28595C4.03701 6.5362 3.33464 8.23189 3.33464 10C3.33464 11.7681 4.03701 13.4638 5.28726 14.714C6.5375 15.9643 8.23319 16.6667 10.0013 16.6667ZM9.16797 12.5H10.8346V14.1667H9.16797V12.5ZM10.8346 11.1292V11.6667H9.16797V10.4167C9.16797 10.1957 9.25577 9.98369 9.41205 9.82741C9.56833 9.67113 9.78029 9.58333 10.0013 9.58333C10.238 9.58332 10.4699 9.51608 10.6699 9.38944C10.8699 9.2628 11.0299 9.08197 11.1311 8.86798C11.2324 8.654 11.2708 8.41566 11.2419 8.1807C11.213 7.94574 11.1179 7.72382 10.9678 7.54076C10.8177 7.3577 10.6187 7.22102 10.394 7.14664C10.1692 7.07226 9.928 7.06322 9.69832 7.12059C9.46865 7.17795 9.25998 7.29936 9.09661 7.47068C8.93323 7.642 8.82187 7.85619 8.77547 8.08833L7.14047 7.76083C7.24183 7.25423 7.47589 6.78364 7.81874 6.39715C8.16158 6.01067 8.6009 5.72215 9.09179 5.5611C9.58269 5.40005 10.1075 5.37224 10.6127 5.48051C11.1179 5.58878 11.5852 5.82926 11.967 6.17735C12.3488 6.52544 12.6312 6.96867 12.7856 7.46172C12.9399 7.95477 12.9605 8.47995 12.8454 8.98359C12.7302 9.48722 12.4833 9.95125 12.1301 10.3282C11.7768 10.7052 11.3297 10.9816 10.8346 11.1292Z" fill="#244B99"/>
</svg>
