<svg width="20" height="20" viewBox="0 0 20 20" fill="none" xmlns="http://www.w3.org/2000/svg">
<path d="M1.66669 10H3.33335C3.33335 9.09502 3.50919 8.22002 3.85585 7.39835C4.19002 6.60335 4.67085 5.89085 5.28085 5.28085C5.89335 4.66835 6.60669 4.18835 7.39919 3.85585C9.01252 3.17585 10.8834 3.16669 12.5075 3.82169C12.5459 4.94252 13.4534 5.83335 14.5834 5.83335C15.7384 5.83335 16.6667 4.90502 16.6667 3.75002C16.6667 2.59502 15.7384 1.66669 14.5834 1.66669C14.0092 1.66669 13.49 1.89669 13.1142 2.27085C11.0884 1.46002 8.76169 1.47252 6.75169 2.32002C5.76085 2.73669 4.86835 3.33669 4.10169 4.10252C3.33752 4.86585 2.73752 5.75752 2.31835 6.75169C1.88669 7.77835 1.66669 8.87169 1.66669 10ZM16.1442 12.6017C15.81 13.395 15.33 14.1084 14.7192 14.7192C14.1084 15.33 13.395 15.81 12.6009 16.1442C10.9875 16.8242 9.11669 16.8334 7.49252 16.1784C7.45419 15.0575 6.54669 14.1667 5.41669 14.1667C4.26169 14.1667 3.33335 15.095 3.33335 16.25C3.33335 17.405 4.26169 18.3334 5.41669 18.3334C5.99085 18.3334 6.51002 18.1034 6.88585 17.7292C7.87419 18.1267 8.92002 18.3334 10 18.3334C11.1284 18.3334 12.2209 18.1134 13.2475 17.6809C14.2409 17.2617 15.1334 16.6617 15.8975 15.8975C16.6617 15.1334 17.2617 14.2417 17.6809 13.2484C18.1134 12.2209 18.3334 11.1284 18.3334 10H16.6667C16.6667 10.9042 16.4909 11.7792 16.1442 12.6017Z" fill="white"/>
<path d="M9.99999 6.21832C7.91499 6.21832 6.21832 7.91499 6.21832 9.99999C6.21832 12.085 7.91499 13.7817 9.99999 13.7817C12.085 13.7817 13.7817 12.085 13.7817 9.99999C13.7817 7.91499 12.085 6.21832 9.99999 6.21832ZM9.99999 12.115C8.83416 12.115 7.88499 11.1658 7.88499 9.99999C7.88499 8.83416 8.83416 7.88499 9.99999 7.88499C11.1658 7.88499 12.115 8.83416 12.115 9.99999C12.115 11.1658 11.1658 12.115 9.99999 12.115Z" fill="white"/>
</svg>
