<svg width="41" height="32" viewBox="0 0 41 32" fill="none" xmlns="http://www.w3.org/2000/svg">
<path d="M4.38188 4.584C7.18788 1.542 11.4339 0 16.9999 0H18.9999V5.638L17.3919 5.96C14.6519 6.508 12.7459 7.586 11.7259 9.168C11.0999 10.142 10.8939 11.182 10.8499 12H14.9999H16.9999C18.1059 12 18.9999 12.894 18.9999 14V28C18.9999 30.206 17.2059 32 14.9999 32H2.99988C1.89388 32 0.99988 31.106 0.99988 30V20L1.00588 14.162C0.98788 13.94 0.60788 8.68 4.38188 4.584ZM36.9999 32H24.9999C23.8939 32 22.9999 31.106 22.9999 30V20L23.0059 14.162C22.9879 13.94 22.6079 8.68 26.3819 4.584C29.1879 1.542 33.4339 0 38.9999 0H40.9999V5.638L39.3919 5.96C36.6519 6.508 34.7459 7.586 33.7259 9.168C33.0999 10.142 32.8939 11.182 32.8499 12H36.9999H38.9999C40.1059 12 40.9999 12.894 40.9999 14V28C40.9999 30.206 39.2059 32 36.9999 32Z" fill="#01AEF2"/>
</svg>
