<svg width="20" height="20" viewBox="0 0 20 20" fill="none" xmlns="http://www.w3.org/2000/svg">
<path d="M9.99998 18.333C14.595 18.333 18.3333 14.5947 18.3333 9.99967C18.3333 5.40467 14.595 1.66634 9.99998 1.66634C5.40498 1.66634 1.66664 5.40468 1.66664 9.99968C1.66664 14.5947 5.40498 18.333 9.99998 18.333ZM9.99998 3.33301C13.6758 3.33301 16.6666 6.32384 16.6666 9.99967C16.6666 13.6755 13.6758 16.6663 9.99998 16.6663C6.32415 16.6663 3.33331 13.6755 3.33331 9.99968C3.33331 6.32384 6.32414 3.33301 9.99998 3.33301Z" fill="#092540"/>
<path d="M10 8.67836L13.5775 12.2559L14.7559 11.0775L10 6.32169L5.24419 11.0775L6.42253 12.2559L10 8.67836Z" fill="#092540"/>
</svg>
