<svg width="20" height="20" viewBox="0 0 20 20" fill="none" xmlns="http://www.w3.org/2000/svg">
<path d="M4.16917 18.3333H7.5025H12.5025H15.8358C16.755 18.3333 17.5025 17.5858 17.5025 16.6667V9.16665C17.5025 8.94582 17.415 8.73332 17.2583 8.57749L10.5917 1.91082C10.2658 1.58498 9.73917 1.58498 9.41334 1.91082L2.74667 8.57749C2.59 8.73332 2.5025 8.94582 2.5025 9.16665V16.6667C2.5025 17.5858 3.25 18.3333 4.16917 18.3333ZM8.33584 16.6667V12.5H11.6692V16.6667H8.33584ZM4.16917 9.51165L10.0025 3.67832L15.8358 9.51165L15.8367 16.6667H13.3358V12.5C13.3358 11.5808 12.5883 10.8333 11.6692 10.8333H8.33584C7.41667 10.8333 6.66917 11.5808 6.66917 12.5V16.6667H4.16917V9.51165Z" fill="white"/>
</svg>
