<svg width="36" height="42" viewBox="0 0 36 42" fill="none" xmlns="http://www.w3.org/2000/svg">
<path d="M30 14H34C34.5304 14 35.0391 14.2107 35.4142 14.5858C35.7893 14.9609 36 15.4696 36 16V40C36 40.5304 35.7893 41.0391 35.4142 41.4142C35.0391 41.7893 34.5304 42 34 42H2C1.46957 42 0.960859 41.7893 0.585786 41.4142C0.210714 41.0391 0 40.5304 0 40V16C0 15.4696 0.210714 14.9609 0.585786 14.5858C0.960859 14.2107 1.46957 14 2 14H6V12C6 8.8174 7.26428 5.76515 9.51472 3.51472C11.7652 1.26428 14.8174 0 18 0C21.1826 0 24.2348 1.26428 26.4853 3.51472C28.7357 5.76515 30 8.8174 30 12V14ZM26 14V12C26 9.87827 25.1571 7.84344 23.6569 6.34315C22.1566 4.84285 20.1217 4 18 4C15.8783 4 13.8434 4.84285 12.3431 6.34315C10.8429 7.84344 10 9.87827 10 12V14H26ZM8 20V24H12V20H8ZM8 26V30H12V26H8ZM8 32V36H12V32H8Z" fill="#01AEF2"/>
</svg>
