<svg width="20" height="20" viewBox="0 0 20 20" fill="none" xmlns="http://www.w3.org/2000/svg">
<path d="M17.4958 5.74997C17.4675 5.46497 17.295 5.21497 17.0391 5.08747L10.3725 1.75414C10.1383 1.63664 9.86164 1.63664 9.62664 1.75414L2.95997 5.08747C2.70497 5.21581 2.53247 5.46581 2.50414 5.74997C2.49497 5.83914 1.70331 14.7225 9.66164 18.2616C9.76914 18.31 9.88414 18.3333 9.99997 18.3333C10.1158 18.3333 10.2308 18.31 10.3383 18.2616C18.2966 14.7225 17.505 5.83997 17.4958 5.74997ZM9.99997 16.5808V9.99997H4.59164C4.15997 8.42497 4.11997 7.04581 4.13831 6.36247L9.99997 3.43164V9.99997H15.3833C14.7508 12.2833 13.3016 14.9825 9.99997 16.5808Z" fill="white"/>
</svg>
