<svg width="18" height="18" viewBox="0 0 18 18" fill="none" xmlns="http://www.w3.org/2000/svg">
<path d="M13.166 4.00001H17.3327V5.66667H15.666V16.5C15.666 16.721 15.5782 16.933 15.4219 17.0893C15.2657 17.2455 15.0537 17.3333 14.8327 17.3333H3.16602C2.945 17.3333 2.73304 17.2455 2.57676 17.0893C2.42048 16.933 2.33268 16.721 2.33268 16.5V5.66667H0.666016V4.00001H4.83268V1.50001C4.83268 1.27899 4.92048 1.06703 5.07676 0.910749C5.23304 0.754469 5.445 0.666672 5.66602 0.666672H12.3327C12.5537 0.666672 12.7657 0.754469 12.9219 0.910749C13.0782 1.06703 13.166 1.27899 13.166 1.50001V4.00001ZM6.49935 8.16667V13.1667H8.16602V8.16667H6.49935ZM9.83268 8.16667V13.1667H11.4993V8.16667H9.83268ZM6.49935 2.33334V4.00001H11.4993V2.33334H6.49935Z" fill="#9AA1B2"/>
</svg>
