<svg width="80" height="80" viewBox="0 0 80 80" fill="none" xmlns="http://www.w3.org/2000/svg">
<path d="M12.3033 20.9733C16.98 15.9033 24.0567 13.3333 33.3333 13.3333H36.6667V22.73L33.9867 23.2666C29.42 24.18 26.2433 25.9766 24.5433 28.6133C23.5 30.2366 23.1567 31.97 23.0833 33.3333H30H33.3333C35.1767 33.3333 36.6667 34.8233 36.6667 36.6666V60C36.6667 63.6766 33.6767 66.6666 30 66.6666H10C8.15667 66.6666 6.66667 65.1766 6.66667 63.3333V46.6666L6.67667 36.9366C6.64667 36.5666 6.01333 27.8 12.3033 20.9733ZM66.6667 66.6666H46.6667C44.8233 66.6666 43.3333 65.1766 43.3333 63.3333V46.6666L43.3433 36.9366C43.3133 36.5666 42.68 27.8 48.97 20.9733C53.6467 15.9033 60.7233 13.3333 70 13.3333H73.3333V22.73L70.6533 23.2666C66.0867 24.18 62.91 25.9766 61.21 28.6133C60.1667 30.2366 59.8233 31.97 59.75 33.3333H66.6667H70C71.8433 33.3333 73.3333 34.8233 73.3333 36.6666V60C73.3333 63.6766 70.3433 66.6666 66.6667 66.6666Z" fill="white" fill-opacity="0.2"/>
</svg>
