<svg width="18" height="16" viewBox="0 0 18 16" fill="none" xmlns="http://www.w3.org/2000/svg">
<path d="M3.02335 15.5L3.00669 15.5167L2.98919 15.5H1.49335C1.27403 15.4998 1.06377 15.4125 0.908762 15.2573C0.753755 15.1022 0.666687 14.8918 0.666687 14.6725V1.3275C0.668212 1.10865 0.755771 0.899181 0.910448 0.744348C1.06512 0.589515 1.2745 0.501746 1.49335 0.5H16.5067C16.9634 0.5 17.3334 0.870833 17.3334 1.3275V14.6725C17.3318 14.8914 17.2443 15.1008 17.0896 15.2557C16.9349 15.4105 16.7255 15.4983 16.5067 15.5H3.02335ZM15.6667 10.5V2.16667H2.33335V13.8333L10.6667 5.5L15.6667 10.5ZM15.6667 12.8567L10.6667 7.85667L4.69002 13.8333H15.6667V12.8567ZM5.66669 7.16667C5.22466 7.16667 4.80074 6.99107 4.48818 6.67851C4.17562 6.36595 4.00002 5.94203 4.00002 5.5C4.00002 5.05797 4.17562 4.63405 4.48818 4.32149C4.80074 4.00893 5.22466 3.83333 5.66669 3.83333C6.10871 3.83333 6.53264 4.00893 6.8452 4.32149C7.15776 4.63405 7.33335 5.05797 7.33335 5.5C7.33335 5.94203 7.15776 6.36595 6.8452 6.67851C6.53264 6.99107 6.10871 7.16667 5.66669 7.16667Z" fill="#363E52"/>
</svg>
