<svg width="14" height="12" viewBox="0 0 14 12" fill="none" xmlns="http://www.w3.org/2000/svg">
<path d="M6.17186 5.88532L11.4045 0.652649L12.3472 1.59532L11.4045 2.53865L13.0539 4.18798L12.1112 5.13132L10.4612 3.48132L9.51853 4.42398L10.9325 5.83798L9.98986 6.78132L8.57586 5.36665L7.11453 6.82798C7.56816 7.51732 7.75009 8.35037 7.62514 9.16606C7.50019 9.98175 7.07723 10.7221 6.43804 11.2441C5.79886 11.766 4.98885 12.0324 4.16465 11.9917C3.34044 11.9511 2.56058 11.6063 1.97586 11.024C1.38988 10.4402 1.04188 9.6594 0.999499 8.83333C0.957117 8.00727 1.22338 7.19495 1.74654 6.55426C2.2697 5.91357 3.01238 5.49028 3.83024 5.36665C4.6481 5.24302 5.48271 5.42788 6.17186 5.88532ZM5.7472 10.0806C5.94141 9.89695 6.09682 9.67618 6.20425 9.4314C6.31168 9.18661 6.36895 8.92277 6.37266 8.65547C6.37638 8.38817 6.32647 8.12284 6.22589 7.87515C6.12531 7.62747 5.9761 7.40247 5.78707 7.21344C5.59804 7.02442 5.37304 6.8752 5.12536 6.77462C4.87768 6.67404 4.61234 6.62413 4.34505 6.62785C4.07775 6.63157 3.81391 6.68883 3.56912 6.79626C3.32433 6.90369 3.10356 7.05911 2.91986 7.25332C2.55555 7.63052 2.35396 8.13572 2.35852 8.66012C2.36307 9.18451 2.57341 9.68614 2.94423 10.057C3.31504 10.4278 3.81667 10.6381 4.34106 10.6427C4.86545 10.6472 5.37066 10.4456 5.74786 10.0813L5.7472 10.0806Z" fill="#9AA2B1"/>
</svg>
