<svg width="19" height="18" viewBox="0 0 19 18" fill="none" xmlns="http://www.w3.org/2000/svg">
<path d="M9.00002 17.3333C4.39752 17.3333 0.666687 13.6025 0.666687 8.99996C0.666687 4.39746 4.39752 0.666628 9.00002 0.666628C10.2939 0.665656 11.5702 0.966439 12.7275 1.54508C13.8847 2.12372 14.8911 2.96427 15.6667 3.99996H13.4084C12.446 3.15143 11.2593 2.59859 9.99062 2.40779C8.7219 2.217 7.42508 2.39634 6.25576 2.92431C5.08644 3.45227 4.09431 4.30643 3.39841 5.38428C2.70251 6.46214 2.33241 7.7179 2.33252 9.00089C2.33263 10.2839 2.70294 11.5396 3.39901 12.6173C4.09509 13.695 5.08737 14.549 6.25677 15.0768C7.42618 15.6046 8.72303 15.7837 9.99171 15.5927C11.2604 15.4017 12.447 14.8487 13.4092 14H15.6675C14.8919 15.0358 13.8854 15.8764 12.7279 16.455C11.5705 17.0337 10.294 17.3344 9.00002 17.3333ZM14.8334 12.3333V9.8333H8.16669V8.16663H14.8334V5.66663L19 8.99996L14.8334 12.3333Z" fill="#9AA1B2"/>
</svg>
