<svg xmlns="http://www.w3.org/2000/svg" viewBox="0 0 24 24"><path d="M13 2h-2c-1.1 0-2 .9-2 2v1.4c-1.2.5-2.2 1.8-2.4 3.3l-.3 2.5-2.6 1c-.3.1-.5.3-.6.6-.1.2-.1.5 0 .8L5.8 19c-.5.1-.8.5-.8 1 0 .6.4 1 1 1 .5 0 .6.1 1 .3v.1c.5.3 1 .6 2 .6 1.1 0 1.6-.4 2.1-.7.3-.2.5-.3.9-.3.5 0 .6.1 1 .3.4.3 1 .7 2.1.7 1 0 1.5-.3 2-.6l.1-.1c.3-.2.5-.3 1-.3.6 0 1-.4 1-1 0-.5-.3-.8-.8-1l2.7-5.4c.1-.3.1-.5 0-.8-.1-.3-.3-.5-.6-.6l-2.6-1-.3-2.5c-.2-1.6-1.2-2.8-2.4-3.4V4C15 2.9 14.1 2 13 2zm-2 2h2v1h-2V4zm5.5 8.8 2.2.8-3 6.2c-.3.1-.4.2-.7.2-.4 0-.6-.1-.9-.4-.4-.3-1-.8-2.1-.8s-1.7.4-2.1.8c-.3.3-.5.4-.9.4-.3 0-.4-.1-.6-.2l-3-6.2 2.1-.8 3.5-1.4V17c0 .6.4 1 1 1s1-.4 1-1v-5.5l3.5 1.3zM15.4 9l.2 1.3L12.4 9c-.2-.1-.5-.1-.7 0l-3.2 1.3.1-1.3c.2-1.2 1-2 2-2h2.9c.9 0 1.8.8 1.9 2z"/></svg>