<svg xmlns="http://www.w3.org/2000/svg" viewBox="0 0 32 32"><g data-name="Transaction history"><rect width="32" height="32" fill="#fff" opacity="0"/><path fill="none" stroke="#9AA1B2" stroke-linecap="round" stroke-linejoin="round" stroke-width="2" d="M19,5V19H13a1,1,0,0,0-1,1v6H5a2,2,0,0,1-2-2V5A2,2,0,0,1,5,3H17A2,2,0,0,1,19,5Z"/><rect width="17" height="10" x="12" y="19" fill="none" stroke="#9AA1B2" stroke-linecap="round" stroke-linejoin="round" stroke-width="2" rx="1" ry="1"/><circle cx="21" cy="24" r="2" fill="none" stroke="#9AA1B2" stroke-linecap="round" stroke-linejoin="round" stroke-width="2"/><line x1="7" x2="8" y1="7" y2="7" fill="none" stroke="#9AA1B2" stroke-linecap="round" stroke-linejoin="round" stroke-width="2"/><line x1="11" x2="15" y1="7" y2="7" fill="none" stroke="#9AA1B2" stroke-linecap="round" stroke-linejoin="round" stroke-width="2"/><line x1="7" x2="8" y1="11" y2="11" fill="none" stroke="#9AA1B2" stroke-linecap="round" stroke-linejoin="round" stroke-width="2"/><line x1="11" x2="15" y1="11" y2="11" fill="none" stroke="#9AA1B2" stroke-linecap="round" stroke-linejoin="round" stroke-width="2"/><line x1="7" x2="8" y1="15" y2="15" fill="none" stroke="#9AA1B2" stroke-linecap="round" stroke-linejoin="round" stroke-width="2"/><line x1="11" x2="15" y1="15" y2="15" fill="none" stroke="#9AA1B2" stroke-linecap="round" stroke-linejoin="round" stroke-width="2"/></g></svg>