<svg width="19" height="19" viewBox="0 0 19 19" fill="none" xmlns="http://www.w3.org/2000/svg">
<path d="M0.666687 18.3333C0.666687 16.5652 1.36907 14.8695 2.61931 13.6193C3.86955 12.369 5.56524 11.6667 7.33335 11.6667C9.10146 11.6667 10.7972 12.369 12.0474 13.6193C13.2976 14.8695 14 16.5652 14 18.3333H12.3334C12.3334 17.0073 11.8066 15.7355 10.8689 14.7978C9.93121 13.8601 8.65944 13.3333 7.33335 13.3333C6.00727 13.3333 4.7355 13.8601 3.79782 14.7978C2.86014 15.7355 2.33335 17.0073 2.33335 18.3333H0.666687ZM7.33335 10.8333C4.57085 10.8333 2.33335 8.59584 2.33335 5.83334C2.33335 3.07084 4.57085 0.833336 7.33335 0.833336C10.0959 0.833336 12.3334 3.07084 12.3334 5.83334C12.3334 8.59584 10.0959 10.8333 7.33335 10.8333ZM7.33335 9.16667C9.17502 9.16667 10.6667 7.675 10.6667 5.83334C10.6667 3.99167 9.17502 2.5 7.33335 2.5C5.49169 2.5 4.00002 3.99167 4.00002 5.83334C4.00002 7.675 5.49169 9.16667 7.33335 9.16667ZM14.2367 12.2525C15.4078 12.7799 16.4017 13.6344 17.0988 14.7131C17.796 15.7918 18.1668 17.0489 18.1667 18.3333H16.5C16.5002 17.37 16.2221 16.4271 15.6993 15.618C15.1764 14.8089 14.4309 14.1681 13.5525 13.7725L14.2359 12.2525H14.2367ZM13.6634 2.84417C14.503 3.19025 15.2208 3.77795 15.7259 4.53269C16.2309 5.28744 16.5004 6.1752 16.5 7.08334C16.5004 8.22695 16.0731 9.32936 15.3021 10.174C14.5312 11.0187 13.4722 11.5446 12.3334 11.6483V9.97084C12.9508 9.8824 13.5236 9.59835 13.9678 9.16038C14.4119 8.72242 14.7039 8.1536 14.801 7.53745C14.898 6.92129 14.795 6.29025 14.507 5.73696C14.219 5.18368 13.7612 4.73729 13.2009 4.46334L13.6634 2.84417Z" fill="#363E52"/>
</svg>
