<svg width="16" height="19" viewBox="0 0 16 19" fill="none" xmlns="http://www.w3.org/2000/svg">
<path d="M6.99998 11.6667V13.3333C5.6739 13.3333 4.40213 13.8601 3.46445 14.7978C2.52676 15.7355 1.99998 17.0073 1.99998 18.3333H0.333313C0.333313 16.5652 1.03569 14.8695 2.28593 13.6193C3.53618 12.369 5.23187 11.6667 6.99998 11.6667ZM6.99998 10.8333C4.23748 10.8333 1.99998 8.59584 1.99998 5.83334C1.99998 3.07084 4.23748 0.833336 6.99998 0.833336C9.76248 0.833336 12 3.07084 12 5.83334C12 8.59584 9.76248 10.8333 6.99998 10.8333ZM6.99998 9.16667C8.84165 9.16667 10.3333 7.675 10.3333 5.83334C10.3333 3.99167 8.84165 2.5 6.99998 2.5C5.15831 2.5 3.66665 3.99167 3.66665 5.83334C3.66665 7.675 5.15831 9.16667 6.99998 9.16667ZM9.16248 15.6767C9.05682 15.232 9.05682 14.7688 9.16248 14.3242L8.33581 13.8467L9.16915 12.4033L9.99581 12.8808C10.3276 12.5666 10.7287 12.3348 11.1666 12.2042V11.25H12.8333V12.2042C13.2766 12.3358 13.6766 12.5708 14.0041 12.8808L14.8308 12.4033L15.6641 13.8467L14.8375 14.3242C14.943 14.7685 14.943 15.2315 14.8375 15.6758L15.6641 16.1533L14.8308 17.5967L14.0041 17.1192C13.6723 17.4334 13.2713 17.6652 12.8333 17.7958V18.75H11.1666V17.7958C10.7287 17.6652 10.3276 17.4334 9.99581 17.1192L9.16915 17.5967L8.33581 16.1533L9.16248 15.6767ZM12 16.25C12.3315 16.25 12.6494 16.1183 12.8839 15.8839C13.1183 15.6495 13.25 15.3315 13.25 15C13.25 14.6685 13.1183 14.3505 12.8839 14.1161C12.6494 13.8817 12.3315 13.75 12 13.75C11.6685 13.75 11.3505 13.8817 11.1161 14.1161C10.8817 14.3505 10.75 14.6685 10.75 15C10.75 15.3315 10.8817 15.6495 11.1161 15.8839C11.3505 16.1183 11.6685 16.25 12 16.25Z" fill="#363E52"/>
</svg>
