<svg xmlns="http://www.w3.org/2000/svg" id="Layer_1" x="0" y="0" enable-background="new 0 0 48 48" version="1.1" viewBox="0 0 48 48" xml:space="preserve"><g id="XMLID_350_"><path id="XMLID_354_" d="M45 15c0-4.4-3.6-8-8-8-3.7 0-6.8 2.6-7.7 6H8c-2.8 0-5 2.2-5 5v18c0 2.8 2.2 5 5 5h28c2.8 0 5-2.2 5-5V21.9c2.4-1.4 4-3.9 4-6.9zm-6 18h-8.1c-1.6 0-2.9-1.3-2.9-3s1.3-3 2.9-3H39v6zm0-8h-8.1c-2.7 0-4.9 2.2-4.9 5s2.2 5 4.9 5H39v1c0 1.7-1.3 3-3 3H8c-1.7 0-3-1.3-3-3V18c0-1.7 1.3-3 3-3h21c0 4.4 3.6 8 8 8 .7 0 1.4-.1 2-.3V25zm-2-4c-3.3 0-6-2.7-6-6s2.7-6 6-6 6 2.7 6 6-2.7 6-6 6z"/><path id="XMLID_493_" d="M37.7 11.3c-.1-.1-.2-.2-.3-.2-.2-.1-.5-.1-.8 0-.1.1-.2.1-.3.2l-2 2c-.4.4-.4 1 0 1.4s1 .4 1.4 0l.3-.3v3.5c0 .6.4 1 1 1s1-.4 1-1v-3.5l.3.3c.2.2.5.3.7.3s.5-.1.7-.3c.4-.4.4-1 0-1.4l-2-2z"/><circle id="XMLID_500_" cx="31" cy="30" r="1"/></g></svg>