<?xml version="1.0" encoding="utf-8"?>
<!-- Generator: Adobe Illustrator 25.2.1, SVG Export Plug-In . SVG Version: 6.00 Build 0)  -->
<svg version="1.1" xmlns="http://www.w3.org/2000/svg" xmlns:xlink="http://www.w3.org/1999/xlink" x="0px" y="0px"
	 viewBox="0 0 1167.7 777.7" style="enable-background:new 0 0 1167.7 777.7;" xml:space="preserve">
<style type="text/css">
	.st0{display:none;}
	.st1{display:inline;}
	.st2{fill:#F5F5F5;}
	.st3{fill:#E0E0E0;}
	.st4{fill:#EBEBEB;}
	.st5{display:inline;fill:#EBEBEB;}
	.st6{fill:#263238;}
	.st7{fill:#455A64;}
	.st8{fill:#E8505B;}
	.st9{opacity:0.3;}
	.st10{fill:#FAFAFA;}
	.st11{fill:#FFBE9D;}
	.st12{fill:#EB996E;}
	.st13{opacity:0.4;}
	.st14{fill:#FFFFFF;}
	.st15{opacity:0.2;}
	.st16{clip-path:url(#SVGID_2_);}
</style>
<g id="Background_Complete" class="st0">
	<g class="st1">
		<g>
			<path class="st2" d="M30.8,114c0,0-11.6,4.4,1.1,29.2c12.8,24.8,21.6,37.1,21.6,37.1s2.3,5.8-2.6,6.7c-4.8,0.9-15.5-0.8-17.7,5.2
				c-2.2,6.2,2.3,12,11.4,17c9.1,5.1,28.6,16.9,30.3,18c1.7,1.1,3.5,3.7,0.3,4.9c-3.2,1.2-27.2,3.7-25.3,15.1
				c1.9,11.3,29.5,21.3,32.5,22.4c3,1.1,3.7,2.4,3.5,4.1c-0.2,1.6-8.4,1.8-15.2,2.8c-6.8,1-14.5,3.4-12.9,9.8
				c1.7,6.4,18,19.9,57.8,23.7l18.5,0.5l10-15.7c19.4-34.9,17.6-56,13.2-61c-4.4-5-10.7,0-15.4,5c-4.7,5-9.4,11.7-10.9,11
				c-1.5-0.7-2.1-2-1.4-5.2c0.8-3.1,8.2-31.5,0-39.5c-8.3-8-24,10.3-26.8,12.3c-2.8,2-4-1-3.9-3c0.1-2.1,1.4-24.8,2.4-35.2
				c1-10.4-1.3-17.3-7.6-19c-6.1-1.6-10.8,8.2-14.3,11.6c-3.5,3.5-7-1.7-7-1.7s-5.1-14.2-18.3-38.8c-13.2-24.6-23.7-17.2-23.7-17.2"
				/>
		</g>
		<g>
			<g>
				<path class="st3" d="M135.1,314.7c-9.6-18.1-26.2-50.5-40.6-78.2c-14.4-27.7-27.4-52.8-36.9-71c-4.8-9-8.6-16.4-11.3-21.4
					c-1.3-2.5-2.4-4.5-3.1-5.8c-0.3-0.7-0.6-1.2-0.8-1.5c-0.2-0.3-0.3-0.5-0.3-0.5s0.1,0.2,0.3,0.5c0.2,0.4,0.5,0.9,0.8,1.5
					c0.7,1.3,1.8,3.3,3.2,5.8c2.7,5,6.7,12.3,11.5,21.4c9.6,18.1,22.7,43.1,37.1,70.9c14.4,27.7,30.9,60.2,40.4,78.3"/>
			</g>
		</g>
		<g>
			<g>
				<path class="st3" d="M48.1,195.1c0,0,0.5,0.1,1.3,0.4c0.8,0.3,2,0.7,3.4,1.2c2.9,1.1,6.9,2.6,11.2,4.4c4.3,1.8,8.1,3.4,11.1,4.6
					c1.3,0.5,2.5,1,3.4,1.4c0.8,0.3,1.2,0.5,1.2,0.6c0,0-0.5-0.1-1.3-0.3c-0.8-0.3-2-0.7-3.4-1.2c-2.9-1.1-6.8-2.7-11.2-4.5
					c-4.3-1.8-8.2-3.3-11.1-4.5c-1.3-0.5-2.5-1-3.4-1.4C48.5,195.3,48.1,195.1,48.1,195.1z"/>
			</g>
		</g>
		<g>
			<g>
				<path class="st3" d="M80.9,206.4c-0.1-0.1,2.7-8.4,6.3-18.5c3.7-10.2,6.7-18.4,6.9-18.4c0.1,0.1-2.7,8.4-6.3,18.5
					C84.2,198.2,81.1,206.4,80.9,206.4z"/>
			</g>
		</g>
		<g>
			<g>
				<path class="st3" d="M101.1,250c0,0,0.2-0.4,0.7-1.1c0.6-0.8,1.3-1.8,2.2-3c1.8-2.5,4.4-6.1,7-10.1c2.7-4,4.9-7.7,6.6-10.4
					c0.8-1.3,1.4-2.3,1.9-3.2c0.5-0.7,0.7-1.2,0.8-1.1c0,0-0.2,0.5-0.6,1.2c-0.4,0.8-1,1.9-1.8,3.3c-1.5,2.7-3.8,6.5-6.4,10.5
					c-2.7,4-5.2,7.5-7.2,10c-1,1.2-1.8,2.2-2.3,2.9C101.4,249.6,101.1,250,101.1,250z"/>
			</g>
		</g>
		<g>
			<g>
				<path class="st3" d="M69.1,246.3c0,0,0.5,0,1.3,0c0.9,0.1,2.1,0.2,3.4,0.3c2.9,0.2,6.9,0.6,11.3,1.1c4.4,0.5,8.4,0.9,11.3,1.2
					c1.3,0.2,2.5,0.3,3.4,0.4c0.8,0.1,1.2,0.2,1.2,0.2c0,0-0.5,0-1.3,0c-0.9-0.1-2.1-0.2-3.4-0.3c-2.9-0.2-6.9-0.6-11.3-1.1
					c-4.4-0.5-8.4-0.9-11.3-1.2c-1.3-0.2-2.5-0.3-3.4-0.4C69.5,246.4,69.1,246.3,69.1,246.3z"/>
			</g>
		</g>
		<g>
			<g>
				<path class="st3" d="M82,287c0,0,0.6,0,1.6,0c1.1,0.1,2.6,0.2,4.4,0.3c3.7,0.3,8.8,0.7,14.5,1.3c5.7,0.5,10.8,1,14.5,1.4
					c1.8,0.2,3.2,0.4,4.4,0.5c1,0.1,1.6,0.2,1.6,0.3c0,0-0.6,0-1.6,0c-1.1-0.1-2.6-0.2-4.4-0.3c-3.7-0.3-8.8-0.7-14.5-1.3
					c-5.6-0.5-10.8-1-14.5-1.4c-1.8-0.2-3.2-0.4-4.4-0.5C82.6,287.2,82,287.1,82,287z"/>
			</g>
		</g>
		<g>
			<g>
				<path class="st3" d="M122,290.5c0,0,0.3-0.5,0.9-1.5c0.7-1,1.6-2.3,2.6-3.9c2.2-3.3,5.3-7.9,8.5-13c3.2-5.1,6-9.9,8-13.3
					c1-1.7,1.8-3,2.4-4.1c0.6-1,0.9-1.5,0.9-1.5c0,0-0.2,0.6-0.7,1.6c-0.5,1-1.3,2.4-2.2,4.2c-1.9,3.5-4.7,8.3-7.9,13.4
					c-3.2,5.2-6.3,9.7-8.6,13c-1.2,1.6-2.1,2.9-2.8,3.8C122.4,290,122,290.5,122,290.5z"/>
			</g>
		</g>
	</g>
	<g class="st1">
		<g>
			<g>
				<g>
					<g>
						<path class="st2" d="M477.8,348.6c-26.7-17.4-33.7-51.1-33.6-81.6c0-5.1-0.7-10.4,1.6-15c2.3-4.5,7.8-7.8,12.4-5.8
							c3.8,1.7,5.6,6,7.8,9.6c3,4.7,7.3,8.6,12.3,11c3.3,1.6,7.3,2.5,10.5,0.6c4.3-2.6,4.6-8.6,4.4-13.7c-0.4-9.4-0.7-18.8-1.1-28.2
							c-0.2-5.1-0.4-10.2,1.1-15.1c1.4-4.8,4.8-9.4,9.5-10.9c4.8-1.5,10.8,1.1,12,6c0.5,2,0.1,4.2,0.3,6.3c0.2,2.1,1.3,4.4,3.3,4.9
							c2,0.5,4-1,5.5-2.5c5.1-5.3,8.4-11.9,11.5-18.6c3.1-6.6,6.1-13.4,10.7-19.1c4.6-5.7,11-10.3,18.2-11
							c7.2-0.6,15.1,3.6,17.1,10.6c2.1,7.1-1.9,14.4-6.2,20.3c-6.4,8.8-14.1,16.6-22.8,23.1c-1.6,1.2-3.2,2.5-3.8,4.3
							c-1,3.4,2.3,6.6,5.7,7.7c3.8,1.1,7.9,0.6,11.8,1c4,0.3,8.3,1.9,9.9,5.6c2.2,5.1-1.9,10.6-6.1,14.3
							c-8.3,7.4-17.8,13.3-28.1,17.4c-3.7,1.5-7.5,2.8-10.5,5.5c-2.9,2.7-4.6,7.3-2.7,10.8c1.9,3.5,6.6,4.5,10.5,3.7
							c3.9-0.8,7.3-3.1,11-4.6c6.9-2.8,15.8-2.6,20.5,3.2c3,3.9,3.5,9.3,2.1,14.1c-1.3,4.7-4.2,8.9-7.3,12.7
							c-10.7,13.4-24.6,24.4-40.6,30.4C508.9,352,494,353.9,477.8,348.6"/>
					</g>
				</g>
			</g>
		</g>
		<g>
			<g>
				<g>
					<g>
						<g>
							<path class="st3" d="M485.1,329.2c4-15.5,9.8-32.1,16.5-49.3c1.7-4.3,3.3-8.5,5-12.7c1.6-4.2,3.3-8.3,5.1-12.2
								c3.7-7.9,7.8-15.2,11.9-22c4.1-6.8,8.3-13.2,12.2-19c3.9-5.9,7.7-11.3,11.4-16.1c7.3-9.6,14.1-16.6,18.9-21.3
								c2.4-2.3,4.4-4.1,5.7-5.2c0.6-0.6,1.1-1,1.5-1.3c0.3-0.3,0.5-0.4,0.5-0.4c0,0-0.1,0.2-0.5,0.5c-0.4,0.3-0.8,0.8-1.5,1.4
								c-1.3,1.2-3.2,3-5.6,5.4c-4.8,4.7-11.5,11.8-18.7,21.4c-3.6,4.8-7.4,10.2-11.3,16.1c-3.9,5.9-8,12.2-12.1,19.1
								c-4.1,6.8-8.2,14.1-11.8,22c-1.8,3.9-3.4,8-5.1,12.2c-1.6,4.2-3.3,8.4-5,12.7c-6.7,17.2-12.5,33.7-16.5,49.2"/>
						</g>
					</g>
				</g>
			</g>
		</g>
		<g>
			<g>
				<g>
					<g>
						<g>
							<path class="st3" d="M511.9,255c-0.1,0-0.3-0.8-0.6-2.1c-0.3-1.4-0.7-3.4-1.1-5.9c-0.9-5-1.8-12-2.9-19.6
								c-1-7.7-2.1-14.6-3-19.6c-0.5-2.5-0.9-4.5-1.2-5.9c-0.3-1.4-0.4-2.2-0.4-2.2c0.1,0,0.3,0.7,0.7,2.1c0.4,1.4,0.9,3.4,1.4,5.8
								c1.1,5,2.3,11.9,3.3,19.6c1,7.6,1.9,14.4,2.6,19.7c0.3,2.4,0.6,4.4,0.8,6C511.9,254.2,512,254.9,511.9,255z"/>
						</g>
					</g>
				</g>
			</g>
		</g>
		<g>
			<g>
				<g>
					<g>
						<g>
							<path class="st3" d="M576.5,240.8c0,0.1-0.9,0.2-2.6,0.4c-1.7,0.2-4.1,0.5-7,0.9c-5.9,0.8-14.1,2.3-23,4.2
								c-8.9,2-16.9,4.1-22.7,5.8c-2.9,0.8-5.2,1.6-6.8,2.1c-1.6,0.5-2.5,0.8-2.5,0.7c0-0.1,0.8-0.4,2.4-1c1.6-0.6,3.9-1.4,6.7-2.4
								c5.7-1.9,13.7-4.1,22.7-6.1c9-2,17.2-3.3,23.1-4c3-0.4,5.4-0.5,7.1-0.6C575.5,240.7,576.5,240.7,576.5,240.8z"/>
						</g>
					</g>
				</g>
			</g>
		</g>
		<g>
			<g>
				<g>
					<g>
						<g>
							<path class="st3" d="M485.8,328c0,0-0.2-0.3-0.5-0.8c-0.3-0.6-0.7-1.4-1.2-2.3c-1-2-2.4-5-4.1-8.6
								c-3.4-7.3-7.7-17.6-12.3-29.1c-4.6-11.4-8.9-21.7-12.1-29.1c-1.6-3.6-2.9-6.6-3.8-8.8c-0.4-1-0.7-1.7-1-2.4
								c-0.2-0.5-0.3-0.8-0.3-0.9c0,0,0.2,0.3,0.5,0.8c0.3,0.6,0.7,1.4,1.2,2.3c1,2,2.4,5,4.1,8.6c3.4,7.3,7.7,17.6,12.3,29.1
								c4.6,11.4,8.9,21.7,12.1,29.1c1.6,3.6,2.9,6.6,3.8,8.8c0.4,1,0.8,1.7,1,2.4C485.8,327.7,485.9,328,485.8,328z"/>
						</g>
					</g>
				</g>
			</g>
		</g>
		<g>
			<g>
				<g>
					<g>
						<g>
							<path class="st3" d="M571.3,297.5c0,0-0.3,0.2-0.8,0.4c-0.7,0.2-1.5,0.6-2.5,0.9c-2.3,0.8-5.4,1.9-9.2,3.3
								c-7.7,2.8-18.4,6.7-30.1,11.1c-11.7,4.4-22.4,8.2-30.2,10.9c-3.9,1.3-7.1,2.3-9.3,3c-1,0.3-1.9,0.5-2.5,0.8
								c-0.6,0.2-0.9,0.2-0.9,0.2c0,0,0.3-0.2,0.8-0.4c0.7-0.2,1.5-0.5,2.5-0.9c2.3-0.8,5.4-1.9,9.1-3.3c7.7-2.8,18.4-6.7,30.1-11.1
								c11.7-4.4,22.4-8.2,30.2-10.9c3.9-1.3,7.1-2.3,9.3-3c1-0.3,1.9-0.6,2.5-0.8C571,297.6,571.3,297.5,571.3,297.5z"/>
						</g>
					</g>
				</g>
			</g>
		</g>
	</g>
	<g class="st1">
		<path class="st4" d="M105.7,72.3c0.8-5.9-7.5-10.7-13.7-11.2c-3-0.2-6,0.2-8.8-0.8c-6.1-2.1-8.5-10-14.4-12.5
			c-4.4-1.9-9.5-0.2-13.8,2c-4.3,2.2-8.5,4.9-13.4,5.2c-4.2,0.3-8.7-1.3-12.4,0.8c-2.7,1.5-4.2,4.7-6.7,6.5
			c-2.5,1.8-5.7,2.2-8.7,2.4s-6.2,0.2-9,1.5c-2.8,1.3-5.1,4.2-4.5,7.2L105.7,72.3z"/>
	</g>
	<g class="st1">
		<path class="st2" d="M518.9,126c0.8-6.1-7.7-11-14.1-11.6c-3.1-0.2-6.2,0.2-9.2-0.8c-6.3-2.2-8.8-10.3-14.9-12.9
			c-4.6-1.9-9.9-0.2-14.3,2c-4.4,2.2-8.8,5.1-13.8,5.4c-4.3,0.3-9-1.3-12.8,0.8c-2.8,1.6-4.3,4.8-6.9,6.7c-2.5,1.9-5.9,2.3-9,2.4
			c-3.2,0.2-6.4,0.2-9.3,1.5c-2.9,1.3-5.2,4.4-4.7,7.5L518.9,126z"/>
	</g>
	<g class="st1">
		<path class="st2" d="M647.3,152.6c0.5-3.7-4.8-6.8-8.7-7.1c-1.9-0.2-3.8,0.1-5.6-0.5c-3.9-1.4-5.4-6.4-9.2-7.9
			c-2.8-1.2-6.1-0.1-8.8,1.2c-2.7,1.4-5.4,3.1-8.5,3.3c-2.7,0.2-5.6-0.8-7.9,0.5c-1.7,1-2.6,3-4.2,4.1c-1.6,1.2-3.6,1.4-5.5,1.5
			c-1.9,0.1-4,0.1-5.7,0.9c-1.8,0.8-3.2,2.7-2.9,4.6L647.3,152.6z"/>
	</g>
	<g class="st1">
		<path class="st4" d="M628,67.3c0.9-6.8-8.7-12.4-15.9-13c-3.4-0.3-7,0.2-10.3-0.9c-7-2.5-9.9-11.6-16.7-14.5
			c-5.1-2.2-11.1-0.2-16,2.3c-5,2.5-9.9,5.7-15.5,6c-4.8,0.3-10.1-1.5-14.3,0.9c-3.2,1.8-4.8,5.4-7.7,7.6c-2.8,2.1-6.6,2.5-10.1,2.7
			c-3.5,0.2-7.2,0.2-10.4,1.7c-3.2,1.5-5.9,4.9-5.2,8.4L628,67.3z"/>
	</g>
</g>
<g id="Background_Simple" class="st0">
	<path class="st5" d="M561.5,132.9L561.5,132.9c-13.2-33.7-40.8-60.2-75.4-70.9c-12.9-4-26.5-6-40-5.6c-41.6,1.3-81.8,25-103.1,60.7
		c-12.5,21-19.5,46.5-38.9,61.5c-25.1,19.5-60.9,13.9-92,7.3c-31.1-6.6-66.9-12.1-92,7.5c-15.7,12.3-31.6,37.9-37.1,57.1
		c-17.2,60.1,22.1,113.6,62.6,146.4c41,33.2,109.6,28.6,162.3,27.6c73.9-1.4,148.8-28.3,200.3-81.2c49.3-50.6,74.4-126.2,58.1-194.7
		C565.2,143.1,563.5,137.9,561.5,132.9z"/>
</g>
<g id="Character">
	<g>
		<g>
			<path class="st6" d="M403.9,145c4.8-2.1,9.9,2.3,12.6,6.9c2.6,4.5,4.7,10,9.5,12.1c3.7,1.6,8,0.7,12.1,0.9
				c12.5,0.5,22.2,11.3,27.8,22.5c3.5,6.9,6,15,3.7,22.4c-2,6.5-7.5,11.4-13.3,15.1c-11.5,7.5-25.3,11.9-39,11.1
				c-13.7-0.8-27.3-6.9-36-17.6c-6.7-8.2-10.3-18.7-11.9-29.2c-1.6-10.5-1.2-21.2-0.9-31.8"/>
			<g>
				<path class="st7" d="M458,200.1c-0.1,0,0-1.1-0.2-3.1c-0.2-2-0.8-4.9-2.3-8.1c-1.5-3.2-4.1-6.7-7.9-9.5c-3.7-2.8-8.6-5-13.9-5.9
					c-5.3-1-10.7-0.5-15.4-1.5c-4.8-0.9-8.6-3.5-11.3-5.8c-2.7-2.4-4.5-4.8-5.7-6.4c-0.6-0.8-1-1.5-1.3-1.9
					c-0.3-0.5-0.4-0.7-0.4-0.7c0.1,0,0.7,0.9,2,2.4c1.3,1.6,3.1,3.8,5.8,6.1c2.7,2.3,6.4,4.6,11,5.5c4.6,0.9,9.9,0.4,15.4,1.4
					c5.5,1,10.5,3.2,14.3,6.1c3.9,2.9,6.5,6.6,8,9.9c1.5,3.3,2,6.3,2.1,8.3c0.1,1,0,1.8,0,2.3C458.1,199.8,458,200.1,458,200.1z"/>
			</g>
		</g>
		<g>
			<path class="st8" d="M506.6,177.3l-18.4,68.9L450.9,206c-17.2-11.2-37.5-16.7-58-15.7l0,0l-58.1-2.7l-32.1,11.6
				c-7.7,2.8-15.1,6.4-22.1,10.8L217.9,253c-13.2,9.6-24.1,16.9-26.6,31.5c-3.4,19.3,6.4,40.8,26.6,44.3l88.5,1.1l2.7,56l139.1-13
				l-3.7-84.4c28.4,21.9,41.7,30.4,63.1,26.2c7.1-1.4,17.3-8.9,20.6-19.9c11.8-39.5,13.8-101.6,13.8-101.6L506.6,177.3z
				 M288.6,276.2l8.1-2.3l0.5,2.9L288.6,276.2z"/>
			<g>
				<path class="st6" d="M216.6,328.8c0,0,0.3,0,0.7,0c0.5,0,1.3,0,2.2,0c2,0,4.8,0,8.4-0.1c7.4,0,18,0,31.1-0.1
					c26.3,0,62.6,0,102.9,0.1l-0.5,0.4c0-1,0.1-2.1,0.1-3.2c0.6-13.9,1.3-27.3,1.9-39.8l0.4,0.5c-31.3-2.9-58.1-7.4-77.3-9.9
					c-9.6-1.3-17.2-2.1-22.5-2.7c-2.6-0.3-4.6-0.5-6-0.7c-0.7-0.1-1.2-0.1-1.6-0.2c-0.3,0-0.5-0.1-0.5-0.1c0,0,0.2,0,0.5,0
					c0.4,0,0.9,0.1,1.6,0.1c1.4,0.1,3.4,0.3,6,0.5c5.3,0.5,12.9,1.3,22.5,2.5c19.2,2.3,46,6.7,77.3,9.5l0.4,0l0,0.4
					c-0.6,12.5-1.2,25.9-1.8,39.8c-0.1,1.1-0.1,2.2-0.1,3.2l0,0.4l-0.4,0c-40.3-0.1-76.6-0.3-102.9-0.3c-13.1-0.1-23.7-0.2-31.1-0.2
					c-3.6,0-6.5-0.1-8.4-0.1c-0.9,0-1.7,0-2.2,0C216.9,328.9,216.6,328.9,216.6,328.8z"/>
			</g>
			<g>
				<path class="st6" d="M218.4,269.1c0-0.1,0.5-0.3,1.4-0.7c0.9-0.4,2.3-0.9,4.1-1.3c3.5-0.9,8.6-1.6,14.1-1.1
					c5.6,0.6,10.4,2.2,13.7,3.8c1.6,0.8,2.9,1.5,3.7,2.1c0.8,0.6,1.3,0.9,1.3,1c-0.1,0.1-2-1.1-5.3-2.5c-3.3-1.4-8-3-13.5-3.5
					c-5.4-0.5-10.4,0-13.9,0.8C220.5,268.4,218.4,269.2,218.4,269.1z"/>
			</g>
			<g>
				<path class="st6" d="M237.6,253c0.1-0.1,1.5,0.6,3.8,2c2.3,1.4,5.3,3.5,8.4,6.2c3.1,2.6,5.8,5.2,7,7.8c0.6,1.2,0.8,2.4,0.7,3.1
					c0,0.8-0.2,1.2-0.3,1.2c-0.2,0,0.3-1.7-1-4c-1.2-2.3-4-4.7-7-7.3c-3.1-2.6-6-4.8-8.1-6.3C238.9,254.1,237.6,253.1,237.6,253z"/>
			</g>
			<g>
				<path class="st6" d="M297.8,277.1c-0.1,0-0.7-2.1-1.6-5.5c-0.9-3.4-2-8.1-3.4-13.2c-1.4-5.1-2.9-9.7-4.1-13
					c-1.2-3.3-2-5.3-1.9-5.3c0.1,0,0.3,0.4,0.8,1.3c0.5,0.9,1,2.2,1.7,3.8c1.4,3.2,2.9,7.8,4.4,13c1.4,5.2,2.5,9.9,3.2,13.3
					C297.6,275,298,277.1,297.8,277.1z"/>
			</g>
			<g>
				<path class="st6" d="M446.2,327.6c-0.3,0-1.3-21-2.2-46.9c-1-25.9-1.6-46.9-1.3-46.9c0.3,0,1.3,21,2.2,46.9
					C445.9,306.6,446.5,327.6,446.2,327.6z"/>
			</g>
			<g class="st9">
				<path d="M443.4,243.4c1.4,9,5.3,17.5,8.4,26.1c3.1,8.6,5.3,17.9,3.4,26.9c-3.5-2.8-7-5.6-10.5-8.4"/>
			</g>
			<g>
				<path class="st6" d="M497.3,283.2c-0.1,0-0.3-0.4-0.8-1.3c-0.5-0.9-1.1-2.2-1.8-3.8c-1.4-3.2-3.1-7.9-4.3-13.1
					c-1.3-5.3-1.9-10.1-2.1-13.6c-0.1-1.8-0.2-3.2-0.1-4.2c0-1,0-1.5,0.1-1.5c0.1,0,0.3,2.2,0.7,5.7c0.4,3.5,1.1,8.3,2.4,13.5
					c1.3,5.2,2.8,9.8,4,13.1C496.6,281.1,497.5,283.1,497.3,283.2z"/>
			</g>
			<polygon class="st9" points="289.2,245.7 291.5,275.3 296.6,273.9 			"/>
			<g>
				<path class="st10" d="M440.2,245.6c0,0-0.2-0.1-0.5-0.2c-0.3-0.2-0.8-0.4-1.3-0.6c-1.2-0.5-2.9-1.3-5.2-2
					c-4.5-1.4-11.6-2.8-20.1-1c-4.2,0.9-8.6,2.7-12.9,5.2c-4.4,2.6-8.7,5.8-13.5,9c-4.8,3.1-10.1,6.2-16.3,7.7
					c-6.1,1.6-12.7,1.8-19.3,0.8c-3.3-0.5-6.5-1.5-9.5-2.6c-3-1.2-5.9-2.6-8.5-4.4c-2.6-1.8-5-3.7-7.2-5.8c-2.1-2.1-4-4.4-5.8-6.7
					c-3.5-4.6-6.4-9.1-9.4-13.2c-3-4.1-6-7.7-9.3-10.5c-3.3-2.7-6.6-4.8-9.8-6c-3.2-1.3-6.1-1.8-8.5-1.9c-4.8-0.2-7.3,1.3-7.4,1
					c0,0,0.1-0.1,0.5-0.2c0.4-0.1,0.8-0.3,1.4-0.5c0.6-0.2,1.4-0.3,2.3-0.5c0.9-0.1,2-0.3,3.2-0.2c2.4,0,5.4,0.5,8.6,1.8
					c3.2,1.2,6.7,3.3,10,6c3.4,2.8,6.5,6.4,9.5,10.5c3.1,4.1,6,8.6,9.5,13.2c1.7,2.3,3.6,4.5,5.7,6.6c2.1,2.1,4.5,4,7,5.7
					c2.6,1.7,5.4,3.1,8.4,4.3c3,1.1,6.1,2,9.3,2.5c6.4,1,12.9,0.8,18.9-0.8c6-1.4,11.3-4.4,16-7.5c4.8-3.1,9.1-6.4,13.6-8.9
					c4.4-2.6,8.9-4.4,13.2-5.2c8.6-1.7,15.8-0.2,20.3,1.3c2.3,0.8,4,1.6,5.1,2.2c0.5,0.3,0.9,0.5,1.3,0.7
					C440.1,245.5,440.2,245.6,440.2,245.6z"/>
			</g>
			<g>
				<path class="st10" d="M474.4,231.3c0.1,0,0.1,0.8,0.2,2.2c0,1.4,0,3.4-0.5,5.9c-0.4,2.5-1.3,5.4-2.8,8.3c-1.4,3-3.4,6-5.8,9.1
					c-4.7,6.1-10.7,10-15.2,12.1c-2.3,1.1-4.2,1.7-5.5,2.1c-1.3,0.4-2.1,0.5-2.1,0.5c-0.1-0.2,3-0.9,7.3-3.2
					c4.4-2.2,10.1-6.2,14.7-12.1c2.3-3,4.3-6,5.7-8.9c1.5-2.9,2.4-5.7,2.9-8.1C474.4,234.4,474.2,231.3,474.4,231.3z"/>
			</g>
			<g>
				<path class="st10" d="M495.5,314.7c0,0-0.2-0.1-0.7-0.4c-0.4-0.3-1.1-0.6-1.8-1.2c-1.5-1.1-3.6-3-5.6-5.8
					c-4.2-5.4-7.7-14.6-7.8-25.1c0-10.5,2.6-19.6,4.5-26.1c1-3.2,1.9-5.8,2.5-7.6c0.6-1.8,1-2.8,1.1-2.7c0.1,0-0.2,1-0.7,2.8
					c-0.6,2-1.3,4.6-2.2,7.7c-1.8,6.5-4.3,15.6-4.2,25.9c0.1,10.3,3.5,19.3,7.4,24.7C491.9,312.5,495.7,314.5,495.5,314.7z"/>
			</g>
			<g>
				<path class="st10" d="M536.7,236.4c0,0.1-0.6,0.4-1.7,0.9c-1.1,0.5-2.7,1.3-4.8,2c-4.1,1.5-10.1,3.2-16.9,2.9
					c-6.8-0.3-12.7-3-16.1-5.8c-1.7-1.4-3-2.7-3.7-3.7c-0.7-1-1.1-1.6-1-1.6c0.2-0.1,1.6,2.3,5.1,4.8c3.4,2.6,9.1,5.1,15.8,5.4
					c6.6,0.3,12.6-1.2,16.7-2.6C534.2,237.4,536.7,236.3,536.7,236.4z"/>
			</g>
			<g>
				<path class="st10" d="M276.7,275c-0.2,0-0.9-2.7-2.5-7c-1.6-4.3-4.3-10.1-8.2-15.9c-3.9-5.8-8.2-10.5-11.5-13.7
					c-3.3-3.2-5.6-4.9-5.5-5c0-0.1,0.6,0.3,1.7,1.1c1.1,0.7,2.5,1.9,4.3,3.4c3.5,3,7.9,7.7,11.9,13.6c3.9,5.9,6.5,11.8,8,16.2
					c0.7,2.2,1.3,4,1.5,5.3C276.6,274.3,276.7,275,276.7,275z"/>
			</g>
			<g>
				<path class="st10" d="M297.1,278c0,0-0.1,0.3-0.5,0.9c-0.3,0.6-0.9,1.4-1.7,2.5c-1.6,2-4.4,4.7-8.5,6.9c-4.1,2.2-9.4,4-15.4,5
					c-6,1-12.8,1.4-19.7,2.6c-3.5,0.6-6.8,1.3-9.9,2.4c-3.1,1.1-5.9,2.5-8.5,4.2c-5.1,3.3-8.9,7.3-11.5,11c-2.6,3.7-4.2,7.2-5.1,9.5
					c-0.9,2.4-1.2,3.8-1.3,3.8c0,0,0-0.4,0.2-1c0.1-0.7,0.4-1.6,0.8-2.9c0.8-2.4,2.3-5.9,4.9-9.8c2.6-3.8,6.4-8,11.6-11.4
					c2.6-1.7,5.5-3.2,8.6-4.3c3.2-1.1,6.5-1.9,10-2.5c7-1.1,13.7-1.5,19.7-2.5c6-1,11.2-2.7,15.3-4.8c4.1-2.1,6.8-4.7,8.5-6.6
					C296.3,279.3,297,278,297.1,278z"/>
			</g>
			<g>
				<path class="st10" d="M334.4,282.8c0.1,0,0.3,0.6,0.6,1.7c0.4,1.1,0.7,2.8,1,4.9c0.3,2.1,0.5,4.6,0.4,7.4
					c-0.1,2.8-0.4,5.8-1.1,9c-0.7,3.1-1.7,6-2.8,8.6c-1.1,2.5-2.3,4.8-3.5,6.5c-1.2,1.8-2.2,3.1-3,4c-0.8,0.9-1.2,1.3-1.3,1.3
					c-0.1-0.1,1.6-2.1,3.7-5.6c1.1-1.8,2.2-4,3.3-6.5c1-2.5,2-5.4,2.7-8.5c0.7-3.1,1-6.1,1.1-8.8c0.1-2.7,0-5.2-0.2-7.3
					C334.9,285.4,334.2,282.9,334.4,282.8z"/>
			</g>
			<g>
				<path class="st10" d="M443.3,309.3c-0.1,0.3-5-2.6-11.8-3.4c-6.7-0.8-12.2,0.8-12.2,0.5c0-0.1,1.3-0.6,3.5-1.1
					c2.2-0.5,5.4-0.7,8.8-0.3c3.4,0.4,6.5,1.4,8.5,2.4C442.3,308.4,443.4,309.2,443.3,309.3z"/>
			</g>
		</g>
		<g>
			<polygon class="st11" points="524.8,133.9 507.3,177.6 540.4,192.4 548.8,155.3 			"/>
			<path class="st7" d="M562.8,177L533,140.2l0,0c-6-8.3-15.5-21.6-16-22.8c-0.6-1.7-0.8-13.7-0.6-16.7c0.3-3-0.8-11.6-0.8-11.6
				l-24.5,9.3l-5.1-18.8l-3.3,1.1c0,0-8.9,15.3-6.1,24.1s14.3,12.7,17.2,14.4c2.9,1.8,13.7,6.4,26,25l2,2.9l0,0l0,0l5,7.2l0,0
				l22.7,32.7c2.6,3.6,7.7,4.5,11.4,2C564.8,186.1,565.7,180.8,562.8,177z"/>
			<g>
				<g>
					<g>
						<g>
							<g>
								<g>
									<path class="st7" d="M504.4,93.4l-6.4-18l2.3-0.7c0,0,11.3,6.9,13.7,15.1L504.4,93.4z"/>
								</g>
							</g>
						</g>
						<g>
							<g>
								<g>
									<g>
										<path class="st6" d="M497.6,117.2c0,0,0.1,0,0.3-0.1c0.2-0.1,0.5-0.2,0.8-0.3c0.7-0.3,1.7-0.8,2.9-1.3
											c2.5-1.1,6-2.8,10.4-4.7l-0.3-0.2c-0.1,1-0.1,2.1,0,3.2c0.1,1.1,0.2,2.3,0.8,3.4c1.2,2.1,2.7,4.1,4.2,6.3
											c3,4.3,6.4,8.9,9.9,13.8c0.5,0.7,0.9,1.3,1,2c0.1,0.7,0,1.5-0.4,2.2c-0.7,1.3-2.3,2-3.7,1.7c-0.7-0.1-1.3-0.5-1.8-1
											c-0.4-0.5-0.9-1.2-1.3-1.8c-0.9-1.2-1.7-2.3-2.6-3.5c-3.3-4.5-6.3-8.5-8.9-12c-0.6-0.9-1.4-1.5-2.2-2.1
											c-0.8-0.6-1.5-1.1-2.2-1.5c-1.4-0.9-2.7-1.6-3.7-2.2c-1-0.6-1.8-1-2.4-1.3c-0.3-0.1-0.5-0.2-0.6-0.3
											C497.7,117.2,497.6,117.2,497.6,117.2c0,0,0.1,0.1,0.2,0.1c0.2,0.1,0.4,0.2,0.6,0.4c0.6,0.3,1.4,0.8,2.4,1.4
											c1,0.6,2.3,1.4,3.7,2.3c0.7,0.5,1.4,1,2.2,1.6c0.7,0.6,1.5,1.2,2.1,2.1c2.5,3.4,5.5,7.5,8.8,12c0.8,1.1,1.7,2.3,2.5,3.5
											c0.4,0.6,0.8,1.2,1.3,1.8c0.5,0.6,1.3,1,2.1,1.2c1.6,0.4,3.4-0.4,4.2-1.9c0.4-0.7,0.6-1.6,0.4-2.5
											c-0.1-0.8-0.6-1.6-1.1-2.2c-3.5-4.8-6.9-9.5-10-13.7c-1.5-2.1-3-4.2-4.2-6.2c-0.5-1-0.6-2.2-0.7-3.2
											c-0.1-1.1-0.1-2.2,0-3.2l0-0.3l-0.3,0.1c-4.4,2.1-7.9,3.8-10.4,5c-1.2,0.6-2.1,1-2.8,1.4c-0.3,0.1-0.5,0.3-0.7,0.3
											C497.7,117.1,497.6,117.2,497.6,117.2z"/>
									</g>
								</g>
							</g>
						</g>
					</g>
					<g>
						<g class="st9">
							<g>
								<g>
									<polygon points="495.3,108.4 506.3,104.3 506.3,98.2 495.2,102.4 									"/>
								</g>
							</g>
						</g>
						<g>
							<g>
								<g>
									<g>
										<path class="st6" d="M503.9,97.8c-0.3,0-0.5,2-0.4,4.5c0,2.5,0.3,4.5,0.5,4.5c0.3,0,0.5-2,0.4-4.5
											C504.4,99.8,504.2,97.8,503.9,97.8z"/>
									</g>
								</g>
							</g>
						</g>
						<g>
							<g>
								<g>
									<g>
										<path class="st6" d="M500.6,99c-0.3,0-0.5,2-0.4,4.5c0,2.5,0.3,4.5,0.5,4.5c0.3,0,0.5-2,0.4-4.5
											C501.1,101,500.8,99,500.6,99z"/>
									</g>
								</g>
							</g>
						</g>
						<g>
							<g>
								<g>
									<g>
										<path class="st6" d="M497.4,99.8c-0.3,0-0.5,2-0.4,4.5c0,2.5,0.3,4.5,0.5,4.5c0.3,0,0.5-2,0.4-4.5
											C497.9,101.8,497.7,99.8,497.4,99.8z"/>
									</g>
								</g>
							</g>
						</g>
					</g>
				</g>
			</g>
			<path class="st11" d="M508.4,174.8l1.2-8.6l0.8-22.7l-0.9-15.9c0,0,5.3,0.4,8.2,7.3c2.9,6.9,3,17.3,3,17.3s22.2,8.7,14.4,29.7"/>
			<g>
				<path class="st11" d="M538.4,140.1c0.1-1.8-0.1-3.6-1-5.1c-1.1-1.7-3-2.7-5-3.1c-2-0.4-3.4-0.4-5.4-0.1l4.2,5.8
					c-0.9,4-1.4,6.6-1.8,10.6c-0.2,1.8-0.2,4.1,1.4,5.1c1.3,0.8,3.1,0.2,4.1-0.9c1-1.1,1.5-2.6,1.9-4.1
					C537.5,145.6,538.3,142.9,538.4,140.1z"/>
				<path class="st11" d="M544.7,146.8c0.1-1.8-0.1-3.6-1-5.1c-1.1-1.7-3-2.7-5-3.1c-2-0.4-3.4-0.4-5.4-0.1l4.2,5.8
					c-0.9,4-1.4,6.6-1.8,10.6c-0.2,1.8-0.2,4.1,1.4,5.1c1.3,0.8,3.1,0.2,4.1-0.9c1-1.1,1.5-2.6,1.9-4.1
					C543.8,152.4,544.6,149.6,544.7,146.8z"/>
				<path class="st11" d="M551.3,153.5c0.1-1.8-0.1-3.6-1-5.1c-1.1-1.7-3-2.7-5-3.1c-2-0.4-3.4-0.4-5.4-0.1l4.2,5.8
					c-0.9,4-1.4,6.6-1.8,10.6c-0.2,1.8-0.2,4.1,1.4,5.1c1.3,0.8,3.1,0.2,4.1-0.9c1-1.1,1.5-2.6,1.9-4.1
					C550.4,159,551.1,156.3,551.3,153.5z"/>
				<g>
					<path class="st12" d="M538,136c0.2,0,1,3.4,0.3,7.8c-0.6,4.3-2.3,7.5-2.5,7.4c-0.3-0.1,1-3.3,1.6-7.5
						C538,139.5,537.7,136,538,136z"/>
				</g>
				<g>
					<path class="st12" d="M544.7,145.1c0.2,0,0.8,3.1,0,6.8c-0.8,3.8-2.6,6.4-2.8,6.2c-0.2-0.1,1.2-2.8,1.9-6.4
						C544.6,148.2,544.4,145.1,544.7,145.1z"/>
				</g>
			</g>
			<g>
				<path class="st12" d="M518.1,136c0.1,0,0.4,1.7,1,4.6c0.5,2.9,1.2,7,2,11.8l-0.3-0.3c3,1,6,2.8,8.6,5.2c2.7,2.6,4.7,5.7,5.8,8.7
					c1.2,3,1.7,5.9,1.8,8.4c0.1,2.4-0.3,4.4-0.5,5.7c-0.3,1.3-0.5,2-0.6,2c-0.2,0,0.7-3,0.5-7.7c-0.1-2.4-0.7-5.2-1.9-8.1
					c-1.2-2.9-3-5.9-5.7-8.4c-2.5-2.4-5.4-4.1-8.3-5.1l-0.2-0.1l0-0.3c-0.7-4.8-1.3-9-1.6-11.9C518.2,137.7,518,136,518.1,136z"/>
			</g>
			<g>
				<path class="st6" d="M515.7,89.1c0,0-0.1,0.1-0.4,0.2c-0.3,0.1-0.7,0.3-1.1,0.4c-1.2,0.4-2.5,0.9-4.1,1.5
					c-3.7,1.4-8.4,3.2-13.6,5.2c-5.2,2-9.8,3.8-13.6,5.2c-1.6,0.6-2.9,1.1-4.1,1.5c-0.4,0.1-0.8,0.3-1.1,0.4
					c-0.3,0.1-0.4,0.1-0.4,0.1s0.1-0.1,0.4-0.2c0.3-0.1,0.7-0.3,1.1-0.5c1.2-0.5,2.5-1,4.1-1.7c3.4-1.4,8.2-3.3,13.5-5.3
					c5.3-2,10.1-3.8,13.6-5.1c1.8-0.6,3.2-1.1,4.2-1.4c0.4-0.1,0.8-0.2,1.1-0.4C515.6,89.1,515.7,89.1,515.7,89.1z"/>
			</g>
		</g>
		<g>
			<g>
				<g>
					<path class="st11" d="M364,292.5c0,0,21.8-6,25.5-6.1c2.9-0.1,19.4,2.7,27,4c2.9,0.5,5.1,3.2,4.7,6.1c0,0.2-0.1,0.4-0.1,0.5
						c-1.1,3-4.2,3.2-4.2,3.2s3.8,1.7,3.2,6c-0.6,4.3-5.9,4.4-5.9,4.4s0.3,0.3,0.6,0.8c2.4,3.3,0.2,7.9-3.8,8.2l-2.4,0.2
						c0,0,3,1.8,2.5,4.8c-0.9,5.6-13.8,4.8-13.8,4.8l-34.6-0.7L364,292.5z"/>
				</g>
				<g>
					<path class="st11" d="M414.5,283.2c-0.4,1.8-1.5,5.7-4.9,7.1l-17.4-3.4c0,0,13.7-2.5,15.9-4.5c0.8-0.7,1.8-1.5,2.9-2.1
						C412.8,279.5,415,281.2,414.5,283.2z"/>
				</g>
			</g>
			<g>
				<g>
					<path class="st12" d="M400.4,288c-0.1,0.3,3.5,1.2,7.9,1.8c4.4,0.6,8,1,8.1,0.7c0.1-0.3-3.5-1.2-7.9-1.8
						C404.1,288.1,400.5,287.7,400.4,288z"/>
				</g>
			</g>
			<g>
				<g>
					<path class="st12" d="M402.9,298.4c-0.1,0.3,2.9,1.3,6.8,1.8c3.9,0.5,7,0.2,7-0.2c0-0.3-3.1-0.5-6.9-1
						C406,298.6,403,298.1,402.9,298.4z"/>
				</g>
			</g>
			<g>
				<g>
					<path class="st12" d="M394.2,295.8c-0.3,0.1-0.1,1.1,0.8,1.9c0.9,0.8,1.9,0.9,2,0.6c0.1-0.3-0.5-0.8-1.2-1.4
						C395,296.3,394.5,295.7,394.2,295.8z"/>
				</g>
			</g>
			<g>
				<g>
					<path class="st12" d="M399.3,309.2c0,0.3,3.3,1,7.5,1.5c4.2,0.5,7.6,0.6,7.6,0.3c0.1-0.3-3.3-1-7.5-1.5
						C402.7,309.1,399.3,308.9,399.3,309.2z"/>
				</g>
			</g>
			<g>
				<g>
					<path class="st12" d="M390,303c-0.1-0.1-0.5,0.3-0.6,0.9c-0.2,0.7-0.2,1.7,0.4,2.7c0.6,1,1.4,1.5,2.1,1.7
						c0.7,0.2,1.1,0.1,1.1-0.1c0.1-0.3-1.4-0.7-2.2-2.2C389.9,304.6,390.3,303.1,390,303z"/>
				</g>
			</g>
			<g>
				<g>
					<path class="st12" d="M395,319.7c0,0.3,3.1,0.7,6.9,0.8c3.8,0.1,6.9-0.1,6.9-0.4c0-0.3-3.1-0.7-6.9-0.8
						C398.1,319.2,395,319.4,395,319.7z"/>
				</g>
			</g>
			<g>
				<g>
					<path class="st12" d="M386,312.7c-0.1,0-0.4,0.3-0.5,1c-0.1,0.7,0.1,1.6,0.6,2.5c1,1.7,2.4,2.5,2.6,2.3
						c0.3-0.2-0.7-1.4-1.6-2.9C386.2,314.2,386.3,312.8,386,312.7z"/>
				</g>
			</g>
		</g>
		<g>
			<path class="st6" d="M295.9,120.2c-0.7-5.6-6.9-9.5-12.4-8.7c-5.6,0.8-10.1,5.6-11.6,11c-1.5,5.4-0.5,11.3,1.8,16.5
				c1.8,4.1,4.8,8.1,9.2,8.9c4,0.8,8.1-1.3,10.8-4.3c2.7-3,4.3-6.9,5.8-10.7L295.9,120.2z"/>
			<path class="st8" d="M302.9,119c-1.7-1.2-4.3-0.4-5.6,1.2c-1.3,1.6-1.7,3.8-1.8,5.9c-0.1,3.5,0.6,7,2,10.2c0.4,1,1,2,2,2.3
				c1,0.3,2-0.2,2.7-1c0.6-0.8,0.9-1.8,1.2-2.7c1.4-5.8,1.1-12-0.9-17.6"/>
			<g>
				<path class="st8" d="M402,92c9.8-4.8,15.5-9.8,14.7-13.9c-0.8-4.1-20.6-10.4-25.2-12.1c-10.9-4.1-21.3,5.6-38.5,9.1
					c-33.5,6.7-59.3,19-57.6,27.4c0.8,4.1,7.9,6.5,18.7,7.1"/>
			</g>
			<g class="st13">
				<path d="M396.1,92.9c8.7-4.3,13.9-8.7,13-12.3c-2.7-9.9-26.8-8.7-56.5-2.7c-29.7,6-52.6,16.8-51.1,24.3c0.7,3.6,7,5.7,16.6,6.3"
					/>
			</g>
			<g>
				<g>
					<g>
						<g>
							<g>
								<g>
									<g>
										<g>
											<g>
												<g>
													<g>
														<path class="st11" d="M318.2,105.4c-4.2-23.1,11.5-45.3,35.1-48.8c22.2-3.3,42.9,12.2,47.4,34.2
															c4,19.2,7.5,38.7,7.8,45.8c0.9,21.5-11.2,30.5-16.2,33.3c-1.1,0.6-4.3,1.5-5.6,1.7l0,0c-0.1,0-0.1,0.1-0.1,0.2
															l6.1,24.4c3,16-5.2,30.9-21.2,34.1c-16,3.2-29.3-8.5-32.7-24.5L318.2,105.4z"/>
													</g>
													<g>
														<g>
															<g>
																<g>
																	<g>
																		<path class="st6" d="M394.1,104.1c0.4,1.8-0.7,3.6-2.6,4c-1.8,0.5-3.6-0.6-4.1-2.3c-0.4-1.8,0.7-3.6,2.5-4
																			C391.9,101.3,393.7,102.4,394.1,104.1z"/>
																	</g>
																</g>
															</g>
														</g>
														<g>
															<g>
																<g>
																	<g>
																		<g>
																			<path class="st6" d="M396,96.9c-0.3,0.5-3.2-0.8-6.8-0.1c-3.6,0.7-5.9,3.1-6.4,2.7c-0.2-0.2,0-1,1-2.1
																				c1-1.1,2.7-2.3,5-2.7c2.2-0.4,4.3,0,5.6,0.6C395.6,95.9,396.2,96.6,396,96.9z"/>
																		</g>
																	</g>
																</g>
															</g>
														</g>
													</g>
													<g>
														<g>
															<g>
																<g>
																	<g>
																		<path class="st6" d="M358.7,111.3c0.4,1.8-0.7,3.6-2.6,4c-1.8,0.5-3.6-0.6-4.1-2.3c-0.4-1.8,0.7-3.6,2.5-4
																			C356.4,108.5,358.3,109.5,358.7,111.3z"/>
																	</g>
																</g>
															</g>
														</g>
														<g>
															<g>
																<g>
																	<g>
																		<g>
																			<path class="st6" d="M360.7,104.6c-0.3,0.5-3.2-0.8-6.8-0.1c-3.6,0.7-5.9,3.1-6.4,2.7c-0.2-0.2,0-1,1-2.1
																				c1-1.1,2.7-2.3,5-2.7c2.2-0.4,4.3,0,5.6,0.6C360.4,103.7,360.9,104.4,360.7,104.6z"/>
																		</g>
																	</g>
																</g>
															</g>
														</g>
													</g>
													<g>
														<g>
															<g>
																<g>
																	<g>
																		<path class="st6" d="M379.2,128.7c-0.1-0.2,2.1-1,5.6-2.2c0.9-0.3,1.7-0.6,1.8-1.3c0.1-0.7-0.5-1.6-1.2-2.6
																			c-1.3-2.1-2.7-4.2-4.1-6.5c-5.8-9.2-10.2-16.9-9.8-17.1c0.4-0.2,5.4,7.1,11.1,16.3c1.4,2.3,2.7,4.4,4,6.5
																			c0.6,1,1.4,2,1.2,3.5c-0.1,0.7-0.7,1.4-1.2,1.6c-0.6,0.3-1.1,0.4-1.5,0.5C381.5,128.5,379.2,128.9,379.2,128.7z"
																			/>
																	</g>
																</g>
															</g>
														</g>
													</g>
													<g>
														<g>
															<g>
																<g>
																	<path class="st12" d="M386.6,171.6c0,0-13.7,3.9-33.2-3c0,0,9.2,17.3,34.8,9.6L386.6,171.6z"/>
																</g>
															</g>
														</g>
													</g>
													<g>
														<g>
															<g>
																<g>
																	<path class="st12" d="M379.4,137.7c-1.6-1.5-4.1-1.9-6.3-1.2c-1.5,0.5-3,1.6-3.7,3c-0.7,1.5-0.5,3.3,0.6,4.4
																		c1.2,1.2,3.3,1.1,5,0.2c1.6-0.8,2.9-2.3,4.1-3.7c0.3-0.4,0.7-0.8,0.8-1.3c0.2-0.5,0.1-1-0.3-1.3"/>
																</g>
															</g>
														</g>
													</g>
													<g>
														<g>
															<g>
																<g>
																	<g>
																		<path class="st6" d="M369.1,133.4c0.6-0.2,1.4,3.8,5.3,5.9c3.9,2.1,8,0.8,8.1,1.4c0.1,0.2-0.8,0.9-2.5,1.3
																			c-1.7,0.4-4.3,0.4-6.7-0.9c-2.4-1.3-3.7-3.4-4.2-5C368.6,134.4,368.8,133.4,369.1,133.4z"/>
																	</g>
																</g>
															</g>
														</g>
													</g>
												</g>
											</g>
										</g>
										<g>
											<g>
												<g>
													<g>
														<path class="st6" d="M359.8,93c-0.2,1.1-3.8,1.3-8,2.7c-4.2,1.3-7.3,3.2-8,2.4c-0.3-0.4,0.1-1.4,1.3-2.6
															c1.2-1.2,3.2-2.6,5.7-3.4c2.5-0.8,4.9-0.9,6.6-0.5C358.9,91.9,359.9,92.5,359.8,93z"/>
													</g>
												</g>
											</g>
										</g>
										<g>
											<g>
												<g>
													<g>
														<path class="st6" d="M392.8,87.8c-0.5,0.9-3.1,0.6-6.1,1.2c-3,0.5-5.4,1.7-6.2,0.9c-0.3-0.4-0.1-1.3,0.8-2.3
															c0.9-1,2.6-2,4.7-2.3c2.1-0.3,4,0,5.2,0.7C392.5,86.6,393,87.4,392.8,87.8z"/>
													</g>
												</g>
											</g>
										</g>
									</g>
								</g>
							</g>
						</g>
					</g>
				</g>
			</g>
			<g>
				<path class="st6" d="M368.8,71c-2.7,6.3-8.3,11.4-15,13.2c-4.4,1.2-9.5,1.5-12.3,5.1c-2,2.6-2,6.2-2.5,9.5
					c-0.7,5,0.6,10.7-3.2,14c-3,2.6-5.8,2.5-7.6,6c-1.9,3.7-1.5,8.4-0.7,12.5c0.7,4.1,1.7,10.6-1.6,13.1
					c-3.1-14.8-11.1-30.5-14.2-45.3c-0.5-2.2-0.9-4.5-0.5-6.7c0.9-5,5.6-8.3,10.2-10.5c12.8-6.4,27-9.7,41-13"/>
			</g>
			<g>
				<g>
					<g>
						<path class="st8" d="M407.5,75.9c0,0-15.8-33.9-16.9-35.5c-1.1-1.6-14.4-15.2-39.6-14.7l-20.1,4c0,0-26.7,14.9-30.5,22.9
							c-3.8,8,0.7,42.2,0.7,42.2L355,71.1l40.2,1.6L407.5,75.9z"/>
					</g>
					<g>
						<path class="st8" d="M343.6,22.9l5.5-1.1c2.3-0.5,4.6,0.5,5.9,2.4c0.9,1.3,1.8,3.1,2.4,5.4c1.7,6.2,11.7,48.7,11.7,48.7
							l-25.4,3.9l-9.8-53.1l-8.2,3.6l-0.2-1.6c-0.1-1,0.1-1.9,0.6-2.8l0,0c0.6-1.2,1.8-2,3.1-2.3L343.6,22.9z"/>
					</g>
					<g>
						<path class="st7" d="M401.1,80.9L396,69l-41.8-4.3l-44.5,23.4l2.8,13.9C312.5,102,349.1,78.1,401.1,80.9z"/>
					</g>
					<g>
						<path class="st8" d="M391.4,66.1l2,1.3l15.3,7.3c0,0-27.6-3.5-54.6,2.2c-27.1,5.7-56.2,21.1-56.2,21.1l15.8-14.4l0,0
							c4.5-7.2,11.7-12.4,20-14.2l33.9-7.5C375.7,60,384.3,61.5,391.4,66.1z"/>
					</g>
					<g>
						<g>
							<path class="st6" d="M404.9,75.9c0,0-0.3-0.2-1-0.6c-0.7-0.4-1.7-0.8-3.1-1.2c-2.7-0.8-6.9-1.5-12-1.6
								c-10.2-0.3-24.3,1-39.2,5.5c-7.4,2.1-14.6,3.9-21,6.1c-6.4,2.3-11.8,4.8-16.4,7.1c-2.3,1.1-4.3,2.3-6,3.4
								c-1.7,1.1-3.2,2.2-3.9,3.5c-0.8,1.3-0.8,2.5-0.7,3.3c0.2,0.8,0.5,1.1,0.5,1.1c0.1,0-0.9-1.7,0.7-4c0.8-1.1,2.1-2.1,3.9-3.1
								c1.7-1,3.7-2.1,6-3.1c4.6-2.1,10.1-4.5,16.4-6.7c6.3-2.1,13.4-3.9,20.9-6c14.8-4.4,28.8-5.9,38.8-5.9c5,0,9.1,0.5,11.8,1.1
								C403.4,75.3,404.8,76,404.9,75.9z"/>
						</g>
					</g>
				</g>
			</g>
			<g>
				<path class="st6" d="M399.3,74.1"/>
				<path class="st6" d="M401,80.5c4.8,10.8,21.7,26.2,5.5,41.2c0,0-5.1-24.5-9-33.6c-1.2-2.7-2.5-5.5-4.7-7.4"/>
			</g>
			<path class="st6" d="M318,100.7c-11.1,1.7-19.6,13.5-17.5,24.6c0.5,2.9,1.7,5.7,1.4,8.6c-0.3,2.8-1.9,5.4-2.6,8.1
				c-1.4,5.5-1.7,14.5,0.2,19.9c4.4,12.8,20.6,28.5,35.3,25.6"/>
			<path class="st6" d="M328.8,177.1c3,0.7,6.3-0.5,8.5-2.6c2.3-2.1,3.7-5,4.5-8c2.8-9.5,0.6-20.4-5.7-28.1
				c7.4-13.1,7.6-29.9,0.6-43.2l-20.6,6.1L328.8,177.1z"/>
			<g>
				<path class="st7" d="M296.1,132.8c0.1,0.1-0.9,1.5-3.3,2.9c-2.3,1.5-6.1,2.8-10.3,2.3c-4.2-0.5-7.6-2.6-9.5-4.7
					c-1.9-2.1-2.1-3.9-2-3.9c0.1-0.1,0.6,1.6,2.5,3.5c1.8,1.8,5.1,3.7,9.1,4.2c4,0.5,7.6-0.6,9.9-1.9
					C294.8,133.9,296,132.7,296.1,132.8z"/>
			</g>
			<g>
				<path class="st7" d="M294.5,130c0,0.1-1.3,0.8-3.6,1.3c-2.3,0.5-5.8,0.6-9.3-0.5c-3.5-1.1-6.2-3.2-7.9-5
					c-1.6-1.8-2.3-3.1-2.2-3.2c0.1-0.1,0.9,1.1,2.6,2.7c1.7,1.6,4.3,3.5,7.7,4.6c3.4,1.1,6.6,1.1,8.9,0.8
					C293.1,130.4,294.5,129.9,294.5,130z"/>
			</g>
			<g>
				<path class="st7" d="M339.1,100.9c0.1,0,0.1,0.7-0.1,2.1c-0.2,1.3-0.5,3.2-1.3,5.5c-1.5,4.5-5,10.5-10.9,14.9
					c-6,4.4-12.7,5.9-17.5,6c-2.4,0.1-4.3-0.1-5.6-0.4c-1.3-0.2-2-0.5-2-0.5c0-0.2,2.9,0.5,7.6,0.2c4.6-0.3,11.2-1.9,17-6.1
					c5.8-4.3,9.2-10,10.8-14.4C338.8,103.8,338.9,100.9,339.1,100.9z"/>
			</g>
			<g>
				<path class="st7" d="M339.7,131.7c0,0-0.3,0.5-1,1.2c-0.7,0.7-1.9,1.7-3.4,2.6c-3.1,1.9-8.1,3.5-13.7,3.5
					c-5.6,0-10.5-1.2-14-2.2c-1.7-0.5-3.2-0.9-4.1-1.2c-1-0.3-1.5-0.5-1.5-0.6c0-0.1,2.2,0.4,5.7,1.2c3.5,0.8,8.4,1.9,13.9,1.9
					c5.5,0,10.3-1.4,13.4-3.1C338.1,133.3,339.6,131.6,339.7,131.7z"/>
			</g>
			<g>
				<path class="st6" d="M408.4,72.4c0,0-0.4-0.1-1.2-0.4c-0.9-0.3-2-0.7-3.4-1.2c-3-1.1-7.3-2.6-12.5-4.5l-0.1,0l0,0
					c-1-0.9-2.1-1.9-3.2-2.9c-1.1-1-2.2-2.1-3.6-2.8c-1.4-0.8-2.9-1.3-4.6-1.4c-1.7-0.2-3.4,0.2-5.2,0.5c-7.1,1.2-14.9,2.9-23.1,4.7
					c-7.6,1.8-14.8,3.6-21.4,5.2c-1.7,0.4-3.2,0.8-4.6,1.7c-1.3,0.8-2.5,1.9-3.4,3.1c-1.6,2.5-3,5.1-4.4,7.3l0,0.1l-0.1,0
					c-5,3.7-9.2,6.8-12.1,9c-1.4,1-2.5,1.8-3.3,2.4c-0.8,0.5-1.2,0.8-1.2,0.8c0,0,0.4-0.4,1.1-0.9c0.8-0.6,1.9-1.5,3.2-2.5
					c2.9-2.2,7-5.4,11.9-9.2l-0.1,0.1c1.4-2.3,2.7-4.8,4.4-7.5c0.9-1.3,2.1-2.4,3.6-3.3c1.4-0.9,3.1-1.4,4.8-1.8
					c6.6-1.7,13.8-3.6,21.4-5.3c8.2-1.9,16-3.5,23.2-4.7c1.8-0.3,3.6-0.7,5.4-0.4c1.8,0.2,3.4,0.7,4.9,1.5c1.5,0.8,2.6,2,3.7,3
					c1.1,1,2.2,2,3.2,2.9l-0.1-0.1c5.1,2,9.3,3.6,12.4,4.7c1.4,0.6,2.5,1,3.3,1.3C408,72.2,408.4,72.3,408.4,72.4z"/>
			</g>
			<g>
				<path class="st6" d="M340.8,66.5c-0.1,0-0.2-0.6-0.5-1.7c-0.3-1.1-0.6-2.8-1-4.8c-0.8-4-1.9-9.6-3.1-15.8
					c-0.6-3.1-1.1-6-1.6-8.7c-0.2-1.3-0.5-2.6-0.7-3.8c-0.1-1-1.2-1.6-2.1-1.3c-1.7,0.7-3.2,1.3-4.5,1.8c-1.1,0.4-1.7,0.6-1.7,0.6
					c0-0.1,0.5-0.4,1.6-0.9c1-0.5,2.5-1.2,4.4-2.1c1.1-0.5,2.8,0.3,3,1.8c0.2,1.2,0.5,2.5,0.7,3.8c0.5,2.7,1.1,5.6,1.6,8.7
					c1.1,6.2,2.1,11.8,2.8,15.9c0.3,2,0.6,3.7,0.7,4.8C340.8,65.8,340.9,66.5,340.8,66.5z"/>
			</g>
			<g>
				<path class="st6" d="M365.1,61.1c-0.1,0-0.9-1.9-1.8-5.1c-1-3.2-2.1-7.6-3.2-12.5c-1.2-4.9-2.2-9.4-2.9-12.6
					c-0.7-3.2-1-5.3-0.9-5.3c0.1,0,0.7,1.9,1.5,5.1c0.8,3.2,1.9,7.6,3.1,12.6c1.1,4.8,2.1,9.1,3,12.6
					C364.7,59.1,365.2,61.1,365.1,61.1z"/>
			</g>
			<g>
				<path class="st6" d="M408,131.3c0-0.2,4.3,0.3,10.4-2.5c3-1.4,6.4-3.5,9-7c2.5-3.5,3.3-8.6,2.2-13.4c-1.1-4.9-4.2-9-7.9-11.1
					c-3.7-2.2-7.7-3.2-10.7-4.7c-3.1-1.4-5.3-3.1-6.5-4.6c-0.6-0.7-1-1.4-1.2-1.8c-0.2-0.5-0.3-0.7-0.3-0.7c0.1,0,0.5,0.9,1.8,2.3
					c1.2,1.4,3.4,3,6.5,4.3c3,1.4,6.9,2.3,10.9,4.5c3.9,2.3,7.2,6.6,8.3,11.7c1.2,5.1,0.3,10.4-2.4,14.1c-2.7,3.7-6.3,5.8-9.4,7.1
					c-3.1,1.3-5.8,1.8-7.7,2c-0.9,0.1-1.7,0.1-2.2,0C408.2,131.4,408,131.4,408,131.3z"/>
			</g>
			<g>
				<path class="st6" d="M277.1,124.4c0,0-0.2-0.1-0.4-0.3c-0.3-0.2-0.6-0.6-1-1c-0.8-1-1.6-2.6-2-4.8c-0.3-2.2-0.1-5,1.4-7.6
					c1.5-2.6,4.5-4.6,7.9-5.1c3.4-0.5,6.9,0.5,9.1,2.5c2.2,2,3.2,4.7,3.6,6.8c0.3,2.2,0,4-0.5,5.2c-0.2,0.6-0.4,1-0.6,1.3
					c-0.2,0.3-0.3,0.4-0.3,0.4c-0.1,0,0.2-0.6,0.6-1.8c0.3-1.1,0.5-2.9,0.2-5c-0.4-2.1-1.4-4.5-3.5-6.3c-2-1.9-5.2-2.7-8.4-2.3
					c-3.2,0.5-5.9,2.3-7.3,4.6c-1.4,2.4-1.7,5-1.5,7.1c0.3,2.1,1,3.7,1.6,4.7C276.7,123.8,277.2,124.3,277.1,124.4z"/>
			</g>
			<g>
				<path class="st6" d="M331.5,184.8c0,0-0.2,0.1-0.7,0.3c-0.5,0.1-1.2,0.3-2.2,0.6c-1.9,0.4-4.6,1-8.1,1.2c-3.4,0.2-7.7,0-12-1.9
					c-4.3-1.8-8.2-5.5-10.8-10.2c-2.6-4.7-3.6-9.8-3.7-14.4c0-4.6,0.8-8.7,1.8-12c1-3.3,2.1-5.9,2.9-7.7c0.4-0.9,0.7-1.5,1-2
					c0.2-0.4,0.4-0.7,0.4-0.7c0.1,0-0.4,1-1.1,2.8c-0.7,1.8-1.7,4.4-2.6,7.7c-0.9,3.3-1.7,7.3-1.6,11.8c0,4.5,1.1,9.5,3.6,14
					c2.5,4.5,6.2,8.1,10.3,9.8c4.1,1.8,8.3,2.1,11.7,2c3.4-0.1,6.2-0.6,8.1-0.9C330.4,184.9,331.5,184.7,331.5,184.8z"/>
			</g>
			<g>
				<path class="st6" d="M294.2,141.6c0,0,0,0.3-0.2,0.8c-0.2,0.5-0.5,1.3-1.1,2.2c-1.2,1.8-3.5,4.1-7.3,5.2
					c-1.9,0.6-4.1,0.7-6.3,0.3c-2.3-0.4-4.5-1.5-6.6-3.1c-2-1.6-3.8-3.7-5-6.2c-1.2-2.5-1.8-5.4-1.9-8.4c0-5.9,2.2-11.5,5.5-15.4
					c3.2-4,7.9-6.1,11.8-6c3.9,0.1,6.8,1.8,8.3,3.3c1.5,1.5,1.9,2.7,1.9,2.7c-0.1,0.1-0.5-1.1-2.1-2.5c-1.5-1.4-4.4-2.9-8.1-2.9
					c-3.7-0.1-8,2-11.1,5.9c-3.1,3.8-5.2,9.1-5.2,14.8c0,2.8,0.6,5.6,1.8,8c1.1,2.4,2.8,4.4,4.7,6c1.9,1.5,4.1,2.5,6.2,3
					c2.1,0.5,4.2,0.3,6-0.2c3.6-1,6-3.1,7.2-4.8C293.8,142.7,294.1,141.6,294.2,141.6z"/>
			</g>
		</g>
	</g>
	<g>
		<g>
			<g>
				<g>
					<g>
						<g>
							<g>
								<g>
									<g>
										<g>
											<path class="st7" d="M804.7,740.4H214.1c-8,0-14.6-6.5-14.6-14.6V345.1c0-8,6.5-14.6,14.6-14.6h590.6
												c8,0,14.6,6.5,14.6,14.6v380.7C819.3,733.8,812.8,740.4,804.7,740.4z"/>
										</g>
									</g>
								</g>
							</g>
							<g>
								<g>
									<g>
										<g>
											<path class="st7" d="M829,749.8H193.1c-9.8,0-17.8-8-17.8-17.8v-18.1h671.5V732C846.8,741.8,838.8,749.8,829,749.8z"/>
										</g>
									</g>
								</g>
							</g>
							<g>
								<g>
									<g>
										<g>
											<rect x="216.1" y="346.8" class="st6" width="584.8" height="346.1"/>
										</g>
									</g>
								</g>
							</g>
							<g>
								<g>
									<g>
										<g>
											<polygon class="st6" points="448.3,710.1 456.6,723.3 573.9,723.3 581.6,710.1 											"/>
										</g>
									</g>
								</g>
							</g>
						</g>
						<g>
							<g>
								<g>
									<g>
										<g>
											<g>
												<g>
													<g>
														<path class="st4" d="M786.8,691.8H231.4c-1.8,0-3.3-1.5-3.3-3.3V361.8c0-1.8,1.5-3.3,3.3-3.3h555.3
															c1.8,0,3.3,1.5,3.3,3.3v326.7C790.1,690.3,788.6,691.8,786.8,691.8z"/>
													</g>
												</g>
											</g>
										</g>
									</g>
									<g>
										<g>
											<g>
												<g>
													<g>
														<polygon class="st10" points="789.5,692.3 227.6,692.3 228.2,383.4 789.5,383.4 														"/>
													</g>
												</g>
											</g>
										</g>
									</g>
									<g>
										<g>
											<g>
												<g>
													<g>
														<path class="st6" d="M274.3,371.4c0,2.5-2,4.5-4.5,4.5c-2.5,0-4.5-2-4.5-4.5c0-2.5,2-4.5,4.5-4.5
															C272.3,366.9,274.3,368.9,274.3,371.4z"/>
													</g>
												</g>
											</g>
										</g>
									</g>
									<g>
										<g>
											<g>
												<g>
													<g>
														<path class="st6" d="M247.1,371.4c0,2.5-2,4.5-4.5,4.5c-2.5,0-4.5-2-4.5-4.5c0-2.5,2-4.5,4.5-4.5
															C245.1,366.9,247.1,368.9,247.1,371.4z"/>
													</g>
												</g>
											</g>
										</g>
									</g>
									<g>
										<g>
											<g>
												<g>
													<g>
														<path class="st6" d="M260.1,371.4c0,2.5-2,4.5-4.5,4.5c-2.5,0-4.5-2-4.5-4.5c0-2.5,2-4.5,4.5-4.5
															C258.1,366.9,260.1,368.9,260.1,371.4z"/>
													</g>
												</g>
											</g>
										</g>
									</g>
								</g>
							</g>
						</g>
						<g>
							<g>
								<g>
									<g>
										<path class="st6" d="M813.9,710.1c0,0.2-137.6,0.4-307.2,0.4c-169.7,0-307.2-0.2-307.2-0.4c0-0.2,137.5-0.4,307.2-0.4
											C676.4,709.7,813.9,709.8,813.9,710.1z"/>
									</g>
								</g>
							</g>
						</g>
					</g>
				</g>
			</g>
		</g>
		<g>
			<path class="st3" d="M580.8,632c0,0.3-33.7,0.5-75.3,0.5c-41.6,0-75.3-0.2-75.3-0.5s33.7-0.5,75.3-0.5
				C547.1,631.6,580.8,631.8,580.8,632z"/>
		</g>
		<g>
			<g>
				<g>
					<g>
						<rect x="241.2" y="552.9" class="st2" width="167.7" height="126"/>
					</g>
				</g>
			</g>
			<g>
				<g>
					<g>
						<polygon class="st3" points="241.2,679 299.7,600.6 336,649.5 360.6,623.3 408.9,678.8 						"/>
					</g>
				</g>
			</g>
			<g>
				<g>
					<g>
						<g>
							<g>
								<path class="st3" d="M351.4,590.9c0,7.3-5.9,13.2-13.2,13.2c-7.3,0-13.2-5.9-13.2-13.2c0-7.3,5.9-13.2,13.2-13.2
									C345.5,577.7,351.4,583.6,351.4,590.9z"/>
							</g>
						</g>
					</g>
				</g>
			</g>
		</g>
		<g>
			<g>
				<g>
					<g>
						<rect x="603" y="553" class="st2" width="167.7" height="126"/>
					</g>
				</g>
			</g>
			<g>
				<g>
					<g>
						<polygon class="st3" points="603,679.1 661.5,600.8 697.8,649.7 722.4,623.5 770.7,679 						"/>
					</g>
				</g>
			</g>
			<g>
				<g>
					<g>
						<g>
							<g>
								<path class="st3" d="M713.2,591.1c0,7.3-5.9,13.2-13.2,13.2c-7.3,0-13.2-5.9-13.2-13.2c0-7.3,5.9-13.2,13.2-13.2
									C707.3,577.9,713.2,583.8,713.2,591.1z"/>
							</g>
						</g>
					</g>
				</g>
			</g>
		</g>
		<g>
			<g>
				<path class="st3" d="M744.1,528c0-0.1,1.8-0.2,4.7-0.3c2.9-0.1,6.9-0.1,11.3-0.1c1.7,0,3.4,0,4.9,0l-0.4,0.4c0-3.2,0.1-6,0.2-8
					s0.2-3.1,0.3-3.1c0.1,0,0.2,1.2,0.3,3.1c0.1,2,0.1,4.7,0.2,8l0,0.4l-0.4,0c-1.5,0-3.2,0-4.9,0c-4.4,0-8.4-0.1-11.3-0.1
					C745.9,528.2,744.1,528.1,744.1,528z"/>
			</g>
			<g>
				<path class="st3" d="M702.2,528c0-0.3,4.7-0.5,10.5-0.5c5.8,0,10.5,0.2,10.5,0.5c0,0.3-4.7,0.5-10.5,0.5
					C706.8,528.5,702.2,528.2,702.2,528z"/>
			</g>
			<g>
				<path class="st3" d="M660.2,528c0-0.3,4.7-0.5,10.5-0.5c5.8,0,10.5,0.2,10.5,0.5c0,0.3-4.7,0.5-10.5,0.5
					C664.9,528.5,660.2,528.2,660.2,528z"/>
			</g>
			<g>
				<path class="st3" d="M618.3,528c0-0.3,4.7-0.5,10.5-0.5c5.8,0,10.5,0.2,10.5,0.5c0,0.3-4.7,0.5-10.5,0.5
					C622.9,528.5,618.3,528.2,618.3,528z"/>
			</g>
			<g>
				<path class="st3" d="M576.3,528c0-0.3,4.7-0.5,10.5-0.5c5.8,0,10.5,0.2,10.5,0.5c0,0.3-4.7,0.5-10.5,0.5
					C581,528.5,576.3,528.2,576.3,528z"/>
			</g>
			<g>
				<path class="st3" d="M534.4,528c0-0.3,4.7-0.5,10.5-0.5c5.8,0,10.5,0.2,10.5,0.5c0,0.3-4.7,0.5-10.5,0.5
					C539.1,528.5,534.4,528.2,534.4,528z"/>
			</g>
			<g>
				<path class="st3" d="M492.4,528c0-0.3,4.7-0.5,10.5-0.5c5.8,0,10.5,0.2,10.5,0.5c0,0.3-4.7,0.5-10.5,0.5
					C497.1,528.5,492.4,528.2,492.4,528z"/>
			</g>
			<g>
				<path class="st3" d="M450.5,528c0-0.3,4.7-0.5,10.5-0.5c5.8,0,10.5,0.2,10.5,0.5c0,0.3-4.7,0.5-10.5,0.5
					C455.2,528.5,450.5,528.2,450.5,528z"/>
			</g>
			<g>
				<path class="st3" d="M408.5,528c0-0.3,4.7-0.5,10.5-0.5c5.8,0,10.5,0.2,10.5,0.5c0,0.3-4.7,0.5-10.5,0.5
					C413.2,528.5,408.5,528.2,408.5,528z"/>
			</g>
			<g>
				<path class="st3" d="M366.6,528c0-0.3,4.7-0.5,10.5-0.5c5.8,0,10.5,0.2,10.5,0.5c0,0.3-4.7,0.5-10.5,0.5
					C371.3,528.5,366.6,528.2,366.6,528z"/>
			</g>
			<g>
				<path class="st3" d="M324.6,528c0-0.3,4.7-0.5,10.5-0.5c5.8,0,10.5,0.2,10.5,0.5c0,0.3-4.7,0.5-10.5,0.5
					C329.3,528.5,324.6,528.2,324.6,528z"/>
			</g>
			<g>
				<path class="st3" d="M282.7,528c0-0.3,4.7-0.5,10.5-0.5c5.8,0,10.5,0.2,10.5,0.5c0,0.3-4.7,0.5-10.5,0.5
					C287.4,528.5,282.7,528.2,282.7,528z"/>
			</g>
			<g>
				<path class="st3" d="M240.7,528C240.7,528,240.7,528,240.7,528L240.7,528c0.1-0.2,4.8-0.4,10.5-0.4c5.8,0,10.5,0.2,10.5,0.5
					c0,0.3-4.7,0.5-10.5,0.5C245.5,528.5,240.9,528.3,240.7,528L240.7,528C240.7,528,240.7,528,240.7,528z"/>
			</g>
			<g>
				<path class="st3" d="M240.7,486c0.3,0,0.5,4.7,0.5,10.5c0,5.8-0.2,10.5-0.5,10.5c-0.3,0-0.5-4.7-0.5-10.5
					C240.3,490.7,240.5,486,240.7,486z"/>
			</g>
			<g>
				<path class="st3" d="M240.7,444.1c0.3,0,0.5,4.7,0.5,10.5c0,5.8-0.2,10.5-0.5,10.5c-0.3,0-0.5-4.7-0.5-10.5
					C240.3,448.8,240.5,444.1,240.7,444.1z"/>
			</g>
			<g>
				<path class="st3" d="M240.7,402.1c0.3,0,0.5,4.7,0.5,10.5c0,5.8-0.2,10.5-0.5,10.5c-0.3,0-0.5-4.7-0.5-10.5
					C240.3,406.8,240.5,402.1,240.7,402.1z"/>
			</g>
			<g>
				<path class="st3" d="M277.1,396.6c0,0.3-4.7,0.5-10.5,0.5c-5.8,0-10.5-0.2-10.5-0.5s4.7-0.5,10.5-0.5
					C272.4,396.1,277.1,396.3,277.1,396.6z"/>
			</g>
			<g>
				<path class="st3" d="M319.1,396.6c0,0.3-4.7,0.5-10.5,0.5c-5.8,0-10.5-0.2-10.5-0.5s4.7-0.5,10.5-0.5
					C314.4,396.1,319.1,396.3,319.1,396.6z"/>
			</g>
			<g>
				<path class="st3" d="M361,396.6c0,0.3-4.7,0.5-10.5,0.5c-5.8,0-10.5-0.2-10.5-0.5s4.7-0.5,10.5-0.5
					C356.3,396.1,361,396.3,361,396.6z"/>
			</g>
			<g>
				<path class="st3" d="M403,396.6c0,0.3-4.7,0.5-10.5,0.5c-5.8,0-10.5-0.2-10.5-0.5s4.7-0.5,10.5-0.5
					C398.3,396.1,403,396.3,403,396.6z"/>
			</g>
			<g>
				<path class="st3" d="M444.9,396.6c0,0.3-4.7,0.5-10.5,0.5c-5.8,0-10.5-0.2-10.5-0.5s4.7-0.5,10.5-0.5
					C440.2,396.1,444.9,396.3,444.9,396.6z"/>
			</g>
			<g>
				<path class="st3" d="M486.9,396.6c0,0.3-4.7,0.5-10.5,0.5c-5.8,0-10.5-0.2-10.5-0.5s4.7-0.5,10.5-0.5
					C482.2,396.1,486.9,396.3,486.9,396.6z"/>
			</g>
			<g>
				<path class="st3" d="M528.8,396.6c0,0.3-4.7,0.5-10.5,0.5c-5.8,0-10.5-0.2-10.5-0.5s4.7-0.5,10.5-0.5
					C524.1,396.1,528.8,396.3,528.8,396.6z"/>
			</g>
			<g>
				<path class="st3" d="M570.8,396.6c0,0.3-4.7,0.5-10.5,0.5c-5.8,0-10.5-0.2-10.5-0.5s4.7-0.5,10.5-0.5
					C566.1,396.1,570.8,396.3,570.8,396.6z"/>
			</g>
			<g>
				<path class="st3" d="M612.7,396.6c0,0.3-4.7,0.5-10.5,0.5c-5.8,0-10.5-0.2-10.5-0.5s4.7-0.5,10.5-0.5
					C608,396.1,612.7,396.3,612.7,396.6z"/>
			</g>
			<g>
				<path class="st3" d="M654.7,396.6c0,0.3-4.7,0.5-10.5,0.5c-5.8,0-10.5-0.2-10.5-0.5s4.7-0.5,10.5-0.5
					C650,396.1,654.7,396.3,654.7,396.6z"/>
			</g>
			<g>
				<path class="st3" d="M696.6,396.6c0,0.3-4.7,0.5-10.5,0.5c-5.8,0-10.5-0.2-10.5-0.5s4.7-0.5,10.5-0.5
					C691.9,396.1,696.6,396.3,696.6,396.6z"/>
			</g>
			<g>
				<path class="st3" d="M738.6,396.6c0,0.3-4.7,0.5-10.5,0.5c-5.8,0-10.5-0.2-10.5-0.5s4.7-0.5,10.5-0.5
					C733.9,396.1,738.6,396.3,738.6,396.6z"/>
			</g>
			<g>
				<path class="st3" d="M765.1,412c-0.3,0-0.5-4.7-0.5-10.5c0-1.7,0-3.4,0.1-5l0.4,0.4c-3.3-0.1-5.5-0.2-5.5-0.4s2.2-0.3,5.5-0.4
					l0.4,0l0,0.4c0,1.6,0,3.2,0.1,5C765.5,407.3,765.3,412,765.1,412z"/>
			</g>
			<g>
				<path class="st3" d="M765.1,454c-0.3,0-0.5-4.7-0.5-10.5c0-5.8,0.2-10.5,0.5-10.5c0.3,0,0.5,4.7,0.5,10.5
					C765.5,449.3,765.3,454,765.1,454z"/>
			</g>
			<g>
				<path class="st3" d="M765.1,495.9c-0.3,0-0.5-4.7-0.5-10.5c0-5.8,0.2-10.5,0.5-10.5c0.3,0,0.5,4.7,0.5,10.5
					C765.5,491.2,765.3,495.9,765.1,495.9z"/>
			</g>
		</g>
		<g>
			<path class="st3" d="M580.8,674.5c0,0.3-33.7,0.5-75.3,0.5c-41.6,0-75.3-0.2-75.3-0.5c0-0.3,33.7-0.5,75.3-0.5
				C547.1,674.1,580.8,674.3,580.8,674.5z"/>
		</g>
		<g>
			<path class="st3" d="M580.8,655.1c0,0.3-33.7,0.5-75.3,0.5c-41.6,0-75.3-0.2-75.3-0.5c0-0.3,33.7-0.5,75.3-0.5
				C547.1,654.6,580.8,654.8,580.8,655.1z"/>
		</g>
	</g>
</g>
<g id="Sign">
	<g>
		<rect x="110.8" y="505.2" class="st6" width="9.1" height="244.2"/>
		<g>
			<g>
				<g>
					<circle class="st8" cx="115.3" cy="461.2" r="52.7"/>
				</g>
			</g>
			<g>
				<path class="st14" d="M162.7,460.6c0,0,0-0.3-0.1-0.8c0-0.5-0.1-1.3-0.2-2.2c0-0.5-0.1-1-0.1-1.7c-0.1-0.6-0.2-1.3-0.3-2
					c-0.2-1.4-0.4-3.1-1-4.9c-0.8-3.7-2.6-8-5.3-12.5c-2.7-4.6-6.7-9.3-12-13.3c-5.3-4-12-7.4-19.8-8.8c-7.7-1.3-16.4-1.1-24.7,2.1
					c-2.1,0.7-4.1,1.7-6.1,2.7c-1,0.5-1.9,1.2-2.9,1.7c-1,0.6-1.9,1.3-2.8,2c-1.9,1.3-3.6,3-5.3,4.5c-1.6,1.7-3.2,3.5-4.6,5.4
					c-2.8,3.9-5.2,8.2-6.7,12.9c-1.5,4.7-2.4,9.7-2.4,14.8c0.1,5.1,0.9,10.1,2.4,14.8c1.5,4.7,3.9,9.1,6.7,12.9c1.4,2,3,3.7,4.6,5.4
					c1.7,1.6,3.4,3.2,5.3,4.5c0.9,0.7,1.8,1.4,2.8,2c1,0.6,1.9,1.2,2.9,1.7c2,1,4,2,6.1,2.7c8.3,3.1,17,3.4,24.7,2.1
					c7.8-1.4,14.5-4.8,19.8-8.8c5.3-4,9.3-8.8,12-13.3c2.7-4.6,4.4-8.9,5.3-12.5c0.5-1.8,0.8-3.5,1-4.9c0.1-0.7,0.2-1.4,0.3-2
					c0-0.6,0.1-1.2,0.1-1.7c0.1-1,0.1-1.7,0.2-2.2C162.7,460.9,162.7,460.6,162.7,460.6s0,0.3,0,0.8c0,0.5,0,1.3-0.1,2.3
					c0,0.5,0,1.1-0.1,1.7c-0.1,0.6-0.2,1.3-0.3,2c-0.2,1.4-0.4,3.1-0.9,4.9c-0.8,3.7-2.5,8.1-5.2,12.7c-2.7,4.6-6.7,9.5-12,13.6
					c-5.4,4.1-12.2,7.6-20.1,9c-7.8,1.4-16.7,1.2-25.1-2c-2.1-0.7-4.2-1.7-6.2-2.7c-1-0.5-2-1.2-3-1.8c-1-0.6-2-1.3-2.9-2
					c-1.9-1.3-3.7-3-5.4-4.6c-1.6-1.8-3.3-3.5-4.7-5.5c-2.9-4-5.3-8.3-6.9-13.2c-1.6-4.8-2.4-9.9-2.5-15.1
					c0.1-5.2,0.9-10.3,2.5-15.1c1.5-4.8,4-9.2,6.9-13.2c1.4-2,3.1-3.8,4.7-5.5c1.8-1.6,3.5-3.3,5.4-4.6c0.9-0.7,1.9-1.4,2.9-2
					c1-0.6,2-1.2,3-1.8c2.1-1,4.1-2,6.2-2.7c8.4-3.2,17.3-3.4,25.1-2c7.9,1.4,14.7,4.9,20.1,9c5.4,4.1,9.3,9,12,13.6
					c2.7,4.6,4.4,9,5.2,12.7c0.5,1.8,0.7,3.5,0.9,4.9c0.1,0.7,0.2,1.4,0.3,2c0,0.6,0,1.2,0.1,1.7c0,1,0.1,1.7,0.1,2.3
					C162.7,460.3,162.7,460.6,162.7,460.6z"/>
			</g>
			<rect x="87.9" y="454.7" class="st10" width="54.8" height="11.4"/>
		</g>
	</g>
</g>
<g id="Crane">
	<g>
		<g>
			<g>
				<g>
					<g>
						
							<rect x="313.5" y="414" transform="matrix(0.9968 -8.009249e-02 8.009249e-02 0.9968 -37.3091 47.2827)" class="st14" width="514.5" height="149.4"/>
						<g>
							<path class="st6" d="M833.1,542.6c-0.2-2.2-4.5-55-12.2-148.9l0.3,0.3c-119,9.6-304.7,24.6-512.8,41.4l0,0l0.4-0.5
								c4.1,51.4,8.1,101.4,12,148.9l-0.5-0.4c147-11.7,275.1-22,366.5-29.2C778.2,546.9,831,542.7,833.1,542.6c0,0-0.8,0.1-2.5,0.2
								c-1.7,0.1-4.2,0.4-7.4,0.6c-6.6,0.5-16.2,1.3-28.7,2.4c-25.1,2-61.6,5-107.3,8.7c-91.5,7.4-219.7,17.8-366.8,29.7l-0.4,0
								l0-0.4c-3.8-47.5-7.8-97.5-12-148.9l0-0.5l0.5,0l0,0c208.1-16.7,393.8-31.5,512.8-41l0.3,0l0,0.3
								C828.8,487.5,833,540.4,833.1,542.6z"/>
						</g>
					</g>
					<g>
						<g>
							<g>
								<g>
									
										<rect x="326" y="442.5" transform="matrix(0.9975 -7.096761e-02 7.096761e-02 0.9975 -34.6971 30.1482)" class="st8" width="161.9" height="121.7"/>
								</g>
							</g>
						</g>
						<g>
							<g>
								<g>
									<g>
										<g>
											<path class="st3" d="M685.5,542.5c0,0.3-4.6,0.8-10.4,1.3c-1-0.8-0.3-0.2-0.5-0.4l0,0l0,0l0,0l0,0l0-0.1l0-0.1l0-0.3
												l0-0.5c0-0.3-0.1-0.7-0.1-1c0-0.7-0.1-1.3-0.1-2c-0.1-1.1-0.1-2.3-0.2-3.3c-0.1-1.9-0.1-3.1,0.1-3.1c0.1,0,0.3,1.1,0.6,3
												c0.1,1.1,0.2,2.2,0.4,3.3c0.1,0.6,0.1,1.3,0.2,2c0,0.3,0.1,0.7,0.1,1l0,0.5l0,0.3l0,0.1l0,0.1l0,0l0,0l0,0l0,0
												c-0.2-0.2,0.5,0.4-0.5-0.4C680.8,542.4,685.5,542.3,685.5,542.5z"/>
										</g>
										<g>
											<path class="st3" d="M733,538.5c0,0.3-5.3,0.9-11.8,1.5c-6.6,0.6-11.9,0.8-11.9,0.5c0-0.3,5.3-0.9,11.8-1.5
												C727.6,538.5,733,538.2,733,538.5z"/>
										</g>
										<g>
											<path class="st3" d="M780.4,534.5c0,0.3-5.3,0.9-11.8,1.5c-6.6,0.6-11.9,0.8-11.9,0.5c0-0.3,5.3-0.9,11.8-1.5
												C775.1,534.5,780.4,534.2,780.4,534.5z"/>
										</g>
										<g>
											<path class="st3" d="M813.7,521.2c0.3,0,0.8,4.6,1.3,10.4c-0.8,1-0.2,0.3-0.4,0.5l0,0l0,0l0,0l0,0l-0.1,0l-0.1,0l-0.3,0
												l-0.5,0c-0.3,0-0.7,0.1-1,0.1c-0.7,0-1.3,0.1-2,0.1c-1.1,0.1-2.3,0.1-3.3,0.2c-1.9,0.1-3.1,0.1-3.1-0.1
												c0-0.1,1.1-0.3,3-0.6c1.1-0.1,2.2-0.2,3.3-0.4c0.6-0.1,1.3-0.1,2-0.2c0.3,0,0.7-0.1,1-0.1l0.5,0l0.3,0l0.1,0l0.1,0l0,0
												l0,0l0,0l0,0c-0.2,0.2,0.4-0.5-0.4,0.5C813.6,525.9,813.5,521.2,813.7,521.2z"/>
										</g>
										<g>
											<path class="st3" d="M810.4,482c0.3,0,0.8,4.3,1.3,9.7c0.5,5.4,0.6,9.8,0.4,9.8c-0.3,0-0.8-4.3-1.3-9.7
												C810.3,486.4,810.1,482.1,810.4,482z"/>
										</g>
										<g>
											<path class="st3" d="M807.1,442.9c0.3,0,0.8,4.3,1.3,9.7c0.5,5.4,0.6,9.8,0.4,9.8c-0.3,0-0.8-4.3-1.3-9.7
												C807,447.3,806.8,442.9,807.1,442.9z"/>
										</g>
										<g>
											<path class="st3" d="M794.1,413.8c0-0.3,4.6-0.8,10.4-1.3c1,0.8,0.3,0.2,0.5,0.4l0,0l0,0l0,0l0,0l0,0.1l0,0.1l0,0.3
												l0,0.5c0,0.3,0.1,0.7,0.1,1c0,0.7,0.1,1.3,0.1,2c0.1,1.1,0.1,2.3,0.2,3.3c0.1,1.9,0.1,3.1-0.1,3.1c-0.1,0-0.3-1.1-0.6-3
												c-0.1-1.1-0.2-2.2-0.4-3.3c-0.1-0.6-0.1-1.3-0.2-2c0-0.3-0.1-0.7-0.1-1l0-0.5l0-0.3l0-0.1l0-0.1l0,0l0,0l0,0l0,0
												c0.2,0.2-0.5-0.4,0.5,0.4C798.8,413.8,794.1,414,794.1,413.8z"/>
										</g>
										<g>
											<path class="st3" d="M746.7,417.8c0-0.3,5.3-0.9,11.8-1.5c6.6-0.6,11.9-0.8,11.9-0.5c0,0.3-5.3,0.9-11.8,1.5
												C752,417.8,746.7,418,746.7,417.8z"/>
										</g>
										<g>
											<path class="st3" d="M699.2,421.8c0-0.3,5.3-0.9,11.8-1.5c6.6-0.6,11.9-0.8,11.9-0.5c0,0.3-5.3,0.9-11.8,1.5
												C704.6,421.8,699.3,422,699.2,421.8z"/>
										</g>
										<g>
											<path class="st3" d="M666,435.1c-0.3,0-0.8-4.6-1.3-10.4c0.8-1,0.2-0.3,0.4-0.5l0,0l0,0l0,0l0,0l0.1,0l0.1,0l0.3,0l0.5,0
												c0.3,0,0.7-0.1,1-0.1c0.7,0,1.3-0.1,2-0.1c1.1-0.1,2.3-0.1,3.3-0.2c1.9-0.1,3.1-0.1,3.1,0.1c0,0.1-1.1,0.3-3,0.6
												c-1.1,0.1-2.2,0.2-3.3,0.4c-0.6,0.1-1.3,0.1-2,0.2c-0.3,0-0.7,0.1-1,0.1l-0.5,0l-0.3,0l-0.1,0l-0.1,0l0,0l0,0l0,0l0,0
												c0.2-0.2-0.4,0.5,0.4-0.5C666,430.4,666.2,435.1,666,435.1z"/>
										</g>
										<g>
											<path class="st3" d="M669.3,474.2c-0.3,0-0.8-4.3-1.3-9.7c-0.5-5.4-0.6-9.8-0.4-9.8c0.3,0,0.8,4.3,1.3,9.7
												C669.3,469.8,669.5,474.2,669.3,474.2z"/>
										</g>
										<g>
											<path class="st3" d="M672.6,513.4c-0.3,0-0.8-4.3-1.3-9.7c-0.5-5.4-0.6-9.8-0.4-9.8c0.3,0,0.8,4.3,1.3,9.7
												C672.6,509,672.8,513.4,672.6,513.4z"/>
										</g>
									</g>
								</g>
							</g>
						</g>
						<g>
							<g>
								<g>
									<polygon class="st8" points="330.5,569.8 381.5,490.3 419.8,535.1 441.8,508.1 492,558.3 									"/>
								</g>
							</g>
						</g>
						<g>
							<g>
								<g>
									<g>
										<g>
											<path class="st8" d="M430.7,477.6c0.5,7-4.8,13.1-11.8,13.6c-7,0.5-13.1-4.8-13.6-11.8c-0.5-7,4.8-13.1,11.8-13.6
												C424.1,465.2,430.2,470.5,430.7,477.6z"/>
										</g>
									</g>
								</g>
							</g>
						</g>
						<g class="st15">
							<g>
								<g>
									<polygon points="330.5,569.8 381.5,490.3 419.8,535.1 441.8,508.1 492,558.3 									"/>
								</g>
							</g>
						</g>
						<g class="st15">
							<g>
								<g>
									<g>
										<g>
											<path d="M430.7,477.6c0.5,7-4.8,13.1-11.8,13.6c-7,0.5-13.1-4.8-13.6-11.8c-0.5-7,4.8-13.1,11.8-13.6
												C424.1,465.2,430.2,470.5,430.7,477.6z"/>
										</g>
									</g>
								</g>
							</g>
						</g>
					</g>
					<g>
						<g>
							<path class="st6" d="M651.8,457.8c0,0.3-31.4,3.4-70.1,6.9c-38.8,3.6-70.2,6.3-70.2,6c0-0.3,31.4-3.4,70.1-6.9
								C620.3,460.3,651.8,457.6,651.8,457.8z"/>
						</g>
						<g>
							<path class="st6" d="M655.9,481.2c0,0.3-31.7,3.4-70.9,7c-39.2,3.6-71,6.3-71,6.1c0-0.3,31.7-3.4,70.9-7
								C624,483.7,655.8,480.9,655.9,481.2z"/>
						</g>
						<g>
							<path class="st6" d="M659.9,504.6c0,0.3-32.1,3.4-71.7,7.1c-39.6,3.7-71.7,6.4-71.8,6.2s32.1-3.4,71.7-7.1
								C627.8,507.1,659.9,504.3,659.9,504.6z"/>
						</g>
						<g>
							<path class="st6" d="M660.8,527.7c0,0.3-32.1,3.4-71.8,7.1c-39.7,3.7-71.8,6.4-71.8,6.2c0-0.3,32.1-3.4,71.8-7.1
								C628.6,530.2,660.7,527.5,660.8,527.7z"/>
						</g>
						
							<rect x="508.4" y="445.3" transform="matrix(0.9968 -8.009182e-02 8.009182e-02 0.9968 -34.1517 45.1289)" class="st8" width="74.1" height="5.9"/>
					</g>
				</g>
				<g>
					<g>
						<path class="st3" d="M741.5,496.4c-0.3,0-1.2-8.6-2.1-19.3c-0.9-10.7-1.5-19.3-1.2-19.3c0.3,0,1.2,8.6,2.1,19.3
							C741.2,487.7,741.7,496.4,741.5,496.4z"/>
					</g>
					<g>
						<path class="st3" d="M757.6,476.2c0,0.3-8.3,1-18.5,1.6c-10.3,0.6-18.6,1-18.6,0.7c0-0.3,8.3-1,18.5-1.6
							C749.3,476.3,757.6,475.9,757.6,476.2z"/>
					</g>
				</g>
			</g>
			<g>
				<path class="st6" d="M821.2,393.7c0,0-0.4-0.1-1.2-0.4c-0.8-0.3-2-0.8-3.6-1.4c-3.2-1.2-7.8-3-13.8-5.4
					c-12-4.7-29.3-11.5-50.8-19.9c-43.1-17-102.9-40.6-170-67l0.4,0c-6.9,3.4-14.1,7-21.5,10.7c-69.6,34.5-132.6,65.7-178.3,88.3
					c-22.8,11.3-41.3,20.4-54.1,26.7c-6.4,3.1-11.3,5.6-14.7,7.2c-1.7,0.8-3,1.4-3.8,1.9c-0.9,0.4-1.3,0.6-1.3,0.6s0.4-0.2,1.3-0.7
					c0.9-0.4,2.1-1.1,3.8-1.9c3.4-1.7,8.3-4.2,14.6-7.4c12.8-6.4,31.2-15.6,53.9-26.9c45.6-22.7,108.6-54,178.1-88.6
					c7.4-3.7,14.7-7.3,21.5-10.7l0.2-0.1l0.2,0.1C649.1,325.3,708.9,349,752,366c21.5,8.6,38.8,15.4,50.7,20.2
					c5.9,2.4,10.6,4.2,13.7,5.5c1.5,0.6,2.7,1.1,3.5,1.4C820.8,393.5,821.2,393.7,821.2,393.7z"/>
			</g>
		</g>
		<g>
			<path class="st6" d="M716.8,149.5c-2.7-5.9-9.6-8.5-15.5-5.8c-2.6,1.2-4.6,3.2-5.7,5.7l-18.3,1.5l18.5,36.4l11.6-21.3
				c1.2-0.1,2.5-0.4,3.7-1C716.8,162.3,719.4,155.4,716.8,149.5z"/>
		</g>
		<path class="st6" d="M611.3,96.7l11.9-5.1l-28.8-7.2c-1.8-2.8-4.7-4.8-8.3-5.3c-6.4-0.9-12.3,3.6-13.2,10
			c-0.9,6.4,3.6,12.3,10,13.2c3.2,0.4,6.3-0.5,8.7-2.3l27.3,16.7L611.3,96.7z"/>
		<g>
			<path class="st6" d="M841.5,454.1l-0.1-0.2L644.1,86L643,84l-31.1,14.2l148.8,392.2l0.1,0.2l88.6,140.9l1.8-0.3l2-0.3l1.6-0.2
				l-18.3-29.1l10.7-27.6l28.4,10.5l12.5,41.3l1.5-0.2l1.9-0.3l1.7-0.2L841.5,454.1z M854.2,513.7l-35.4-9.1l20.5-40.1L854.2,513.7z
				 M815.7,503.8l-43.6-11.2l64.3-29.3L815.7,503.8z M832.1,447.2l-45.2-12.5l18.6-37.3L832.1,447.2z M783.8,433.9l-39.8-11
				l58.6-26.7L783.8,433.9z M799.9,387.1l-41.7-14.5l14.9-35.5L799.9,387.1z M755.2,371.5l-36.6-12.8l51.9-23.6L755.2,371.5z
				 M767.1,326.1l-38-16.4l11.2-33.4L767.1,326.1z M726.3,308.4l-32.5-14l44-20L726.3,308.4z M735,266.1l-0.2,0.1l-34.1-18.5
				l7.6-31.5L735,266.1z M701.4,203.5l-29.8-20l3.9-28.2L701.4,203.5z M668.7,181.5l-23.9-16.1l28-12.7L668.7,181.5z M643.3,95.2
				l25.3,47.1l-26-21.9L643.3,95.2z M638.5,154l-18.3-48.3l19.3,16.2L638.5,154z M639.5,117.9l-20.6-17.4l21.4-9.8L639.5,117.9z
				 M642.5,124.5l25,21.1l-26,11.8L642.5,124.5z M644.1,168.8l24.1,16.2l-4.8,34.6L644.1,168.8z M671.1,186.9l29,19.4l-33.8,15.4
				L671.1,186.9z M705.7,213.3l-7.9,32.9l-29.4-15.9L705.7,213.3z M668.9,234.2l28.1,15.2l-8.7,36L668.9,234.2z M699.9,250.9
				l31.3,16.9L691.4,286L699.9,250.9z M692.9,297.4l32.4,14l-12.7,37.8L692.9,297.4z M728.2,312.7l36.3,15.7l-49.1,22.3L728.2,312.7
				z M717.3,361.6l36.7,12.8l-16.7,39.9L717.3,361.6z M757,375.5l39.7,13.8L740.4,415L757,375.5z M741.5,425.4l40.9,11.3l-20.8,41.7
				L741.5,425.4z M785.4,437.6l44.4,12.3l-65.4,29.8L785.4,437.6z M769.7,495.2l44.5,11.4l-16.8,32.7L769.7,495.2z M817.3,507.5
				l36.4,9.3L800,541.3L817.3,507.5z M834.4,598.2l-23.8-37.8l33.6,12.4L834.4,598.2z M845.4,569.9L807.9,556l-0.9-1.5l52.4-23.9
				l0.5,1.8L845.4,569.9z M848.4,571l13-33.6l13.1,43.2L848.4,571z"/>
			<g>
				<path class="st6" d="M581.6,260.1c0,0,0-1.1-0.1-3.1c0-2.1,0-5.1-0.1-9.1c0-8-0.1-19.7-0.1-34.8c0-30.1-0.1-73.5-0.2-126.4
					l0-0.3l0.3,0c17.2-1.8,35.8-3.8,55.4-5.8l0.2,0l0.1,0.2c42.1,47.1,91.5,102.3,144.1,161.1c81.9,91.7,156.1,174.7,209.8,234.8
					c26.8,30.1,48.5,54.4,63.5,71.2c7.5,8.4,13.3,14.9,17.2,19.4c2,2.2,3.4,3.9,4.5,5.1c1,1.1,1.5,1.7,1.5,1.7s-0.5-0.6-1.6-1.7
					c-1-1.1-2.5-2.8-4.5-5c-4-4.4-9.8-10.9-17.4-19.3c-15.1-16.8-36.8-41-63.7-71c-53.7-60-128-143-210-234.6
					c-52.6-58.8-101.9-114-144-161.1l0.3,0.1c-19.5,2-38.1,4-55.4,5.7l0.3-0.4c-0.1,52.9-0.1,96.3-0.2,126.4c0,15-0.1,26.8-0.1,34.8
					c0,4,0,7-0.1,9.1C581.6,259,581.6,260.1,581.6,260.1z"/>
			</g>
			<g>
				<path class="st6" d="M585.1,229.7H577c-0.2,0-0.4-0.2-0.4-0.4v-18.2c0-0.2,0.2-0.4,0.4-0.4h8.1c0.2,0,0.4,0.2,0.4,0.4v18.2
					C585.4,229.5,585.3,229.7,585.1,229.7z"/>
				<path class="st6" d="M596,232.6h-29c-1.8,0-3.2-1.4-3.2-3.2l0,0c0-1.8,1.4-3.2,3.2-3.2h29c1.8,0,3.2,1.4,3.2,3.2l0,0
					C599.3,231.1,597.8,232.6,596,232.6z"/>
				<path class="st6" d="M583.6,284.5l-0.1-4.1l-4.3,1.8c-0.2,1.5-0.2,3.1-0.1,4.6c0,0.2,0,0.5,0.2,0.7c0.2,0.4,0.6,0.5,1,0.7
					c1.8,0.8,3.5,2.1,4.4,3.8c0.9,1.8,1,5.7-2.9,7.1c-3.4,1.2-6.5-2-6.5-3.5c0-0.7,0-1.7-1-1.8c-1.4-0.1-2,1.9-2,3
					c0.2,6.3,6.1,8.3,8.6,8.4c1.7,0.1,3.4-0.2,4.9-1.1c2.4-1.4,4.1-3.8,4.6-6.5C591.9,289.5,583.2,285.1,583.6,284.5z"/>
				<path class="st3" d="M587.3,282.5l18.6-44.7c1.7-4-1.3-8.5-5.7-8.5h-18.6h-18.6c-4.4,0-7.3,4.4-5.7,8.5l18.6,44.7
					C578,287.5,585.2,287.5,587.3,282.5z"/>
				<g>
					<path class="st8" d="M565,232.5l-4.8,4.8c0,0.2,0,0.4,0.1,0.5l1.6,3.8l9.1-9.1H565z"/>
					<polygon class="st8" points="582.9,232.5 576.9,232.5 563.6,245.8 565.3,250.1 					"/>
					<polygon class="st8" points="595.6,255.6 599.9,245.4 574.1,271.1 575.8,275.4 					"/>
					<path class="st8" d="M591.4,265.8l-13.8,13.8l0.5,1.1c0.4,1.1,1.2,1.8,2.2,2.1l6.8-6.8L591.4,265.8z"/>
					<polygon class="st8" points="594.8,232.5 588.8,232.5 567.1,254.3 568.8,258.5 					"/>
					<path class="st8" d="M603.3,236c-0.1-0.6-0.3-1.2-0.6-1.8c-0.5-0.8-1.3-1.2-2.1-1.4l-29.9,29.9l1.8,4.2L603.3,236z"/>
				</g>
			</g>
			<g>
				<path class="st6" d="M1095.3,583.1h-40.4v-16.2c0-1.5,1.2-2.6,2.6-2.6h35.1c1.5,0,2.6,1.2,2.6,2.6V583.1z"/>
				<g>
					<path class="st6" d="M984.3,578.4h-6.6V539c0-1.7,0.3-3.5,0.8-5.1l3.3-10.3c0.1-0.2,0.3-0.2,0.4,0l3.9,6.9l-1,3.2
						c-0.6,1.7-0.8,3.5-0.8,5.3V578.4z"/>
				</g>
				<path class="st8" d="M1147.5,585.6c-1.9-4.5-6-7.8-10.8-8.7L971,576.9v-27.6c0-3.7-3-6.7-6.7-6.7h-80.1c-2.9,0-5.5,1.9-6.4,4.7
					l-2.4,7.6h8.9c2.1,0,4,0.9,5.3,2.5c1.3,1.6,1.8,3.6,1.4,5.6l-8.6,40.6c-0.7,3.1-3.5,5.4-6.8,5.4h-17c-0.2,2.6-0.1,5.2,0.5,7.8
					l0.9,4.1l-43.8,8.6c-0.7,0.1-1.3,0.7-1.4,1.4l-4.1,11.1c-0.2,0.4-0.4,1-0.6,1.6l0,0.1h0c-0.9,3.7-0.2,9.8,2,9.8h47l-2.1,2.3
					l-2.6,8.2h298.4C1152.9,637,1152.2,596.8,1147.5,585.6z M940.8,560.4l-4.4,39.9c-0.1,0.5-0.1,1-0.2,1.5
					c-1.6,8.1-9.2,13.7-17.4,13.7l-19.7,0c-3.9,0-6.7-3.6-5.9-7.3l9.3-48c0.6-3.1,3.4-5.4,6.6-5.4h26.8c1.4,0,2.8,0.6,3.8,1.7
					C940.5,557.5,940.9,559,940.8,560.4z"/>
				<g>
					<path class="st7" d="M1014.1,683.7l-127,1.8c-0.8,0-2.3-2.4-2.3-3.3V668c0-0.8,0.7-1.5,1.5-1.5h127.8c0.8,0,1.5,0.7,1.5,1.5
						v14.2C1015.6,683,1014.9,683.7,1014.1,683.7z"/>
				</g>
				<g>
					<defs>
						<path id="SVGID_1_" d="M940.8,560.4l-4.4,39.9c-0.1,0.5-0.1,1-0.2,1.5c-1.6,8.1-9.2,13.7-17.4,13.7l-19.7,0
							c-3.9,0-6.7-3.6-5.9-7.3l9.3-48c0.6-3.1,3.4-5.4,6.6-5.4h26.8c1.4,0,2.8,0.6,3.8,1.7C940.5,557.5,940.9,559,940.8,560.4z"/>
					</defs>
					<use xlink:href="#SVGID_1_"  style="overflow:visible;fill:#E8505B;"/>
					<clipPath id="SVGID_2_">
						<use xlink:href="#SVGID_1_"  style="overflow:visible;"/>
					</clipPath>
					<g class="st16">
						<g>
							<path class="st8" d="M1152.9,667.2c0.1-1.2-0.1-2.6-0.4-3.2H854.9c-0.3,0.6-0.5,2-0.4,3.2H1152.9z"/>
							<g>
								<defs>
									<path id="SVGID_3_" d="M877.9,547.2l-17.9,55.7c-1.4,4.4-1.7,9.2-0.7,13.7l7.7,35.6h48.6H971v-103c0-3.7-3-6.7-6.7-6.7
										h-80.1C881.3,542.5,878.8,544.4,877.9,547.2z"/>
								</defs>
								<use xlink:href="#SVGID_3_"  style="overflow:visible;fill:#E8505B;"/>
								<clipPath id="SVGID_4_">
									<use xlink:href="#SVGID_3_"  style="overflow:visible;"/>
								</clipPath>
							</g>
						</g>
					</g>
				</g>
				<path class="st7" d="M899,615.5c-3.9,0-6.7-3.6-5.9-7.3l9.3-48c0.6-3.1,3.4-5.4,6.6-5.4h26.8c1.4,0,2.8,0.6,3.8,1.7
					c1,1.1,1.4,2.5,1.3,3.9l-4.4,39.9c-0.1,0.5-0.1,1-0.2,1.5c-1.6,8.1-9.2,13.7-17.4,13.7L899,615.5z"/>
				<path class="st7" d="M858.8,609c0.2-2,0.6-3.9,1.2-5.8l15.6-48.3h8.9c2.1,0,4,0.9,5.3,2.5c1.3,1.6,1.8,3.6,1.4,5.6l-8.6,40.6
					c-0.7,3.1-3.5,5.4-6.8,5.4H858.8z"/>
				<path class="st6" d="M1153.1,671.7H854.8c-2.3,0-2.3-8.3,0-8.3h298.3C1155.4,663.4,1155.4,671.7,1153.1,671.7z"/>
				<g>
					<path class="st6" d="M971.3,579c0,0,0,0.2,0,0.4c0,0.3,0,0.8,0,1.3c0,1.2-0.1,2.9-0.1,5c-0.1,4.4-0.3,10.6-0.6,18.3
						c-0.3,7.7-0.6,16.9-0.9,27.1c-0.1,2.6-0.2,5.2-0.3,7.8c-0.1,2.7-0.3,5.5-1.8,8.1c-1.4,2.6-4.1,4.4-6.9,5.2
						c-2.8,0.8-5.8,1-8.8,1c-23.5-0.4-44.8-0.8-60.3-1.1c-7.7-0.2-13.9-0.3-18.3-0.5c-2.1-0.1-3.8-0.1-5-0.2c-0.5,0-0.9,0-1.3-0.1
						c-0.3,0-0.4,0-0.4-0.1c0,0,0.1,0,0.4,0c0.3,0,0.8,0,1.3,0c1.2,0,2.9,0,5,0c4.4,0,10.6,0.1,18.3,0.2c15.5,0.2,36.8,0.5,60.3,0.9
						c2.9,0,5.8-0.2,8.5-1c2.7-0.8,5.1-2.4,6.3-4.7c1.3-2.3,1.5-5.1,1.7-7.7c0.1-2.7,0.2-5.3,0.3-7.8c0.4-10.2,0.8-19.4,1.1-27.1
						c0.4-7.7,0.6-13.9,0.8-18.3c0.1-2.1,0.2-3.8,0.3-5c0-0.5,0.1-0.9,0.1-1.3C971.2,579.1,971.3,579,971.3,579z"/>
				</g>
				<g>
					<path class="st6" d="M886.3,652.6c-0.3,0-0.5-8.7-0.5-19.5c0-10.8,0.2-19.5,0.5-19.5c0.3,0,0.5,8.7,0.5,19.5
						C886.7,643.9,886.5,652.6,886.3,652.6z"/>
				</g>
				<g>
					<path class="st6" d="M901.9,542.9c0.1,0-0.1,1-0.3,2.8c-0.3,1.8-0.7,4.4-1.3,7.6c-1.1,6.4-2.9,15.3-5,25
						c-2.2,9.7-4.4,18.5-6.1,24.8c-0.9,3.2-1.6,5.7-2.1,7.4c-0.5,1.7-0.8,2.7-0.9,2.7c-0.1,0,0.1-1,0.6-2.8c0.5-1.9,1.1-4.5,1.8-7.5
						c1.6-6.3,3.7-15.1,5.8-24.8c2.2-9.7,4-18.5,5.3-24.9c0.6-3.1,1.2-5.6,1.6-7.6C901.6,543.8,901.8,542.9,901.9,542.9z"/>
				</g>
				<g>
					<path class="st8" d="M936.4,631.4c0-0.1,0.7,0,1.6-0.7c0.4-0.3,0.9-0.9,1.1-1.6c0.2-0.7,0.2-1.7-0.3-2.5
						c-0.5-0.8-1.5-1.4-2.6-1.4c-1.3,0-2.6,0-4,0c-2.8,0-5.9,0-9.1,0c-1.4,0-2.6,1.2-2.7,2.5c-0.2,1.4,0.6,2.6,1.8,3
						c0.3,0.1,0.6,0.2,0.9,0.2c0.3,0,0.7,0,1,0c0.7,0,1.3,0,1.9,0c1.2,0,2.4,0,3.4,0.1c2.1,0,3.8,0.1,5,0.1
						C935.8,631.3,936.4,631.3,936.4,631.4c0,0.1-0.7,0.1-1.8,0.2c-1.2,0.1-2.9,0.1-5,0.1c-1.1,0-2.2,0-3.4,0.1c-0.6,0-1.3,0-1.9,0
						c-0.3,0-0.7,0-1,0c-0.4,0-0.8-0.1-1.1-0.2c-1.5-0.5-2.6-2.2-2.4-3.9c0.1-1.8,1.7-3.4,3.6-3.3c3.2,0,6.3,0,9.1,0
						c1.4,0,2.7,0,4,0c1.4,0,2.6,0.8,3.2,1.8c0.3,0.5,0.4,1.1,0.4,1.6c0,0.5,0,1-0.2,1.4c-0.3,0.9-0.9,1.4-1.4,1.8
						c-0.5,0.3-1,0.4-1.3,0.4C936.6,631.5,936.4,631.4,936.4,631.4z"/>
				</g>
				<g>
					<g>
						<path class="st6" d="M1133.5,588.5c0,0.3-12.2,0.5-27.2,0.5c-15,0-27.2-0.2-27.2-0.5s12.2-0.5,27.2-0.5
							C1121.3,588.1,1133.5,588.3,1133.5,588.5z"/>
					</g>
					<g>
						<path class="st6" d="M1133.5,593.9c0,0.3-12.2,0.5-27.2,0.5c-15,0-27.2-0.2-27.2-0.5c0-0.3,12.2-0.5,27.2-0.5
							C1121.3,593.5,1133.5,593.7,1133.5,593.9z"/>
					</g>
					<g>
						<path class="st6" d="M1133.5,599.4c0,0.3-12.2,0.5-27.2,0.5c-15,0-27.2-0.2-27.2-0.5c0-0.3,12.2-0.5,27.2-0.5
							C1121.3,598.9,1133.5,599.1,1133.5,599.4z"/>
					</g>
					<g>
						<path class="st6" d="M1133.5,604.8c0,0.3-12.2,0.5-27.2,0.5c-15,0-27.2-0.2-27.2-0.5c0-0.3,12.2-0.5,27.2-0.5
							C1121.3,604.3,1133.5,604.5,1133.5,604.8z"/>
					</g>
					<g>
						<path class="st6" d="M1133.5,610.2c0,0.3-12.2,0.5-27.2,0.5c-15,0-27.2-0.2-27.2-0.5s12.2-0.5,27.2-0.5
							C1121.3,609.7,1133.5,609.9,1133.5,610.2z"/>
					</g>
					<g>
						<path class="st6" d="M1133.5,615.6c0,0.3-12.2,0.5-27.2,0.5c-15,0-27.2-0.2-27.2-0.5s12.2-0.5,27.2-0.5
							C1121.3,615.2,1133.5,615.4,1133.5,615.6z"/>
					</g>
					<g>
						<path class="st6" d="M1133.5,621c0,0.3-12.2,0.5-27.2,0.5c-15,0-27.2-0.2-27.2-0.5c0-0.3,12.2-0.5,27.2-0.5
							C1121.3,620.6,1133.5,620.8,1133.5,621z"/>
					</g>
				</g>
				<path class="st6" d="M824.3,749.8c-16.3,0-30.1-15.8-30.1-32.1s14.4-30.1,30.7-30.1l263.3-11.9c13.6-0.6,26.7,6.4,33,18.4
					c3.3,6.4,5.1,14.4,2.9,24.4c-6.9,31.8-33.4,31.4-43.7,30.7C1070.2,748.5,824.3,749.8,824.3,749.8z"/>
				<circle class="st7" cx="824.3" cy="717.4" r="24.6"/>
				<circle class="st7" cx="1086.5" cy="712.5" r="31.8"/>
				<g>
					<path class="st7" d="M1090.1,681.6c0,0-0.2,0.1-0.7,0.1c-0.5,0.1-1.2,0.1-2,0.2c-1.8,0.2-4.4,0.4-7.7,0.8
						c-6.7,0.7-16.4,1.5-28.5,2.5c-24.1,2-57.3,4.3-94.1,5.9c-36.8,1.6-70.2,2.3-94.3,2.4c-12.1,0.1-21.8,0.1-28.6,0
						c-3.3,0-5.9-0.1-7.8-0.1c-0.9,0-1.5,0-2,0c-0.5,0-0.7,0-0.7,0s0.2,0,0.7,0c0.5,0,1.2,0,2,0c1.8,0,4.4,0,7.8-0.1
						c6.8-0.1,16.6-0.2,28.6-0.3c24.1-0.3,57.5-1.1,94.3-2.7c36.8-1.6,70.1-3.8,94.1-5.6c12-0.9,21.7-1.7,28.5-2.2
						c3.3-0.3,5.9-0.5,7.7-0.6c0.9-0.1,1.5-0.1,2-0.1C1089.9,681.6,1090.1,681.6,1090.1,681.6z"/>
				</g>
				<g>
					<path class="st7" d="M1080,741.2c0,0.3-57.2,0.5-127.9,0.5c-70.6,0-127.9-0.2-127.9-0.5c0-0.3,57.2-0.5,127.9-0.5
						C1022.7,740.8,1080,741,1080,741.2z"/>
				</g>
				<g>
					<path class="st8" d="M868.1,651.8c-0.1,0-0.7-2.4-1.8-6.2c-1.1-3.8-2.6-9.1-4.2-15c-1.6-5.9-2.8-11.3-3.3-15.3
						c-0.2-2-0.3-3.6-0.3-4.7c0.1-1.1,0.2-1.7,0.2-1.7c0.2,0,0,2.5,0.7,6.4c0.7,3.9,1.9,9.2,3.5,15.1c1.6,5.9,3,11.2,3.9,15.1
						c0.5,1.9,0.8,3.5,1,4.6C868.1,651.1,868.2,651.8,868.1,651.8z"/>
				</g>
				<g>
					<path class="st10" d="M1069,732.1c0,0-0.7-0.3-1.8-1.2c-1.1-0.9-2.6-2.3-4.1-4.3c-1.5-2-2.9-4.7-3.8-8c-0.9-3.2-1.2-7-0.5-10.8
						c0.8-3.8,2.5-7.2,4.5-9.9c2-2.7,4.4-4.6,6.5-6c2.2-1.3,4.1-2.1,5.4-2.5c1.4-0.4,2.1-0.5,2.1-0.4c0.1,0.2-3.1,0.7-7.2,3.4
						c-2.1,1.4-4.3,3.3-6.2,5.9c-1.9,2.6-3.5,5.9-4.3,9.5c-0.7,3.7-0.4,7.3,0.4,10.4c0.8,3.1,2.2,5.8,3.5,7.8
						C1066.4,730.3,1069.2,731.9,1069,732.1z"/>
				</g>
				<g>
					<g>
						<path class="st14" d="M930.8,582.6c0.1,0.2-6,4.9-13.7,10.5c-7.7,5.6-14,9.9-14.2,9.7c-0.1-0.2,6-4.9,13.7-10.5
							C924.3,586.8,930.7,582.4,930.8,582.6z"/>
					</g>
					<g>
						<path class="st14" d="M932.9,575.2c0.1,0.2-5.2,4.2-11.9,8.9c-6.7,4.7-12.3,8.3-12.4,8.1c-0.1-0.2,5.2-4.2,11.9-8.9
							C927.2,578.6,932.8,575,932.9,575.2z"/>
					</g>
					<g>
						<path class="st14" d="M881.7,586.7c0.1,0.2-2.6,2.3-6,4.8c-3.5,2.4-6.4,4.2-6.6,4c-0.1-0.2,2.6-2.3,6-4.8
							C878.6,588.3,881.5,586.5,881.7,586.7z"/>
					</g>
					<g>
						<path class="st14" d="M885.2,579.7c0.2,0.2-2.9,2.9-6.9,5.9c-4,3.1-7.3,5.4-7.5,5.2c-0.2-0.2,2.9-2.9,6.9-5.9
							C881.7,581.9,885,579.5,885.2,579.7z"/>
					</g>
					<g>
						<path class="st8" d="M940.1,622.2c0,0.3-4.4,0.5-9.8,0.5c-5.4,0-9.8-0.2-9.8-0.5s4.4-0.5,9.8-0.5
							C935.7,621.8,940.1,622,940.1,622.2z"/>
					</g>
				</g>
				<g>
					<path class="st10" d="M819.4,738.3c0,0-0.8-0.1-2.1-0.5c-1.4-0.4-3.3-1.2-5.4-2.6c-2.1-1.4-4.4-3.5-6.2-6.4
						c-1.9-2.8-3.3-6.4-3.6-10.3c-0.2-3.9,0.6-7.6,2.1-10.7c1.4-3.1,3.4-5.5,5.3-7.2c1.9-1.7,3.7-2.8,4.9-3.4c1.3-0.6,2-0.8,2.1-0.8
						c0.1,0.2-3,1.1-6.6,4.6c-1.8,1.7-3.6,4.1-4.9,7.1c-1.4,3-2.2,6.5-1.9,10.3c0.3,3.7,1.6,7.2,3.4,9.9c1.8,2.7,3.9,4.8,5.9,6.3
						C816.3,737.6,819.5,738.1,819.4,738.3z"/>
				</g>
				<g>
					<path class="st14" d="M856.7,641.3c0,0.3-9.5,0.5-21.2,0.5c-11.7,0-21.2-0.2-21.2-0.5s9.5-0.5,21.2-0.5
						C847.2,640.8,856.7,641,856.7,641.3z"/>
				</g>
			</g>
		</g>
		<path class="st8" d="M665.8,123.4l-15.9-34.2c-4.9-10.6-17.5-15.2-28.1-10.2h0c-10.6,4.9-15.2,17.5-10.2,28.1l15.9,34.2
			c0.3,0.6,1.1,0.9,1.7,0.6l36-16.8C665.8,124.8,666.1,124,665.8,123.4z"/>
	</g>
</g>
<g id="Fence">
	<g>
		<g>
			<g>
				<g>
					<rect x="45.7" y="583.9" class="st3" width="9" height="165.2"/>
				</g>
				<path class="st8" d="M59.3,578.3c0,5-4.1,9.1-9.1,9.1s-9.1-4.1-9.1-9.1c0-5,4.1-9.1,9.1-9.1S59.3,573.3,59.3,578.3z"/>
			</g>
			<g>
				<g>
					<rect x="224.3" y="583.9" class="st3" width="9" height="165.2"/>
				</g>
				<path class="st8" d="M237.8,578.3c0,5-4.1,9.1-9.1,9.1c-5,0-9.1-4.1-9.1-9.1c0-5,4.1-9.1,9.1-9.1
					C233.8,569.2,237.8,573.3,237.8,578.3z"/>
			</g>
			<g>
				<rect x="20.1" y="599.9" class="st8" width="230.2" height="41.2"/>
				<polygon class="st2" points="46.1,599.9 45.7,600.6 22.1,641.1 20.1,641.1 20.1,599.9 				"/>
				<polygon class="st2" points="104.3,599.9 80.2,641.1 48.8,641.1 58.3,624.7 72.8,599.9 				"/>
				<polygon class="st2" points="162.5,599.9 138.4,641.1 106.9,641.1 131,599.9 				"/>
				<polygon class="st2" points="220.6,599.9 196.5,641.1 165.1,641.1 189.2,599.9 				"/>
				<polygon class="st2" points="250.2,599.9 250.2,641.1 223.2,641.1 247.3,599.9 				"/>
			</g>
			<g>
				<rect x="20.1" y="663.5" class="st8" width="230.2" height="41.2"/>
				<polygon class="st2" points="46.1,663.5 45.7,664.2 22.1,704.7 20.1,704.7 20.1,663.5 				"/>
				<polygon class="st2" points="104.3,663.5 80.2,704.7 48.8,704.7 58.3,688.3 72.8,663.5 				"/>
				<polygon class="st2" points="162.5,663.5 138.4,704.7 106.9,704.7 131,663.5 				"/>
				<polygon class="st2" points="220.6,663.5 196.5,704.7 165.1,704.7 189.2,663.5 				"/>
				<polygon class="st2" points="250.2,663.5 250.2,704.7 223.2,704.7 247.3,663.5 				"/>
			</g>
		</g>
		<g>
			<path class="st6" d="M250.2,641.1c0,0,0-0.2,0-0.7c0-0.5,0-1.2,0-2.1c0-1.8,0-4.5-0.1-8c0-7-0.1-17.3-0.1-30.4l0.2,0.2
				c-47.2,0-132.7,0.1-230.2,0.2h0l0.5-0.5c0,14.1,0,28,0,41.2l-0.4-0.4c65.2,0.1,122.6,0.1,163.9,0.2c20.6,0.1,37.2,0.1,48.6,0.1
				c5.7,0,10.1,0,13.1,0.1c1.5,0,2.6,0,3.4,0C249.8,641,250.2,641.1,250.2,641.1s-0.4,0-1.1,0c-0.8,0-1.9,0-3.4,0c-3,0-7.4,0-13,0.1
				c-11.4,0-27.9,0.1-48.5,0.1c-41.3,0-98.9,0.1-164.2,0.2l-0.4,0l0-0.5c0-13.2,0-27.1,0-41.2v-0.5h0.5h0
				c97.5,0.1,183,0.2,230.2,0.2l0.2,0l0,0.2c-0.1,13.2-0.1,23.5-0.1,30.5c0,3.5,0,6.1-0.1,7.9c0,0.9,0,1.5,0,2
				C250.3,640.8,250.2,641.1,250.2,641.1z"/>
		</g>
		<g>
			<path class="st6" d="M250.2,704.7c0,0,0-0.2,0-0.7c0-0.5,0-1.2,0-2.1c0-1.8,0-4.5-0.1-8c0-7-0.1-17.3-0.1-30.4l0.2,0.2
				c-47.2,0-132.7,0.1-230.2,0.2h0l0.5-0.5c0,14.1,0,28,0,41.2l-0.4-0.4c65.2,0.1,122.6,0.1,163.9,0.2c20.6,0.1,37.2,0.1,48.6,0.1
				c5.7,0,10.1,0,13.1,0.1c1.5,0,2.6,0,3.4,0C249.8,704.7,250.2,704.7,250.2,704.7s-0.4,0-1.1,0c-0.8,0-1.9,0-3.4,0
				c-3,0-7.4,0-13,0.1c-11.4,0-27.9,0.1-48.5,0.1c-41.3,0-98.9,0.1-164.2,0.2l-0.4,0l0-0.5c0-13.2,0-27.1,0-41.2V663h0.5h0
				c97.5,0.1,183,0.2,230.2,0.2l0.2,0l0,0.2c-0.1,13.2-0.1,23.5-0.1,30.5c0,3.5,0,6.1-0.1,8c0,0.9,0,1.5,0,2
				C250.3,704.5,250.2,704.7,250.2,704.7z"/>
		</g>
	</g>
</g>
<g id="Floor">
	<g>
		<path class="st6" d="M1141.7,749.8c0,0.3-254.2,0.5-567.6,0.5c-313.6,0-567.7-0.2-567.7-0.5s254.1-0.5,567.7-0.5
			C887.5,749.3,1141.7,749.5,1141.7,749.8z"/>
	</g>
</g>
</svg>
