<svg xmlns="http://www.w3.org/2000/svg" viewBox="0 0 522.62 400.43"><path d="M349.22,201.8c-53.33,9.09-106.34,10.55-159.36.16-.16.22-.45.43-.45.65,0,16.79-11.11,22.38-23.57,23.85-7,.83-14.23.37-21.33,0-5.89-.32-9.36-4-11.12-9.72-6.37-20.78-11.78-41.79-13.86-63.5-1.76-18.36-1.88-36.65,5.27-54.15a42.35,42.35,0,0,1,2.66-5.51c4.27-7.2,14.41-8,19.08-1.15,15,21.92,36.58,33.87,60.8,41.61,28,9,56.83,10.31,85.93,7.66,23.44-2.14,45.86-7.88,66.51-19.66,12.82-7.32,24.15-16.37,32.52-28.94,5.1-7.66,14.92-7.18,19.73.84,5.79,9.65,8.42,20.36,9.49,31.48,3.16,32.73-5.34,63.41-16.36,93.6-1.56,4.26-5,7.32-9.47,7.3-9.92,0-20,.17-29.69-1.55C353.64,222.54,348.71,214.87,349.22,201.8ZM169.73,136.15c.73,1.57,1.27,2.93,2,4.2,10.31,18.94,25.67,32.14,45.15,40.45,21.77,9.27,44.56,11,67.76,8.38,32.17-3.69,58.66-18,78.41-44.41,3-4,5.43-8.49,8.12-12.75C304.57,173.38,238,181,169.73,136.15Z" transform="translate(-9.78 -11.34)" fill="#ff0c01"/><path d="M377.09,78.21a1558.09,1558.09,0,0,0-215.53,0c4.14-10.77,8.09-20.88,11.92-31,2.64-7,4.84-14.14,10.35-19.69,7.78-7.83,17.33-11.63,27.85-12.42,20.14-1.52,40.32-3.33,60.48-3.22a509.63,509.63,0,0,1,59.18,4.07c15.76,1.94,27,10.88,32.27,27.09C367.36,54.65,372.32,65.89,377.09,78.21Z" transform="translate(-9.78 -11.34)" fill="#ff0c01" stroke="#ff0c01" stroke-miterlimit="10"/><path d="M158.58,60c0,11-8.19,19.51-18.69,19.43-10.31-.08-18.32-8.8-18.3-19.92,0-10.9,8.46-19.89,18.59-19.8C150.63,39.83,158.61,48.63,158.58,60Z" transform="translate(-9.78 -11.34)" fill="#ff0c01"/><path d="M417.74,59.67c0,11.08-8.08,19.75-18.43,19.79-10.51,0-18.8-8.8-18.73-20,.07-10.77,8.68-19.86,18.71-19.76C409.51,39.84,417.75,48.73,417.74,59.67Z" transform="translate(-9.78 -11.34)" fill="#ff0c01"/><path d="M45.1,268.35A49.21,49.21,0,0,1,58.46,270a21.7,21.7,0,0,1,8.86,4.53,9.2,9.2,0,0,1,3.16,7,8.89,8.89,0,0,1-1.61,5.08,5.34,5.34,0,0,1-4.7,2.37,8.93,8.93,0,0,1-3.56-.61,9.29,9.29,0,0,1-2.49-1.56A13.74,13.74,0,0,0,55.57,285a12.31,12.31,0,0,0-4.09-1.28,26.56,26.56,0,0,0-4.1-.48,21.53,21.53,0,0,0-11.61,3,19.82,19.82,0,0,0-7.32,8.05A25.77,25.77,0,0,0,25.9,306a24.93,24.93,0,0,0,2.61,11.57,20.66,20.66,0,0,0,7.26,8.06,19.3,19.3,0,0,0,10.67,3,35.69,35.69,0,0,0,5.78-.4,14.16,14.16,0,0,0,4-1.22,24.39,24.39,0,0,0,3.36-2.3A6.85,6.85,0,0,1,64,323.43a6.61,6.61,0,0,1,5.37,2.23,8.2,8.2,0,0,1,1.88,5.48q0,3.39-3.76,6.16a30,30,0,0,1-9.87,4.47,49.29,49.29,0,0,1-13.22,1.69A33.55,33.55,0,0,1,26,338.52a32.9,32.9,0,0,1-12-13.47A42.32,42.32,0,0,1,9.78,306a41,41,0,0,1,4.5-19.56,33.59,33.59,0,0,1,12.49-13.26A34.86,34.86,0,0,1,45.1,268.35Z" transform="translate(-9.78 -11.34)"/><path d="M141.78,268.35a7.75,7.75,0,0,1,5.77,2.3,8.06,8.06,0,0,1,2.29,6v57.25a8.12,8.12,0,0,1-2.29,5.89,8.21,8.21,0,0,1-11.54,0,8.12,8.12,0,0,1-2.29-5.89v-6.63l3,1.22a7.68,7.68,0,0,1-1.88,4.26,25.74,25.74,0,0,1-5.11,4.94,30.87,30.87,0,0,1-7.58,4.13,26,26,0,0,1-9.47,1.69,30.51,30.51,0,0,1-16.78-4.8A33.73,33.73,0,0,1,84,325.39a45.74,45.74,0,0,1,0-39,34.22,34.22,0,0,1,11.75-13.26,29.41,29.41,0,0,1,16.38-4.8,30.64,30.64,0,0,1,10.61,1.76,31.64,31.64,0,0,1,8.39,4.46,25.5,25.5,0,0,1,5.51,5.48,8.76,8.76,0,0,1,1.95,4.67l-4.84,1.76V276.6a8.14,8.14,0,0,1,2.29-5.89A7.69,7.69,0,0,1,141.78,268.35Zm-27.13,60.22a18.12,18.12,0,0,0,10.34-3,20.08,20.08,0,0,0,6.92-8.12A26.08,26.08,0,0,0,134.39,306a26.38,26.38,0,0,0-2.48-11.64,20.08,20.08,0,0,0-6.92-8.12,18.13,18.13,0,0,0-10.34-3,17.88,17.88,0,0,0-10.2,3,20.16,20.16,0,0,0-6.92,8.12A26.52,26.52,0,0,0,95.05,306a26.22,26.22,0,0,0,2.48,11.51,20.16,20.16,0,0,0,6.92,8.12A17.87,17.87,0,0,0,114.65,328.57Z" transform="translate(-9.78 -11.34)"/><path d="M175.35,342.11a7.66,7.66,0,0,1-5.77-2.37,8.12,8.12,0,0,1-2.29-5.89V278a8.12,8.12,0,0,1,2.29-5.89,8.21,8.21,0,0,1,11.54,0,8.17,8.17,0,0,1,2.29,5.89v12.72l-.94-9.07a21,21,0,0,1,3.82-5.75,22.87,22.87,0,0,1,5.31-4.2,23.82,23.82,0,0,1,6.31-2.5,28.5,28.5,0,0,1,6.71-.81,10.16,10.16,0,0,1,6.78,2.3,6.87,6.87,0,0,1,2.76,5.41q0,4.47-2.29,6.43a7.44,7.44,0,0,1-5,2,10.94,10.94,0,0,1-4.64-.95,11.39,11.39,0,0,0-4.76-.94,11.57,11.57,0,0,0-4.91,1.15,13.64,13.64,0,0,0-4.56,3.58,19,19,0,0,0-3.36,6,25.28,25.28,0,0,0-1.27,8.46v32.07a8.17,8.17,0,0,1-2.29,5.89A7.66,7.66,0,0,1,175.35,342.11Z" transform="translate(-9.78 -11.34)"/><path d="M256.46,343.46q-11.41,0-19.81-4.8a33.09,33.09,0,0,1-12.89-13.06,38.4,38.4,0,0,1-4.5-18.68q0-12.18,4.9-20.78A34.78,34.78,0,0,1,237,273a32.85,32.85,0,0,1,16.78-4.6,30.29,30.29,0,0,1,13,2.84A35.52,35.52,0,0,1,277.54,279,37.93,37.93,0,0,1,285,290.41a34.91,34.91,0,0,1,2.75,13.8,7,7,0,0,1-2.55,5.28,8.51,8.51,0,0,1-5.64,2H228.26l-4-13.53h49.28l-2.95,2.7V297a12.4,12.4,0,0,0-2.76-7,18,18,0,0,0-6.17-4.94,17.52,17.52,0,0,0-7.86-1.83,25.31,25.31,0,0,0-7.52,1.09,14.37,14.37,0,0,0-6,3.65,17.8,17.8,0,0,0-4,6.9,34.37,34.37,0,0,0-1.48,11,23.83,23.83,0,0,0,3,12.38,20.63,20.63,0,0,0,17.93,10.35,31,31,0,0,0,7.92-.81,17.63,17.63,0,0,0,4.77-2c1.21-.77,2.3-1.42,3.29-2a10.07,10.07,0,0,1,4.57-1.22,6.5,6.5,0,0,1,4.9,2,6.65,6.65,0,0,1,1.94,4.74q0,3.64-3.76,6.63a31.18,31.18,0,0,1-9.8,5.21A38.74,38.74,0,0,1,256.46,343.46Z" transform="translate(-9.78 -11.34)"/><path d="M361.2,268.35a7.77,7.77,0,0,1,5.77,2.3,8.09,8.09,0,0,1,2.28,6v57.25a8.16,8.16,0,0,1-2.28,5.89,8.22,8.22,0,0,1-11.55,0,8.16,8.16,0,0,1-2.28-5.89v-6.63l2.95,1.22a7.6,7.6,0,0,1-1.88,4.26,25.4,25.4,0,0,1-5.1,4.94,31.12,31.12,0,0,1-7.59,4.13,25.9,25.9,0,0,1-9.46,1.69,30.55,30.55,0,0,1-16.79-4.8,33.78,33.78,0,0,1-11.88-13.27,45.65,45.65,0,0,1,0-39,34.14,34.14,0,0,1,11.75-13.26,29.41,29.41,0,0,1,16.38-4.8,30.68,30.68,0,0,1,10.61,1.76,31.64,31.64,0,0,1,8.39,4.46,25.73,25.73,0,0,1,5.51,5.48,8.81,8.81,0,0,1,1.94,4.67l-4.83,1.76V276.6a8.17,8.17,0,0,1,2.28-5.89A7.71,7.71,0,0,1,361.2,268.35Zm-27.13,60.22a18.12,18.12,0,0,0,10.34-3,20.16,20.16,0,0,0,6.92-8.12A26.22,26.22,0,0,0,353.81,306a26.52,26.52,0,0,0-2.48-11.64,20.16,20.16,0,0,0-6.92-8.12,18.13,18.13,0,0,0-10.34-3,17.88,17.88,0,0,0-10.2,3,20,20,0,0,0-6.92,8.12A26.38,26.38,0,0,0,314.47,306,26.08,26.08,0,0,0,317,317.48a20,20,0,0,0,6.92,8.12A17.87,17.87,0,0,0,334.07,328.57Z" transform="translate(-9.78 -11.34)"/><path d="M445.52,242a7.8,7.8,0,0,1,5.78,2.31,8.07,8.07,0,0,1,2.28,6v83.64a8.16,8.16,0,0,1-2.28,5.89,8.22,8.22,0,0,1-11.55,0,8.16,8.16,0,0,1-2.28-5.89v-6.63l2.95,1.22a7.68,7.68,0,0,1-1.88,4.26,25.4,25.4,0,0,1-5.1,4.94,31.12,31.12,0,0,1-7.59,4.13,25.91,25.91,0,0,1-9.47,1.69,30.54,30.54,0,0,1-16.78-4.8,33.63,33.63,0,0,1-11.88-13.27,45.65,45.65,0,0,1,0-39,34.06,34.06,0,0,1,11.75-13.26,29.41,29.41,0,0,1,16.38-4.8,30.68,30.68,0,0,1,10.61,1.76,31.64,31.64,0,0,1,8.39,4.46,25.44,25.44,0,0,1,5.5,5.48,8.76,8.76,0,0,1,1.95,4.67l-4.83,1.76V250.21a8.17,8.17,0,0,1,2.28-5.89A7.7,7.7,0,0,1,445.52,242ZM418.4,328.57a18.14,18.14,0,0,0,10.34-3,20.06,20.06,0,0,0,6.91-8.12A26.09,26.09,0,0,0,438.14,306a26.38,26.38,0,0,0-2.49-11.64,20.06,20.06,0,0,0-6.91-8.12,18.15,18.15,0,0,0-10.34-3,17.93,17.93,0,0,0-10.21,3,20.06,20.06,0,0,0-6.91,8.12A26.38,26.38,0,0,0,398.79,306a26.09,26.09,0,0,0,2.49,11.51,20.06,20.06,0,0,0,6.91,8.12A17.93,17.93,0,0,0,418.4,328.57Z" transform="translate(-9.78 -11.34)"/><path d="M524.35,269.7a7.68,7.68,0,0,1,5.77,2.37A8.16,8.16,0,0,1,532.4,278v57.52q0,12.45-4.63,19.82a26.43,26.43,0,0,1-12.42,10.63,45,45,0,0,1-17.46,3.25,66.22,66.22,0,0,1-9.13-.68,30.65,30.65,0,0,1-7.92-2,11.44,11.44,0,0,1-5.57-4.4,6.67,6.67,0,0,1-.61-5.62c.81-2.61,2.1-4.4,3.9-5.34a6.66,6.66,0,0,1,5.64-.34q2.15.68,5.64,2.1a21.34,21.34,0,0,0,8.05,1.42,27.28,27.28,0,0,0,10.28-1.69,11.93,11.93,0,0,0,6.17-5.69q2.08-4,2.08-10.89V327l2.82,3.25a23.71,23.71,0,0,1-5.7,7.37,23.19,23.19,0,0,1-8.13,4.4,35.6,35.6,0,0,1-10.74,1.49,22.92,22.92,0,0,1-12.42-3.32,22.36,22.36,0,0,1-8.26-9.2A29.58,29.58,0,0,1,471,317.48V278a8.16,8.16,0,0,1,2.28-5.89,8.22,8.22,0,0,1,11.55,0,8.16,8.16,0,0,1,2.28,5.89V312.6q0,8.81,3.83,12.39t10.67,3.58a16,16,0,0,0,7.93-1.82,12.17,12.17,0,0,0,5-5.42,19.72,19.72,0,0,0,1.75-8.73V278a8.16,8.16,0,0,1,2.28-5.89A7.68,7.68,0,0,1,524.35,269.7Z" transform="translate(-9.78 -11.34)"/><path d="M187.74,383.11l-9.93,26.32a3.15,3.15,0,0,1-1,1.53,2.28,2.28,0,0,1-1.45.55,2.17,2.17,0,0,1-1.84-.78,3.06,3.06,0,0,1-.6-1.92,3.86,3.86,0,0,1,.14-1l11.44-31a3.37,3.37,0,0,1,1.13-1.61,2.19,2.19,0,0,1,1.63-.46,2.51,2.51,0,0,1,1.54.54,3,3,0,0,1,1,1.53l11.3,30.36a3.74,3.74,0,0,1,.23,1.25,3.11,3.11,0,0,1-.8,2.23,2.45,2.45,0,0,1-1.77.83,2.23,2.23,0,0,1-1.49-.57,3.69,3.69,0,0,1-1-1.56l-9.87-26Zm-8.5,20,2.52-6h12.41l.87,6Z" transform="translate(-9.78 -11.34)"/><path d="M227.66,374.92a2.35,2.35,0,0,1,1.93.91,3.44,3.44,0,0,1,.74,2.25v18.76a17.15,17.15,0,0,1-1.63,7.62,12.76,12.76,0,0,1-4.48,5.18,12.69,12.69,0,0,1-13.26,0,12.73,12.73,0,0,1-4.5-5.18,17,17,0,0,1-1.63-7.62V378.08a3.16,3.16,0,0,1,.83-2.25,2.7,2.7,0,0,1,2.11-.91,2.57,2.57,0,0,1,1.91.91,3.18,3.18,0,0,1,.85,2.25v18.76a9.52,9.52,0,0,0,1,4.48,7.56,7.56,0,0,0,2.62,2.93,6.39,6.39,0,0,0,3.47,1,7,7,0,0,0,3.68-1,7.78,7.78,0,0,0,2.75-2.93,9,9,0,0,0,1.06-4.48V378.08a3.59,3.59,0,0,1,.69-2.25A2.23,2.23,0,0,1,227.66,374.92Z" transform="translate(-9.78 -11.34)"/><path d="M259.73,376.73a2.72,2.72,0,0,1,1.4,2.13,3.47,3.47,0,0,1-.66,2.64,2.07,2.07,0,0,1-1.54,1,3.2,3.2,0,0,1-1.91-.42,11,11,0,0,0-2.32-.88,10.6,10.6,0,0,0-2.55-.31,10.78,10.78,0,0,0-4.43.88,9.37,9.37,0,0,0-3.33,2.52,11,11,0,0,0-2.09,3.86,15.89,15.89,0,0,0-.72,4.92,16.71,16.71,0,0,0,.81,5.49,10.86,10.86,0,0,0,2.23,3.89A8.89,8.89,0,0,0,248,404.8a11.45,11.45,0,0,0,4.18.75,12.22,12.22,0,0,0,2.48-.26,8,8,0,0,0,2.39-.94,3,3,0,0,1,1.91-.36,2.4,2.4,0,0,1,1.58,1.09,3.38,3.38,0,0,1,.67,2.67,2.71,2.71,0,0,1-1.4,2,15,15,0,0,1-2.46,1.12,16.52,16.52,0,0,1-2.55.67,14.27,14.27,0,0,1-2.62.24,16.58,16.58,0,0,1-6.27-1.2,15.48,15.48,0,0,1-5.28-3.52,16.47,16.47,0,0,1-3.66-5.83,22.64,22.64,0,0,1-1.33-8.11,21.57,21.57,0,0,1,1.22-7.36,17.48,17.48,0,0,1,3.44-5.83,15.81,15.81,0,0,1,11.88-5.21,15.2,15.2,0,0,1,7.58,2Z" transform="translate(-9.78 -11.34)"/><path d="M266.76,380.93a2.66,2.66,0,0,1-2-.83,3,3,0,0,1-.8-2.17,2.91,2.91,0,0,1,.8-2.15,2.72,2.72,0,0,1,2-.81h20.4a2.69,2.69,0,0,1,2,.83A3,3,0,0,1,290,378a2.93,2.93,0,0,1-.8,2.15,2.74,2.74,0,0,1-2,.8Zm10.16,30.32a2.73,2.73,0,0,1-2.12-.91,3.22,3.22,0,0,1-.82-2.25V378h6v30.06a3.15,3.15,0,0,1-.85,2.25A2.85,2.85,0,0,1,276.92,411.25Z" transform="translate(-9.78 -11.34)"/><path d="M300.53,408.09a3.12,3.12,0,0,1-.87,2.25,2.71,2.71,0,0,1-2,.91,2.58,2.58,0,0,1-2.07-.91,3.33,3.33,0,0,1-.78-2.25v-30a3.22,3.22,0,0,1,.82-2.25,2.77,2.77,0,0,1,2.12-.91,2.64,2.64,0,0,1,1.95.91,3.15,3.15,0,0,1,.85,2.25Z" transform="translate(-9.78 -11.34)"/><path d="M337,393.11a22.17,22.17,0,0,1-1.15,7.25,18.75,18.75,0,0,1-3.24,5.94,15,15,0,0,1-5,4,14.15,14.15,0,0,1-12.52,0,15.2,15.2,0,0,1-4.94-4,19.15,19.15,0,0,1-3.24-5.94,23.43,23.43,0,0,1,0-14.5,19.15,19.15,0,0,1,3.24-5.94,15.2,15.2,0,0,1,4.94-4,14.15,14.15,0,0,1,12.52,0,15,15,0,0,1,5,4,18.75,18.75,0,0,1,3.24,5.94A22.17,22.17,0,0,1,337,393.11Zm-6,0a15.5,15.5,0,0,0-1.24-6.3,11.25,11.25,0,0,0-3.4-4.48,8.39,8.39,0,0,0-10,0,11,11,0,0,0-3.37,4.46,16.93,16.93,0,0,0,0,12.62,11,11,0,0,0,3.37,4.48,8.39,8.39,0,0,0,10,0,11.25,11.25,0,0,0,3.4-4.48A15.5,15.5,0,0,0,331,393.11Z" transform="translate(-9.78 -11.34)"/><path d="M366.69,375a2.22,2.22,0,0,1,1.79.83,3.15,3.15,0,0,1,.69,2.07v30.22a3.3,3.3,0,0,1-.8,2.25,2.55,2.55,0,0,1-2,.91,3.35,3.35,0,0,1-1.22-.24,2.07,2.07,0,0,1-.94-.64l-18.06-25.86,1.2-.83v24.66a3.1,3.1,0,0,1-.71,2.08,2.36,2.36,0,0,1-1.87.83,2.23,2.23,0,0,1-1.79-.83,3.14,3.14,0,0,1-.69-2.08V378.13a3.26,3.26,0,0,1,.81-2.25,2.57,2.57,0,0,1,2-.91,3.51,3.51,0,0,1,1.33.29,2,2,0,0,1,1,.85l17.5,25.19-.78.62V377.87a3.15,3.15,0,0,1,.69-2.07A2.28,2.28,0,0,1,366.69,375Z" transform="translate(-9.78 -11.34)"/></svg>
