<svg id="Layer_1" data-name="Layer 1" xmlns="http://www.w3.org/2000/svg" viewBox="0 0 1288.92 389.19"><defs><style>.cls-1{isolation:isolate;}</style></defs><g class="cls-1"><path d="M153,97.74q18.87,0,33,4t21.86,11.19a22.59,22.59,0,0,1,7.78,17.19,21.82,21.82,0,0,1-4,12.51q-4,5.85-11.59,5.84a22.24,22.24,0,0,1-8.77-1.5,22.73,22.73,0,0,1-6.13-3.84,36,36,0,0,0-6.29-4.34q-3.32-2-10.1-3.17a67.29,67.29,0,0,0-10.1-1.17q-16.89,0-28.65,7.35a48.69,48.69,0,0,0-18.05,19.86q-6.3,12.51-6.29,28.87,0,16,6.46,28.54a50.73,50.73,0,0,0,17.88,19.86,47.67,47.67,0,0,0,26.33,7.34,87.2,87.2,0,0,0,14.24-1,35,35,0,0,0,9.93-3,59.71,59.71,0,0,0,8.28-5.67q3.64-3,10.93-3,8.61,0,13.25,5.5a20.3,20.3,0,0,1,4.63,13.52q0,8.36-9.27,15.19t-24.34,11A122,122,0,0,1,151.29,283q-26.16,0-45.37-12.19a81.12,81.12,0,0,1-29.64-33.21q-10.44-21-10.43-47.06,0-27.36,11.09-48.23a82.63,82.63,0,0,1,30.8-32.71Q127.44,97.74,153,97.74Z" transform="translate(-65.85 -32.65)"/><path d="M391.39,97.74a19.24,19.24,0,0,1,14.24,5.67q5.63,5.69,5.63,14.69V259.29a20.1,20.1,0,0,1-5.63,14.52,20.28,20.28,0,0,1-28.48,0,20.06,20.06,0,0,1-5.63-14.52V242.93l7.28,3q0,4.34-4.63,10.51a63.34,63.34,0,0,1-12.59,12.18,76.87,76.87,0,0,1-18.71,10.18A64.11,64.11,0,0,1,319.52,283a75.25,75.25,0,0,1-41.39-11.85q-18.56-11.85-29.31-32.71t-10.77-47.9q0-27.36,10.77-48.23t29-32.71a72.5,72.5,0,0,1,40.4-11.85,76.05,76.05,0,0,1,26.16,4.34,77.87,77.87,0,0,1,20.7,11,63.36,63.36,0,0,1,13.58,13.52q4.8,6.84,4.8,11.52l-11.92,4.33V118.1a20.09,20.09,0,0,1,5.63-14.52A18.93,18.93,0,0,1,391.39,97.74Zm-66.9,148.53q14.56,0,25.5-7.34a49.44,49.44,0,0,0,17.06-20,64.41,64.41,0,0,0,6.12-28.37,65.27,65.27,0,0,0-6.12-28.71,49.48,49.48,0,0,0-17.06-20q-10.92-7.34-25.5-7.35a44.13,44.13,0,0,0-25.17,7.35,49.46,49.46,0,0,0-17.05,20,65.13,65.13,0,0,0-6.13,28.71,64.28,64.28,0,0,0,6.13,28.37,49.42,49.42,0,0,0,17.05,20A44.13,44.13,0,0,0,324.49,246.27Z" transform="translate(-65.85 -32.65)"/><path d="M474.18,279.65a19,19,0,0,1-14.24-5.84,20.06,20.06,0,0,1-5.63-14.52V121.44a20.06,20.06,0,0,1,5.63-14.52,20.28,20.28,0,0,1,28.48,0,20.1,20.1,0,0,1,5.63,14.52v31.37l-2.32-22.36a52,52,0,0,1,9.44-14.19,56,56,0,0,1,13.08-10.34,59.15,59.15,0,0,1,15.57-6.18,70.34,70.34,0,0,1,16.55-2q9.95,0,16.73,5.67t6.79,13.35q0,11-5.63,15.86A18.43,18.43,0,0,1,552,137.46a27.21,27.21,0,0,1-11.42-2.34,28.24,28.24,0,0,0-11.76-2.33,28.66,28.66,0,0,0-12.09,2.83,33.51,33.51,0,0,0-11.26,8.85,46.77,46.77,0,0,0-8.28,14.85,62.25,62.25,0,0,0-3.14,20.86v79.11a20.1,20.1,0,0,1-5.63,14.52A19,19,0,0,1,474.18,279.65Z" transform="translate(-65.85 -32.65)"/><path d="M674.21,283q-28.15,0-48.85-11.85a81.49,81.49,0,0,1-31.79-32.21q-11.1-20.35-11.1-46.06,0-30,12.09-51.24t31.63-32.54a81.07,81.07,0,0,1,41.39-11.35,74.9,74.9,0,0,1,32,7,87.33,87.33,0,0,1,26.66,19.19,93.29,93.29,0,0,1,18.38,28.2,86.32,86.32,0,0,1,6.79,34.05,17.21,17.21,0,0,1-6.29,13,21,21,0,0,1-13.91,5H604.66l-9.93-33.37H716.27L709,177.51v-9a30.62,30.62,0,0,0-6.79-17.36A44.39,44.39,0,0,0,687,139a43.2,43.2,0,0,0-19.38-4.51A62.61,62.61,0,0,0,649,137.12a35.53,35.53,0,0,0-14.9,9q-6.3,6.35-9.94,17t-3.64,27q0,18,7.45,30.54a50.87,50.87,0,0,0,44.21,25.53q12.25,0,19.54-2a44.05,44.05,0,0,0,11.76-4.84q4.47-2.84,8.11-4.84a25.06,25.06,0,0,1,11.26-3,16.05,16.05,0,0,1,12.09,5,16.35,16.35,0,0,1,4.8,11.68q0,9-9.27,16.36-8.62,7.33-24.18,12.85A95.64,95.64,0,0,1,674.21,283Z" transform="translate(-65.85 -32.65)"/><path d="M932.52,97.74a19.22,19.22,0,0,1,14.24,5.67q5.64,5.69,5.63,14.69V259.29a20.06,20.06,0,0,1-5.63,14.52,20.28,20.28,0,0,1-28.48,0,20.06,20.06,0,0,1-5.63-14.52V242.93l7.29,3q0,4.34-4.64,10.51a63,63,0,0,1-12.58,12.18A76.87,76.87,0,0,1,884,278.81,64.11,64.11,0,0,1,860.66,283a75.26,75.26,0,0,1-41.4-11.85Q800.71,259.29,790,238.43t-10.76-47.9q0-27.36,10.76-48.23t29-32.71a72.52,72.52,0,0,1,40.4-11.85,76.11,76.11,0,0,1,26.17,4.34,78,78,0,0,1,20.69,11,63.13,63.13,0,0,1,13.58,13.52q4.8,6.84,4.8,11.52l-11.92,4.33V118.1a20.09,20.09,0,0,1,5.63-14.52A19,19,0,0,1,932.52,97.74ZM865.63,246.27q14.57,0,25.5-7.34a49.5,49.5,0,0,0,17-20,64.42,64.42,0,0,0,6.13-28.37,65.27,65.27,0,0,0-6.13-28.71,49.53,49.53,0,0,0-17-20q-10.93-7.34-25.5-7.35a44.09,44.09,0,0,0-25.17,7.35,49.4,49.4,0,0,0-17.06,20,65.13,65.13,0,0,0-6.13,28.71,64.28,64.28,0,0,0,6.13,28.37,49.37,49.37,0,0,0,17.06,20A44.08,44.08,0,0,0,865.63,246.27Z" transform="translate(-65.85 -32.65)"/><path d="M1140.5,32.65a19.21,19.21,0,0,1,14.24,5.68q5.63,5.67,5.63,14.68V259.29a20.1,20.1,0,0,1-5.63,14.52,20.28,20.28,0,0,1-28.48,0,20.06,20.06,0,0,1-5.63-14.52V242.93l7.28,3q0,4.34-4.63,10.51a63.34,63.34,0,0,1-12.59,12.18A76.87,76.87,0,0,1,1092,278.81a64.11,64.11,0,0,1-23.35,4.18,75.25,75.25,0,0,1-41.39-11.85q-18.56-11.85-29.31-32.71t-10.77-47.9q0-27.36,10.77-48.23t29-32.71a72.53,72.53,0,0,1,40.41-11.85,76.05,76.05,0,0,1,26.16,4.34,77.87,77.87,0,0,1,20.7,11,63.36,63.36,0,0,1,13.58,13.52c3.19,4.56,4.8,8.4,4.8,11.52l-11.92,4.33V53a20.09,20.09,0,0,1,5.63-14.52A18.93,18.93,0,0,1,1140.5,32.65Zm-66.9,213.62q14.57,0,25.5-7.34a49.44,49.44,0,0,0,17.06-20,64.41,64.41,0,0,0,6.12-28.37,65.27,65.27,0,0,0-6.12-28.71,49.48,49.48,0,0,0-17.06-20q-10.93-7.34-25.5-7.35a44.13,44.13,0,0,0-25.17,7.35,49.46,49.46,0,0,0-17,20,65.13,65.13,0,0,0-6.13,28.71,64.28,64.28,0,0,0,6.13,28.37,49.42,49.42,0,0,0,17,20A44.13,44.13,0,0,0,1073.6,246.27Z" transform="translate(-65.85 -32.65)"/><path d="M1334.89,101.08a19,19,0,0,1,14.24,5.84,20.1,20.1,0,0,1,5.63,14.52V263.29q0,30.7-11.42,48.9a65.08,65.08,0,0,1-30.64,26.2q-19.2,8-43,8a161.63,161.63,0,0,1-22.52-1.67,75.57,75.57,0,0,1-19.54-5q-9.93-4.35-13.74-10.85a16.45,16.45,0,0,1-1.49-13.85q3-9.69,9.6-13.19a16.45,16.45,0,0,1,13.91-.83q5.3,1.67,13.91,5.17a52.32,52.32,0,0,0,19.87,3.51q15.22,0,25.34-4.17a29.46,29.46,0,0,0,15.23-14q5.13-9.86,5.13-26.87V242.26l7,8a58.55,58.55,0,0,1-14.08,18.19,57.18,57.18,0,0,1-20,10.84,87.66,87.66,0,0,1-26.5,3.68q-17.55,0-30.63-8.18a55.48,55.48,0,0,1-20.37-22.7q-7.29-14.52-7.28-33.21V121.44a20.06,20.06,0,0,1,5.63-14.52,20.28,20.28,0,0,1,28.48,0,20.1,20.1,0,0,1,5.63,14.52v85.44q0,21.7,9.44,30.54t26.32,8.85q11.6,0,19.54-4.51a29.88,29.88,0,0,0,12.26-13.35q4.29-8.83,4.3-21.53V121.44a20.1,20.1,0,0,1,5.63-14.52A19,19,0,0,1,1334.89,101.08Z" transform="translate(-65.85 -32.65)"/></g><g class="cls-1"><path d="M504.72,351.17l-24.47,64.92a7.83,7.83,0,0,1-2.44,3.77,5.49,5.49,0,0,1-3.57,1.35,5.34,5.34,0,0,1-4.53-1.92,7.56,7.56,0,0,1-1.47-4.73,9.29,9.29,0,0,1,.34-2.43l28.21-76.42a8.2,8.2,0,0,1,2.78-4,5.4,5.4,0,0,1,4-1.15,6.12,6.12,0,0,1,3.8,1.34,7.52,7.52,0,0,1,2.55,3.77l27.87,74.89a9.49,9.49,0,0,1,.56,3.07,7.55,7.55,0,0,1-2,5.49,6,6,0,0,1-4.36,2,5.49,5.49,0,0,1-3.68-1.41A9.09,9.09,0,0,1,525.8,416l-24.36-64Zm-21,49.33L490,385.8h30.6l2.15,14.7Z" transform="translate(-65.85 -32.65)"/><path d="M603.19,331a5.81,5.81,0,0,1,4.75,2.24,8.53,8.53,0,0,1,1.82,5.56V385a42.11,42.11,0,0,1-4,18.79,31.54,31.54,0,0,1-11,12.77,31.28,31.28,0,0,1-32.69,0,31.28,31.28,0,0,1-11.1-12.77,42,42,0,0,1-4-18.79V338.78a7.93,7.93,0,0,1,2-5.56,6.75,6.75,0,0,1,5.21-2.24,6.35,6.35,0,0,1,4.71,2.24,7.84,7.84,0,0,1,2.09,5.56V385a23.49,23.49,0,0,0,2.44,11,18.4,18.4,0,0,0,6.46,7.22,15.62,15.62,0,0,0,8.55,2.56,17.08,17.08,0,0,0,9.07-2.56,19.16,19.16,0,0,0,6.79-7.22,22.27,22.27,0,0,0,2.61-11V338.78a8.93,8.93,0,0,1,1.7-5.56A5.52,5.52,0,0,1,603.19,331Z" transform="translate(-65.85 -32.65)"/><path d="M682.27,335.45a6.76,6.76,0,0,1,3.46,5.24,8.61,8.61,0,0,1-1.64,6.52,5.12,5.12,0,0,1-3.8,2.56,7.9,7.9,0,0,1-4.7-1,27.41,27.41,0,0,0-5.72-2.17,25.44,25.44,0,0,0-6.29-.77A26.31,26.31,0,0,0,652.64,348a23,23,0,0,0-8.21,6.19,27.56,27.56,0,0,0-5.16,9.53,39.74,39.74,0,0,0-1.75,12.14,41.61,41.61,0,0,0,2,13.54A27,27,0,0,0,645,399a22,22,0,0,0,8.28,5.69,28.27,28.27,0,0,0,10.31,1.85,29.59,29.59,0,0,0,6.12-.64,19.6,19.6,0,0,0,5.89-2.3,7.29,7.29,0,0,1,4.7-.9,5.91,5.91,0,0,1,3.91,2.69,8.4,8.4,0,0,1,1.64,6.58,6.64,6.64,0,0,1-3.45,4.92,37.88,37.88,0,0,1-6.07,2.75,41.56,41.56,0,0,1-6.28,1.66,36.51,36.51,0,0,1-6.46.57,41.24,41.24,0,0,1-15.47-2.93,38.42,38.42,0,0,1-13-8.7,40.48,40.48,0,0,1-9-14.37,56,56,0,0,1-3.28-20,53.09,53.09,0,0,1,3-18.15,42.75,42.75,0,0,1,8.5-14.38,38.7,38.7,0,0,1,29.29-12.84,37.47,37.47,0,0,1,9.74,1.28A36.65,36.65,0,0,1,682.27,335.45Z" transform="translate(-65.85 -32.65)"/><path d="M699.61,345.8a6.59,6.59,0,0,1-4.93-2,7.38,7.38,0,0,1-2-5.37,7.17,7.17,0,0,1,2-5.3,6.69,6.69,0,0,1,4.93-2h50.31a6.62,6.62,0,0,1,4.93,2,7.4,7.4,0,0,1,2,5.37,7.15,7.15,0,0,1-2,5.3,6.72,6.72,0,0,1-4.93,2Zm25,74.77a6.73,6.73,0,0,1-5.21-2.24,7.93,7.93,0,0,1-2-5.56V338.65h14.73v74.12a7.8,7.8,0,0,1-2.1,5.56A7.05,7.05,0,0,1,724.65,420.57Z" transform="translate(-65.85 -32.65)"/><path d="M782.89,412.77a7.71,7.71,0,0,1-2.15,5.56,6.75,6.75,0,0,1-5,2.24,6.41,6.41,0,0,1-5.1-2.24,8.23,8.23,0,0,1-1.92-5.56V338.9a7.94,7.94,0,0,1,2-5.56,6.75,6.75,0,0,1,5.22-2.23,6.43,6.43,0,0,1,4.81,2.23,7.82,7.82,0,0,1,2.1,5.56Z" transform="translate(-65.85 -32.65)"/><path d="M872.85,375.84A55,55,0,0,1,870,393.73a46.83,46.83,0,0,1-8,14.63,37.42,37.42,0,0,1-12.24,9.91,35.15,35.15,0,0,1-30.87,0,37.52,37.52,0,0,1-12.18-9.91,46.83,46.83,0,0,1-8-14.63,58,58,0,0,1,0-35.78,46.88,46.88,0,0,1,8-14.64,37.36,37.36,0,0,1,12.18-9.9,35.06,35.06,0,0,1,30.87,0,37.27,37.27,0,0,1,12.24,9.9A46.88,46.88,0,0,1,870,358,55,55,0,0,1,872.85,375.84Zm-14.73,0a38.2,38.2,0,0,0-3.06-15.53,27.64,27.64,0,0,0-8.38-11.06,20.73,20.73,0,0,0-24.7,0,27.19,27.19,0,0,0-8.33,11,41.83,41.83,0,0,0,0,31.11A27.12,27.12,0,0,0,822,402.42a20.69,20.69,0,0,0,24.7,0,27.57,27.57,0,0,0,8.38-11.06A38.15,38.15,0,0,0,858.12,375.84Z" transform="translate(-65.85 -32.65)"/><path d="M946.05,331.11a5.5,5.5,0,0,1,4.42,2,7.76,7.76,0,0,1,1.7,5.11v74.51a8.08,8.08,0,0,1-2,5.56,6.31,6.31,0,0,1-4.92,2.24,8.37,8.37,0,0,1-3-.58,5,5,0,0,1-2.32-1.6L895.4,354.62l3-2v60.83a7.57,7.57,0,0,1-1.76,5.11,5.74,5.74,0,0,1-4.59,2.05,5.48,5.48,0,0,1-4.42-2.05,7.74,7.74,0,0,1-1.7-5.11V338.9a8.09,8.09,0,0,1,2-5.56,6.34,6.34,0,0,1,4.93-2.23,8.54,8.54,0,0,1,3.29.7,4.89,4.89,0,0,1,2.49,2.11L941.74,396l-1.92,1.53v-59.3a7.71,7.71,0,0,1,1.7-5.11A5.59,5.59,0,0,1,946.05,331.11Z" transform="translate(-65.85 -32.65)"/></g></svg>