<svg id="Layer_1" data-name="Layer 1" xmlns="http://www.w3.org/2000/svg" viewBox="0 0 1812.16 452.87"><defs><style>.cls-1,.cls-2{fill:#ff0c01;}.cls-2{stroke:#ff0c01;stroke-miterlimit:10;}.cls-3{fill:#fff;}.cls-4{font-size:333.78px;}.cls-4,.cls-8{font-family:Quicksand-Bold, Quicksand;font-weight:700;}.cls-5{letter-spacing:-0.02em;}.cls-6{letter-spacing:0em;}.cls-7{letter-spacing:0em;}.cls-8{font-size:127.8px;}.cls-9{letter-spacing:-0.01em;}</style></defs><path class="cls-1" d="M336.88,274.51c-75.31,12.83-150.19,14.9-225.07.22-.23.31-.64.61-.64.92,0,23.72-15.69,31.61-33.28,33.69-9.92,1.17-20.11.51-30.13,0-8.32-.46-13.22-5.67-15.7-13.74-9-29.34-16.64-59-19.58-89.69C10,179.94,9.82,154.12,19.92,129.4a58.13,58.13,0,0,1,3.77-7.78c6-10.17,20.34-11.29,27-1.63,21.16,31,51.66,47.84,85.85,58.78,39.59,12.66,80.28,14.56,121.38,10.81,33.1-3,64.76-11.13,93.93-27.77,18.1-10.33,34.11-23.12,45.93-40.86,7.21-10.82,21.07-10.15,27.86,1.17,8.18,13.64,11.9,28.76,13.41,44.46,4.45,46.24-7.54,89.57-23.12,132.2-2.2,6-7.08,10.34-13.37,10.31-14-.07-28.24.25-41.94-2.18C343.12,303.8,336.16,293,336.88,274.51ZM83.38,181.79c1,2.21,1.79,4.13,2.77,5.93,14.56,26.75,36.26,45.39,63.77,57.12,30.74,13.1,62.93,15.61,95.69,11.85,45.44-5.22,82.86-25.45,110.75-62.73,4.24-5.68,7.66-12,11.47-18C273.82,234.37,179.85,245.09,83.38,181.79Z" transform="translate(-11.06 -1.65)"/><path class="cls-2" d="M376.24,100a2202.52,2202.52,0,0,0-304.4,0c5.85-15.2,11.43-29.48,16.83-43.83,3.73-9.91,6.85-20,14.63-27.81,11-11.07,24.47-16.43,39.33-17.55,28.44-2.14,57-4.69,85.42-4.54A719.1,719.1,0,0,1,311.62,12c22.27,2.74,38.2,15.37,45.58,38.27C362.5,66.68,369.51,82.56,376.24,100Z" transform="translate(-11.06 -1.65)"/><path class="cls-1" d="M67.63,74.28c0,15.58-11.57,27.56-26.4,27.44-14.55-.11-25.86-12.43-25.84-28.14,0-15.38,12-28.08,26.26-28C56.41,45.75,67.68,58.18,67.63,74.28Z" transform="translate(-11.06 -1.65)"/><path class="cls-1" d="M433.66,73.77c0,15.64-11.42,27.89-26,28-14.84.06-26.54-12.43-26.44-28.21.1-15.2,12.26-28,26.42-27.9C422,45.76,433.67,58.32,433.66,73.77Z" transform="translate(-11.06 -1.65)"/><path class="cls-3" d="M83.38,181.79c96.47,63.3,190.44,52.58,284.45-5.84-3.81,6-7.23,12.33-11.47,18-27.89,37.28-65.31,57.51-110.75,62.73-32.76,3.76-65,1.25-95.69-11.85-27.51-11.73-49.21-30.37-63.77-57.12C85.17,185.92,84.41,184,83.38,181.79Z" transform="translate(-11.06 -1.65)"/><text class="cls-4" transform="translate(488.5 283.71) scale(0.99 1)">ca<tspan class="cls-5" x="383.17" y="0">r</tspan><tspan class="cls-6" x="520.69" y="0">e</tspan><tspan class="cls-7" x="718.95" y="0">ady</tspan></text><text class="cls-8" transform="translate(903.01 424.63) scale(0.89 1)"><tspan class="cls-9">A</tspan><tspan x="80.39" y="0">UCTION</tspan></text></svg>