<svg width="20" height="20" viewBox="0 0 20 20" fill="none" xmlns="http://www.w3.org/2000/svg">
<path d="M16.6667 18.3307H3.33333C3.11232 18.3307 2.90036 18.2429 2.74408 18.0867C2.5878 17.9304 2.5 17.7184 2.5 17.4974V2.4974C2.5 2.27638 2.5878 2.06442 2.74408 1.90814C2.90036 1.75186 3.11232 1.66406 3.33333 1.66406H16.6667C16.8877 1.66406 17.0996 1.75186 17.2559 1.90814C17.4122 2.06442 17.5 2.27638 17.5 2.4974V17.4974C17.5 17.7184 17.4122 17.9304 17.2559 18.0867C17.0996 18.2429 16.8877 18.3307 16.6667 18.3307ZM15.8333 16.6641V3.33073H4.16667V16.6641H15.8333ZM5.83333 4.9974H9.16667V8.33073H5.83333V4.9974ZM5.83333 9.9974H14.1667V11.6641H5.83333V9.9974ZM5.83333 13.3307H14.1667V14.9974H5.83333V13.3307ZM10.8333 5.83073H14.1667V7.4974H10.8333V5.83073Z" fill="#1E1E1F"/>
</svg>
