<svg width="20" height="20" viewBox="0 0 20 20" fill="none" xmlns="http://www.w3.org/2000/svg">
<path d="M10.0012 18.3332C9.01628 18.3332 8.04101 18.1392 7.13107 17.7623C6.22113 17.3854 5.39434 16.833 4.6979 16.1365C4.00146 15.4401 3.44901 14.6133 3.0721 13.7034C2.69519 12.7934 2.5012 11.8181 2.5012 10.8332C2.5012 9.84832 2.69519 8.87305 3.0721 7.9631C3.44901 7.05316 4.00146 6.22637 4.6979 5.52993C5.39434 4.83349 6.22113 4.28104 7.13107 3.90413C8.04101 3.52722 9.01628 3.33323 10.0012 3.33323C11.9903 3.33323 13.898 4.12341 15.3045 5.52993C16.711 6.93645 17.5012 8.84411 17.5012 10.8332C17.5012 12.8224 16.711 14.73 15.3045 16.1365C13.898 17.5431 11.9903 18.3332 10.0012 18.3332V18.3332ZM10.0012 16.6666C10.7672 16.6666 11.5258 16.5157 12.2335 16.2225C12.9413 15.9294 13.5843 15.4997 14.126 14.958C14.6677 14.4163 15.0973 13.7733 15.3905 13.0655C15.6836 12.3578 15.8345 11.5993 15.8345 10.8332C15.8345 10.0672 15.6836 9.30864 15.3905 8.60091C15.0973 7.89318 14.6677 7.25012 14.126 6.70844C13.5843 6.16676 12.9413 5.73708 12.2335 5.44393C11.5258 5.15078 10.7672 4.9999 10.0012 4.9999C8.4541 4.9999 6.97037 5.61448 5.87641 6.70844C4.78245 7.8024 4.16786 9.28613 4.16786 10.8332C4.16786 12.3803 4.78245 13.8641 5.87641 14.958C6.97037 16.052 8.4541 16.6666 10.0012 16.6666V16.6666ZM10.8345 10.8332H13.3345V12.4999H9.16786V6.66656H10.8345V10.8332ZM1.45703 5.2349L4.40286 2.28906L5.58203 3.4674L2.63453 6.41406L1.45703 5.2349ZM15.5987 2.28906L18.5454 5.2349L17.367 6.41406L14.4204 3.4674L15.5995 2.28906H15.5987Z" fill="#1E1E1F"/>
</svg>
